<svg width="41" height="41" viewBox="0 0 41 41" fill="none" xmlns="http://www.w3.org/2000/svg">
<path d="M33 9.25H28.6688L26.5391 6.05625C26.425 5.88524 26.2704 5.745 26.0892 5.64798C25.908 5.55095 25.7056 5.50012 25.5 5.5H15.5C15.2944 5.50012 15.092 5.55095 14.9108 5.64798C14.7296 5.745 14.575 5.88524 14.4609 6.05625L12.3297 9.25H8C7.00544 9.25 6.05161 9.64509 5.34835 10.3483C4.64509 11.0516 4.25 12.0054 4.25 13V30.5C4.25 31.4946 4.64509 32.4484 5.34835 33.1517C6.05161 33.8549 7.00544 34.25 8 34.25H33C33.9946 34.25 34.9484 33.8549 35.6517 33.1517C36.3549 32.4484 36.75 31.4946 36.75 30.5V13C36.75 12.0054 36.3549 11.0516 35.6517 10.3483C34.9484 9.64509 33.9946 9.25 33 9.25ZM34.25 30.5C34.25 30.8315 34.1183 31.1495 33.8839 31.3839C33.6495 31.6183 33.3315 31.75 33 31.75H8C7.66848 31.75 7.35054 31.6183 7.11612 31.3839C6.8817 31.1495 6.75 30.8315 6.75 30.5V13C6.75 12.6685 6.8817 12.3505 7.11612 12.1161C7.35054 11.8817 7.66848 11.75 8 11.75H13C13.2058 11.7501 13.4085 11.6994 13.5901 11.6024C13.7716 11.5054 13.9264 11.365 14.0406 11.1938L16.1687 8H24.8297L26.9594 11.1938C27.0736 11.365 27.2284 11.5054 27.4099 11.6024C27.5915 11.6994 27.7942 11.7501 28 11.75H33C33.3315 11.75 33.6495 11.8817 33.8839 12.1161C34.1183 12.3505 34.25 12.6685 34.25 13V30.5ZM26.75 21.75C26.75 22.0815 26.6183 22.3995 26.3839 22.6339C26.1495 22.8683 25.8315 23 25.5 23H21.75V26.75C21.75 27.0815 21.6183 27.3995 21.3839 27.6339C21.1495 27.8683 20.8315 28 20.5 28C20.1685 28 19.8505 27.8683 19.6161 27.6339C19.3817 27.3995 19.25 27.0815 19.25 26.75V23H15.5C15.1685 23 14.8505 22.8683 14.6161 22.6339C14.3817 22.3995 14.25 22.0815 14.25 21.75C14.25 21.4185 14.3817 21.1005 14.6161 20.8661C14.8505 20.6317 15.1685 20.5 15.5 20.5H19.25V16.75C19.25 16.4185 19.3817 16.1005 19.6161 15.8661C19.8505 15.6317 20.1685 15.5 20.5 15.5C20.8315 15.5 21.1495 15.6317 21.3839 15.8661C21.6183 16.1005 21.75 16.4185 21.75 16.75V20.5H25.5C25.8315 20.5 26.1495 20.6317 26.3839 20.8661C26.6183 21.1005 26.75 21.4185 26.75 21.75Z" fill="#667085"/>
</svg>
