<svg width="20" height="20" viewBox="0 0 20 20" fill="none" xmlns="http://www.w3.org/2000/svg">
<path d="M10.0001 5.12501C10.816 5.12501 11.6135 5.36694 12.2919 5.8202C12.9702 6.27346 13.4989 6.9177 13.8111 7.67144C14.1234 8.42519 14.2051 9.25459 14.0459 10.0548C13.8867 10.8549 13.4939 11.5899 12.917 12.1668C12.3401 12.7437 11.6051 13.1366 10.8049 13.2957C10.0047 13.4549 9.17532 13.3732 8.42158 13.061C7.66783 12.7488 7.0236 12.2201 6.57033 11.5417C6.11707 10.8634 5.87515 10.0659 5.87515 9.25001C5.87515 8.15599 6.30974 7.10678 7.08333 6.33319C7.85692 5.55961 8.90613 5.12501 10.0001 5.12501ZM14.5001 4.00001H16.0001V5.50001C16.0001 5.69892 16.0792 5.88969 16.2198 6.03034C16.3605 6.17099 16.5512 6.25001 16.7501 6.25001C16.9491 6.25001 17.1398 6.17099 17.2805 6.03034C17.4211 5.88969 17.5001 5.69892 17.5001 5.50001V4.00001H19.0001C19.1991 4.00001 19.3898 3.92099 19.5305 3.78034C19.6711 3.63969 19.7501 3.44892 19.7501 3.25001C19.7501 3.0511 19.6711 2.86033 19.5305 2.71968C19.3898 2.57903 19.1991 2.50001 19.0001 2.50001H17.5001V1.00001C17.5001 0.801098 17.4211 0.610333 17.2805 0.469681C17.1398 0.329028 16.9491 0.250011 16.7501 0.250011C16.5512 0.250011 16.3605 0.329028 16.2198 0.469681C16.0792 0.610333 16.0001 0.801098 16.0001 1.00001V2.50001H14.5001C14.3012 2.50001 14.1105 2.57903 13.9698 2.71968C13.8292 2.86033 13.7501 3.0511 13.7501 3.25001C13.7501 3.44892 13.8292 3.63969 13.9698 3.78034C14.1105 3.92099 14.3012 4.00001 14.5001 4.00001ZM18.7517 7.76032C18.5555 7.79315 18.3804 7.90256 18.2649 8.06449C18.1494 8.22641 18.103 8.42758 18.1358 8.62376C18.2119 9.07855 18.2502 9.53889 18.2501 10C18.2519 12.0196 17.5097 13.969 16.1651 15.4759C15.6196 14.6853 14.927 14.007 14.1251 13.4781C14.0567 13.4327 13.9752 13.4111 13.8932 13.4165C13.8112 13.4219 13.7333 13.4541 13.6714 13.5081C12.6524 14.3898 11.35 14.8751 10.0025 14.8751C8.655 14.8751 7.35258 14.3898 6.33358 13.5081C6.27132 13.453 6.19249 13.4201 6.1095 13.4147C6.02651 13.4093 5.94407 13.4316 5.87515 13.4781C5.07205 14.0065 4.37843 14.6848 3.83233 15.4759C2.77722 14.287 2.08807 12.8185 1.84777 11.2472C1.60747 9.67582 1.82624 8.0685 2.47779 6.61854C3.12933 5.16858 4.1859 3.93773 5.52041 3.07403C6.85491 2.21033 8.41053 1.75055 10.0001 1.75001C10.4613 1.74994 10.9216 1.78819 11.3764 1.86439C11.5717 1.8952 11.7712 1.84766 11.9317 1.73209C12.0921 1.61653 12.2004 1.4423 12.233 1.24731C12.2656 1.05231 12.2199 0.852316 12.1059 0.690833C11.9918 0.52935 11.8186 0.41944 11.6239 0.385011C9.58712 0.0423685 7.49415 0.355887 5.64718 1.2803C3.8002 2.20471 2.2948 3.69218 1.34832 5.52795C0.401839 7.36371 0.06326 9.45277 0.381468 11.4935C0.699677 13.5342 1.65821 15.421 3.11866 16.8815C4.57911 18.342 6.46592 19.3005 8.50665 19.6187C10.5474 19.9369 12.6364 19.5983 14.4722 18.6518C16.308 17.7054 17.7954 16.2 18.7199 14.353C19.6443 12.506 19.9578 10.413 19.6151 8.37626C19.5823 8.18009 19.4729 8.00499 19.311 7.88948C19.1491 7.77397 18.9479 7.72751 18.7517 7.76032Z" fill="#00A099"/>
</svg>
