<svg width="18" height="22" viewBox="0 0 18 22" fill="none" xmlns="http://www.w3.org/2000/svg">
<path fill-rule="evenodd" clip-rule="evenodd" d="M10.7102 0.800049C10.9339 0.802733 11.1475 0.89347 11.3047 1.05259C11.4619 1.2117 11.55 1.42637 11.55 1.65005V20.35C11.55 20.5736 11.462 20.7881 11.305 20.9472C11.1479 21.1063 10.9346 21.1971 10.7111 21.2H1.35C1.12457 21.2 0.908365 21.1105 0.748959 20.9511C0.589554 20.7917 0.5 20.5755 0.5 20.35V6.2409C0.499906 5.71735 0.660968 5.20646 0.961307 4.77762C1.26165 4.34878 1.68671 4.02278 2.17875 3.8439L10.4093 0.851049C10.4994 0.818749 10.5921 0.801749 10.6847 0.800049H10.6974H10.7102ZM13.25 7.76835L15.9547 8.9269C16.4134 9.12364 16.8042 9.4506 17.0789 9.8673C17.3536 10.284 17.5 10.7721 17.5 11.2712V20.35C17.5 20.5755 17.4104 20.7917 17.251 20.9511C17.0916 21.1105 16.8754 21.2 16.65 21.2H13.1047C13.199 20.934 13.25 20.6484 13.25 20.35V7.76835ZM7.31105 15.25C7.42267 15.2493 7.53306 15.2266 7.63591 15.1832C7.73876 15.1398 7.83206 15.0766 7.91047 14.9972C7.98889 14.9177 8.05089 14.8236 8.09294 14.7202C8.13498 14.6168 8.15625 14.5061 8.15553 14.3945C8.1548 14.2829 8.13209 14.1725 8.08871 14.0697C8.04532 13.9668 7.9821 13.8735 7.90266 13.7951C7.82322 13.7167 7.72911 13.6547 7.6257 13.6126C7.5223 13.5706 7.41162 13.5493 7.3 13.55H4.75C4.52457 13.55 4.30837 13.6396 4.14896 13.799C3.98955 13.9584 3.9 14.1746 3.9 14.4C3.9 14.6255 3.98955 14.8417 4.14896 15.0011C4.30837 15.1605 4.52457 15.25 4.75 15.25H7.3H7.31105ZM7.31105 11.85C7.53648 11.8486 7.7521 11.7576 7.91047 11.5972C8.06884 11.4367 8.15699 11.22 8.15553 10.9945C8.15406 10.7691 8.0631 10.5535 7.90266 10.3951C7.74222 10.2367 7.52543 10.1486 7.3 10.15H4.75C4.52457 10.15 4.30837 10.2396 4.14896 10.399C3.98955 10.5584 3.9 10.7746 3.9 11C3.9 11.2255 3.98955 11.4417 4.14896 11.6011C4.30837 11.7605 4.52457 11.85 4.75 11.85H7.3H7.31105ZM7.31105 8.45005C7.53648 8.44858 7.7521 8.35763 7.91047 8.19718C8.06884 8.03674 8.15699 7.81996 8.15553 7.59452C8.15406 7.36909 8.0631 7.15347 7.90266 6.9951C7.74222 6.83673 7.52543 6.74858 7.3 6.75005H4.75C4.52457 6.75005 4.30837 6.8396 4.14896 6.99901C3.98955 7.15841 3.9 7.37461 3.9 7.60005C3.9 7.82548 3.98955 8.04168 4.14896 8.20109C4.30837 8.3605 4.52457 8.45005 4.75 8.45005H7.3H7.31105Z" fill="#00A099"/>
</svg>
