<svg width="128" height="126" viewBox="0 0 128 126" fill="none" xmlns="http://www.w3.org/2000/svg">
<path d="M55.1953 20.8177L56.9985 29.2506" stroke="#00A099" stroke-miterlimit="10"/>
<path d="M60.5801 28.6898L59.6719 20.0971" stroke="#00A099" stroke-miterlimit="10"/>
<path d="M81.7958 23.6005L78.2695 31.4738" stroke="#00A099" stroke-miterlimit="10"/>
<path d="M81.4961 33.1139L85.8238 25.6402" stroke="#00A099" stroke-miterlimit="10"/>
<path d="M50.8477 21.9903L53.5191 30.1833" stroke="#00A099" stroke-miterlimit="10"/>
<path d="M56.9985 29.2506L55.1953 20.8177" stroke="#00A099" stroke-miterlimit="10"/>
<path d="M46.6133 23.6005L50.1395 31.4738" stroke="#00A099" stroke-miterlimit="10"/>
<path d="M53.5191 30.1833L50.8477 21.9903" stroke="#00A099" stroke-miterlimit="10"/>
<path d="M73.2016 20.8035L71.3984 29.2497" stroke="#00A099" stroke-miterlimit="10"/>
<path d="M74.8828 30.1824L77.5542 21.976" stroke="#00A099" stroke-miterlimit="10"/>
<path d="M64.1992 19.8589V28.4916" stroke="#00A099" stroke-miterlimit="10"/>
<path d="M67.8164 28.6765L68.7247 20.0971" stroke="#00A099" stroke-miterlimit="10"/>
<path d="M59.6719 20.0971L60.5801 28.6898" stroke="#00A099" stroke-miterlimit="10"/>
<path d="M64.1992 28.4916V19.8589" stroke="#00A099" stroke-miterlimit="10"/>
<path d="M38.4755 39.921L32.0508 34.1392" stroke="#00A099" stroke-miterlimit="10"/>
<path d="M29.1875 37.6426L36.1866 42.7183" stroke="#00A099" stroke-miterlimit="10"/>
<path d="M32.0508 34.1392L38.4755 39.921" stroke="#00A099" stroke-miterlimit="10"/>
<path d="M41.0453 37.3633L35.2617 30.9554" stroke="#00A099" stroke-miterlimit="10"/>
<path d="M36.1866 42.7183L29.1875 37.6426" stroke="#00A099" stroke-miterlimit="10"/>
<path d="M26.7422 41.4412L34.2355 45.7575" stroke="#00A099" stroke-miterlimit="10"/>
<path d="M38.7773 28.1197L43.8664 35.0871" stroke="#00A099" stroke-miterlimit="10"/>
<path d="M46.9019 33.1261L42.5742 25.6525" stroke="#00A099" stroke-miterlimit="10"/>
<path d="M35.2617 30.9554L41.0453 37.3633" stroke="#00A099" stroke-miterlimit="10"/>
<path d="M43.8664 35.0871L38.7773 28.1197" stroke="#00A099" stroke-miterlimit="10"/>
<path d="M42.5742 25.6525L46.9019 33.1261" stroke="#00A099" stroke-miterlimit="10"/>
<path d="M50.1395 31.4738L46.6133 23.6005" stroke="#00A099" stroke-miterlimit="10"/>
<path d="M34.2355 45.7575L26.7422 41.4412" stroke="#00A099" stroke-miterlimit="10"/>
<path d="M24.6758 45.4637L32.5831 48.9674" stroke="#00A099" stroke-miterlimit="10"/>
<path d="M98.8047 63.0072H107.46" stroke="#00A099" stroke-miterlimit="10"/>
<path d="M107.211 58.4921L98.6094 59.398" stroke="#00A099" stroke-miterlimit="10"/>
<path d="M98.6094 66.6185L107.211 67.5244" stroke="#00A099" stroke-miterlimit="10"/>
<path d="M107.46 63.0072H98.8047" stroke="#00A099" stroke-miterlimit="10"/>
<path d="M106.511 54.0421L98.043 55.8272" stroke="#00A099" stroke-miterlimit="10"/>
<path d="M98.6094 59.398L107.211 58.4921" stroke="#00A099" stroke-miterlimit="10"/>
<path d="M85.8238 25.6402L81.4961 33.1139" stroke="#00A099" stroke-miterlimit="10"/>
<path d="M84.5391 35.0862L89.6281 28.1055" stroke="#00A099" stroke-miterlimit="10"/>
<path d="M95.8086 77.0493L103.716 80.553" stroke="#00A099" stroke-miterlimit="10"/>
<path d="M105.341 76.3427L97.1133 73.6783" stroke="#00A099" stroke-miterlimit="10"/>
<path d="M105.341 49.6735L97.1133 52.3512" stroke="#00A099" stroke-miterlimit="10"/>
<path d="M98.043 55.8272L106.511 54.0421" stroke="#00A099" stroke-miterlimit="10"/>
<path d="M97.1133 73.6783L105.341 76.3427" stroke="#00A099" stroke-miterlimit="10"/>
<path d="M106.514 71.9743L98.0586 70.1891" stroke="#00A099" stroke-miterlimit="10"/>
<path d="M98.0586 70.1891L106.514 71.9743" stroke="#00A099" stroke-miterlimit="10"/>
<path d="M107.211 67.5244L98.6094 66.6185" stroke="#00A099" stroke-miterlimit="10"/>
<path d="M96.3365 34.1392L89.8984 39.921" stroke="#00A099" stroke-miterlimit="10"/>
<path d="M92.1953 42.7193L99.1944 37.6569" stroke="#00A099" stroke-miterlimit="10"/>
<path d="M93.143 30.9554L87.3594 37.3633" stroke="#00A099" stroke-miterlimit="10"/>
<path d="M89.8984 39.921L96.3365 34.1392" stroke="#00A099" stroke-miterlimit="10"/>
<path d="M89.6281 28.1055L84.5391 35.0862" stroke="#00A099" stroke-miterlimit="10"/>
<path d="M87.3594 37.3633L93.143 30.9554" stroke="#00A099" stroke-miterlimit="10"/>
<path d="M101.657 41.4412L94.1641 45.7575" stroke="#00A099" stroke-miterlimit="10"/>
<path d="M95.8086 48.9674L103.716 45.4637" stroke="#00A099" stroke-miterlimit="10"/>
<path d="M99.1944 37.6569L92.1953 42.7193" stroke="#00A099" stroke-miterlimit="10"/>
<path d="M94.1641 45.7575L101.657 41.4412" stroke="#00A099" stroke-miterlimit="10"/>
<path d="M68.7247 20.0971L67.8164 28.6765" stroke="#00A099" stroke-miterlimit="10"/>
<path d="M71.3984 29.2497L73.2016 20.8035" stroke="#00A099" stroke-miterlimit="10"/>
<path d="M67.8164 97.3268L68.7247 105.906" stroke="#00A099" stroke-miterlimit="10"/>
<path d="M73.2016 105.2L71.3984 96.767" stroke="#00A099" stroke-miterlimit="10"/>
<path d="M74.8828 95.8204L77.5542 104.027" stroke="#00A099" stroke-miterlimit="10"/>
<path d="M81.7824 102.416L78.2695 94.5297" stroke="#00A099" stroke-miterlimit="10"/>
<path d="M50.8477 104.039L53.5191 95.8326" stroke="#00A099" stroke-miterlimit="10"/>
<path d="M50.1395 94.5419L46.6133 102.415" stroke="#00A099" stroke-miterlimit="10"/>
<path d="M71.3984 96.767L73.2016 105.2" stroke="#00A099" stroke-miterlimit="10"/>
<path d="M77.5542 104.027L74.8828 95.8204" stroke="#00A099" stroke-miterlimit="10"/>
<path d="M55.1953 105.213L56.9985 96.767" stroke="#00A099" stroke-miterlimit="10"/>
<path d="M53.5191 95.8326L50.8477 104.039" stroke="#00A099" stroke-miterlimit="10"/>
<path d="M60.5801 97.339L59.6719 105.918" stroke="#00A099" stroke-miterlimit="10"/>
<path d="M64.1992 106.144V97.5242" stroke="#00A099" stroke-miterlimit="10"/>
<path d="M56.9985 96.767L55.1953 105.213" stroke="#00A099" stroke-miterlimit="10"/>
<path d="M59.6719 105.918L60.5801 97.339" stroke="#00A099" stroke-miterlimit="10"/>
<path d="M64.1992 97.5242V106.144" stroke="#00A099" stroke-miterlimit="10"/>
<path d="M68.7247 105.906L67.8164 97.3268" stroke="#00A099" stroke-miterlimit="10"/>
<path d="M89.9141 86.0959L96.3388 91.8777" stroke="#00A099" stroke-miterlimit="10"/>
<path d="M99.1944 88.3725L92.1953 83.2968" stroke="#00A099" stroke-miterlimit="10"/>
<path d="M92.1953 83.2968L99.1944 88.3725" stroke="#00A099" stroke-miterlimit="10"/>
<path d="M101.657 84.576L94.1641 80.2596" stroke="#00A099" stroke-miterlimit="10"/>
<path d="M78.2695 94.5297L81.7824 102.416" stroke="#00A099" stroke-miterlimit="10"/>
<path d="M85.8104 100.365L81.4961 92.891" stroke="#00A099" stroke-miterlimit="10"/>
<path d="M94.1641 80.2596L101.657 84.576" stroke="#00A099" stroke-miterlimit="10"/>
<path d="M103.716 80.553L95.8086 77.0493" stroke="#00A099" stroke-miterlimit="10"/>
<path d="M81.4961 92.891L85.8104 100.365" stroke="#00A099" stroke-miterlimit="10"/>
<path d="M89.6281 97.8981L84.5391 90.9306" stroke="#00A099" stroke-miterlimit="10"/>
<path d="M93.143 95.0627L87.3594 88.6548" stroke="#00A099" stroke-miterlimit="10"/>
<path d="M84.5391 90.9306L89.6281 97.8981" stroke="#00A099" stroke-miterlimit="10"/>
<path d="M87.3594 88.6548L93.143 95.0627" stroke="#00A099" stroke-miterlimit="10"/>
<path d="M96.3388 91.8777L89.9141 86.0959" stroke="#00A099" stroke-miterlimit="10"/>
<path d="M34.2355 80.2596L26.7422 84.576" stroke="#00A099" stroke-miterlimit="10"/>
<path d="M29.2188 88.3583L36.2178 83.2826" stroke="#00A099" stroke-miterlimit="10"/>
<path d="M21.8906 71.9743L30.359 70.1891" stroke="#00A099" stroke-miterlimit="10"/>
<path d="M29.7933 66.6185L21.1914 67.5111" stroke="#00A099" stroke-miterlimit="10"/>
<path d="M23.0625 76.3438L31.2904 73.666" stroke="#00A099" stroke-miterlimit="10"/>
<path d="M30.359 70.1891L21.8906 71.9743" stroke="#00A099" stroke-miterlimit="10"/>
<path d="M21.1914 67.5111L29.7933 66.6185" stroke="#00A099" stroke-miterlimit="10"/>
<path d="M29.6007 63.0072H20.9453" stroke="#00A099" stroke-miterlimit="10"/>
<path d="M30.3456 55.8272L21.8906 54.0421" stroke="#00A099" stroke-miterlimit="10"/>
<path d="M21.1914 58.4921L29.7933 59.398" stroke="#00A099" stroke-miterlimit="10"/>
<path d="M29.7933 59.398L21.1914 58.4921" stroke="#00A099" stroke-miterlimit="10"/>
<path d="M20.9453 63.0072H29.6007" stroke="#00A099" stroke-miterlimit="10"/>
<path d="M46.9019 92.9032L42.5742 100.377" stroke="#00A099" stroke-miterlimit="10"/>
<path d="M46.6133 102.415L50.1395 94.5419" stroke="#00A099" stroke-miterlimit="10"/>
<path d="M31.2904 73.666L23.0625 76.3438" stroke="#00A099" stroke-miterlimit="10"/>
<path d="M24.6914 80.553L32.5988 77.0493" stroke="#00A099" stroke-miterlimit="10"/>
<path d="M31.2904 52.3379L23.0625 49.6735" stroke="#00A099" stroke-miterlimit="10"/>
<path d="M21.8906 54.0421L30.3456 55.8272" stroke="#00A099" stroke-miterlimit="10"/>
<path d="M43.8664 90.9306L38.7773 97.9114" stroke="#00A099" stroke-miterlimit="10"/>
<path d="M42.5742 100.377L46.9019 92.9032" stroke="#00A099" stroke-miterlimit="10"/>
<path d="M32.5988 77.0493L24.6914 80.553" stroke="#00A099" stroke-miterlimit="10"/>
<path d="M26.7422 84.576L34.2355 80.2596" stroke="#00A099" stroke-miterlimit="10"/>
<path d="M32.5831 48.9674L24.6758 45.4637" stroke="#00A099" stroke-miterlimit="10"/>
<path d="M23.0625 49.6735L31.2904 52.3379" stroke="#00A099" stroke-miterlimit="10"/>
<path d="M41.0453 88.6548L35.2617 95.0627" stroke="#00A099" stroke-miterlimit="10"/>
<path d="M38.7773 97.9114L43.8664 90.9306" stroke="#00A099" stroke-miterlimit="10"/>
<path d="M36.2178 83.2826L29.2188 88.3583" stroke="#00A099" stroke-miterlimit="10"/>
<path d="M32.0508 91.8777L38.4755 86.0959" stroke="#00A099" stroke-miterlimit="10"/>
<path d="M38.4755 86.0959L32.0508 91.8777" stroke="#00A099" stroke-miterlimit="10"/>
<path d="M35.2617 95.0627L41.0453 88.6548" stroke="#00A099" stroke-miterlimit="10"/>
<path d="M73.5625 34.285L74.8982 30.1819" stroke="#00A099" stroke-miterlimit="10" stroke-linecap="square"/>
<path d="M41.043 37.3637L43.9414 40.5744" stroke="#00A099" stroke-miterlimit="10"/>
<path d="M43.9414 40.5744L41.043 37.3637" stroke="#00A099" stroke-miterlimit="10" stroke-linecap="square"/>
<path d="M98.0428 55.8274L93.8086 56.7333" stroke="#00A099" stroke-miterlimit="10"/>
<path d="M93.8086 56.7333L98.0428 55.8274" stroke="#00A099" stroke-miterlimit="10" stroke-linecap="square"/>
<path d="M54.8357 91.7307L53.5 95.8339" stroke="#00A099" stroke-miterlimit="10"/>
<path d="M84.4609 85.4425L87.3594 88.6531" stroke="#00A099" stroke-miterlimit="10"/>
<path d="M87.3594 88.6531L84.4609 85.4425" stroke="#00A099" stroke-miterlimit="10" stroke-linecap="square"/>
<path d="M34.5802 69.2832L30.3594 70.1891" stroke="#00A099" stroke-miterlimit="10"/>
<path d="M30.3594 70.1891L34.5802 69.2832" stroke="#00A099" stroke-miterlimit="10" stroke-linecap="square"/>
<path d="M53.5 95.8339L54.8357 91.7307" stroke="#00A099" stroke-miterlimit="10" stroke-linecap="square"/>
<path d="M29.3359 110.863L34.3181 104.028" stroke="#0E2050" stroke-miterlimit="10"/>
<path d="M30.1924 100.684L24.5156 106.972" stroke="#0E2050" stroke-miterlimit="10"/>
<path d="M108.289 23.4153L101.984 29.0905" stroke="#0E2050" stroke-miterlimit="10"/>
<path d="M105.34 33.204L112.205 28.2216" stroke="#0E2050" stroke-miterlimit="10"/>
<path d="M99.0681 15.1545L94.0859 21.9887" stroke="#0E2050" stroke-miterlimit="10"/>
<path d="M98.2227 25.3327L103.899 19.0447" stroke="#0E2050" stroke-miterlimit="10"/>
<path d="M115.586 33.4187L119.246 31.3138" stroke="#0E2050" stroke-miterlimit="10"/>
<path d="M108.238 37.6571L115.585 33.4207" stroke="#0E2050" stroke-miterlimit="10"/>
<path d="M112.205 28.2216L105.34 33.204" stroke="#0E2050" stroke-miterlimit="10"/>
<path d="M93.8725 11.7834L89.625 19.0973" stroke="#0E2050" stroke-miterlimit="10"/>
<path d="M94.0859 21.9887L99.0681 15.1545" stroke="#0E2050" stroke-miterlimit="10"/>
<path d="M103.899 19.0447L98.2227 25.3327" stroke="#0E2050" stroke-miterlimit="10"/>
<path d="M101.984 29.0905L108.289 23.4153" stroke="#0E2050" stroke-miterlimit="10"/>
<path d="M122.236 50.7118L113.941 52.4703" stroke="#0E2050" stroke-miterlimit="10"/>
<path d="M114.785 57.7042L123.213 56.8249" stroke="#0E2050" stroke-miterlimit="10"/>
<path d="M119.246 31.3138L115.586 33.4187" stroke="#0E2050" stroke-miterlimit="10" stroke-linecap="square"/>
<path d="M110.648 42.3847L118.395 38.9476" stroke="#0E2050" stroke-miterlimit="10"/>
<path d="M115.585 33.4207L108.238 37.6571" stroke="#0E2050" stroke-miterlimit="10"/>
<path d="M29.3359 15.1423L34.3181 21.9899" stroke="#0E2050" stroke-miterlimit="10"/>
<path d="M38.7967 19.0963L34.5625 11.7692" stroke="#0E2050" stroke-miterlimit="10"/>
<path d="M112.555 47.34L120.622 44.7289" stroke="#0E2050" stroke-miterlimit="10"/>
<path d="M118.395 38.9476L110.648 42.3847" stroke="#0E2050" stroke-miterlimit="10"/>
<path d="M90.0629 5.10845L88.3398 8.95852" stroke="#0E2050" stroke-miterlimit="10" stroke-linecap="square"/>
<path d="M89.625 19.0973L93.8725 11.7834" stroke="#0E2050" stroke-miterlimit="10"/>
<path d="M88.3462 8.95995L84.8867 16.6867" stroke="#0E2050" stroke-miterlimit="10"/>
<path d="M51.8777 5.14971L50.9961 1.00655" stroke="#0E2050" stroke-miterlimit="10" stroke-linecap="square"/>
<path d="M45.8828 6.74717L48.5008 14.7804" stroke="#0E2050" stroke-miterlimit="10"/>
<path d="M53.6381 13.4109L51.875 5.1512" stroke="#0E2050" stroke-miterlimit="10"/>
<path d="M40.0859 8.95995L43.532 16.6867" stroke="#0E2050" stroke-miterlimit="10"/>
<path d="M48.5008 14.7804L45.8828 6.74717" stroke="#0E2050" stroke-miterlimit="10"/>
<path d="M34.5625 11.7692L38.7967 19.0963" stroke="#0E2050" stroke-miterlimit="10"/>
<path d="M43.532 16.6867L40.0859 8.95995" stroke="#0E2050" stroke-miterlimit="10"/>
<path d="M58.0156 4.17814L58.9105 12.5844" stroke="#0E2050" stroke-miterlimit="10"/>
<path d="M64.2031 12.3038V3.84429" stroke="#0E2050" stroke-miterlimit="10"/>
<path d="M76.5366 5.13695L74.7734 13.4099" stroke="#0E2050" stroke-miterlimit="10"/>
<path d="M79.9023 14.7928L82.5337 6.73292" stroke="#0E2050" stroke-miterlimit="10"/>
<path d="M70.4066 4.16389L69.5117 12.5834" stroke="#0E2050" stroke-miterlimit="10"/>
<path d="M74.7734 13.4099L76.5366 5.13695" stroke="#0E2050" stroke-miterlimit="10"/>
<path d="M64.2031 3.84429V12.3038" stroke="#0E2050" stroke-miterlimit="10"/>
<path d="M69.5117 12.5834L70.4066 4.16389" stroke="#0E2050" stroke-miterlimit="10"/>
<path d="M120.622 44.7289L112.555 47.34" stroke="#0E2050" stroke-miterlimit="10"/>
<path d="M113.941 52.4703L122.236 50.7118" stroke="#0E2050" stroke-miterlimit="10"/>
<path d="M51.875 120.88L53.6381 112.607" stroke="#0E2050" stroke-miterlimit="10"/>
<path d="M48.5008 111.22L45.8828 119.28" stroke="#0E2050" stroke-miterlimit="10"/>
<path d="M84.8867 109.329L88.3328 117.056" stroke="#0E2050" stroke-miterlimit="10"/>
<path d="M93.8748 114.244L89.6406 106.917" stroke="#0E2050" stroke-miterlimit="10"/>
<path d="M94.1055 104.028L99.0876 110.876" stroke="#0E2050" stroke-miterlimit="10"/>
<path d="M103.899 106.972L98.2227 100.684" stroke="#0E2050" stroke-miterlimit="10"/>
<path d="M89.6406 106.917L93.8748 114.244" stroke="#0E2050" stroke-miterlimit="10"/>
<path d="M99.0876 110.876L94.1055 104.028" stroke="#0E2050" stroke-miterlimit="10"/>
<path d="M76.5469 120.863L77.4284 125.007" stroke="#0E2050" stroke-miterlimit="10"/>
<path d="M74.7734 112.607L76.5366 120.866" stroke="#0E2050" stroke-miterlimit="10"/>
<path d="M82.5555 119.266L79.9375 111.233" stroke="#0E2050" stroke-miterlimit="10"/>
<path d="M58.0156 121.851L58.9105 113.431" stroke="#0E2050" stroke-miterlimit="10"/>
<path d="M53.6381 112.607L51.875 120.88" stroke="#0E2050" stroke-miterlimit="10"/>
<path d="M64.2031 122.172V113.712" stroke="#0E2050" stroke-miterlimit="10"/>
<path d="M58.9105 113.431L58.0156 121.851" stroke="#0E2050" stroke-miterlimit="10"/>
<path d="M77.4284 125.007L76.5469 120.863" stroke="#0E2050" stroke-miterlimit="10" stroke-linecap="square"/>
<path d="M76.5366 120.866L74.7734 112.607" stroke="#0E2050" stroke-miterlimit="10"/>
<path d="M69.5117 113.431L70.4066 121.837" stroke="#0E2050" stroke-miterlimit="10"/>
<path d="M79.9375 111.233L82.5555 119.266" stroke="#0E2050" stroke-miterlimit="10"/>
<path d="M88.3328 117.056L84.8867 109.329" stroke="#0E2050" stroke-miterlimit="10"/>
<path d="M111.441 105.411L108.289 102.587" stroke="#0E2050" stroke-miterlimit="10"/>
<path d="M98.2227 100.684L103.899 106.972" stroke="#0E2050" stroke-miterlimit="10"/>
<path d="M108.289 102.588L101.984 96.9258" stroke="#0E2050" stroke-miterlimit="10"/>
<path d="M123.207 69.1897L127.428 69.6293" stroke="#0E2050" stroke-miterlimit="10"/>
<path d="M123.544 63.0073H115.062" stroke="#0E2050" stroke-miterlimit="10"/>
<path d="M114.785 68.3082L123.213 69.1875" stroke="#0E2050" stroke-miterlimit="10"/>
<path d="M127.428 69.6293L123.207 69.1897" stroke="#0E2050" stroke-miterlimit="10" stroke-linecap="square"/>
<path d="M123.213 69.1875L114.785 68.3082" stroke="#0E2050" stroke-miterlimit="10"/>
<path d="M113.941 73.546L122.249 75.3045" stroke="#0E2050" stroke-miterlimit="10"/>
<path d="M123.213 56.8249L114.785 57.7042" stroke="#0E2050" stroke-miterlimit="10"/>
<path d="M115.062 63.0073H123.544" stroke="#0E2050" stroke-miterlimit="10"/>
<path d="M122.249 75.3045L113.941 73.546" stroke="#0E2050" stroke-miterlimit="10"/>
<path d="M112.555 78.6739L120.622 81.285" stroke="#0E2050" stroke-miterlimit="10"/>
<path d="M115.569 92.5807L108.223 88.3576" stroke="#0E2050" stroke-miterlimit="10"/>
<path d="M105.324 92.8097L112.19 97.7788" stroke="#0E2050" stroke-miterlimit="10"/>
<path d="M108.289 102.587L111.441 105.411" stroke="#0E2050" stroke-miterlimit="10" stroke-linecap="square"/>
<path d="M101.984 96.9258L108.289 102.588" stroke="#0E2050" stroke-miterlimit="10"/>
<path d="M112.19 97.7788L105.324 92.8097" stroke="#0E2050" stroke-miterlimit="10"/>
<path d="M118.396 87.0658L110.648 83.6287" stroke="#0E2050" stroke-miterlimit="10"/>
<path d="M108.223 88.3576L115.569 92.5807" stroke="#0E2050" stroke-miterlimit="10"/>
<path d="M120.622 81.285L112.555 78.6739" stroke="#0E2050" stroke-miterlimit="10"/>
<path d="M110.648 83.6287L118.396 87.0658" stroke="#0E2050" stroke-miterlimit="10"/>
<path d="M34.5625 114.231L38.81 106.917" stroke="#0E2050" stroke-miterlimit="10"/>
<path d="M34.3181 104.028L29.3359 110.863" stroke="#0E2050" stroke-miterlimit="10"/>
<path d="M6.17969 50.7118L14.4878 52.4703" stroke="#0E2050" stroke-miterlimit="10"/>
<path d="M15.8762 47.34L7.80859 44.7289" stroke="#0E2050" stroke-miterlimit="10"/>
<path d="M7.80859 44.7289L15.8762 47.34" stroke="#0E2050" stroke-miterlimit="10"/>
<path d="M17.7705 42.3847L10.0234 38.9476" stroke="#0E2050" stroke-miterlimit="10"/>
<path d="M1 56.3852L5.20746 56.8249" stroke="#0E2050" stroke-miterlimit="10"/>
<path d="M5.21875 56.8249L13.6604 57.7042" stroke="#0E2050" stroke-miterlimit="10"/>
<path d="M14.4878 52.4703L6.17969 50.7118" stroke="#0E2050" stroke-miterlimit="10"/>
<path d="M12.8398 33.4309L20.1862 37.654" stroke="#0E2050" stroke-miterlimit="10"/>
<path d="M23.0787 33.2049L16.2266 28.2358" stroke="#0E2050" stroke-miterlimit="10"/>
<path d="M20.1444 23.4294L16.9922 20.5918" stroke="#0E2050" stroke-miterlimit="10" stroke-linecap="square"/>
<path d="M26.4279 29.0894L20.1367 23.4275" stroke="#0E2050" stroke-miterlimit="10"/>
<path d="M16.2266 28.2358L23.0787 33.2049" stroke="#0E2050" stroke-miterlimit="10"/>
<path d="M10.0234 38.9476L17.7705 42.3847" stroke="#0E2050" stroke-miterlimit="10"/>
<path d="M20.1862 37.654L12.8398 33.4309" stroke="#0E2050" stroke-miterlimit="10"/>
<path d="M5.21875 69.1875L13.647 68.3082" stroke="#0E2050" stroke-miterlimit="10"/>
<path d="M13.3567 63.0073H4.875" stroke="#0E2050" stroke-miterlimit="10"/>
<path d="M5.20746 56.8249L1 56.3852" stroke="#0E2050" stroke-miterlimit="10" stroke-linecap="square"/>
<path d="M4.875 63.0073H13.3567" stroke="#0E2050" stroke-miterlimit="10"/>
<path d="M13.6604 57.7042L5.21875 56.8249" stroke="#0E2050" stroke-miterlimit="10"/>
<path d="M6.19531 75.3045L14.49 73.546" stroke="#0E2050" stroke-miterlimit="10"/>
<path d="M13.647 68.3082L5.21875 69.1875" stroke="#0E2050" stroke-miterlimit="10"/>
<path d="M24.5156 106.972L30.1924 100.684" stroke="#0E2050" stroke-miterlimit="10"/>
<path d="M26.4412 96.9258L20.1367 102.601" stroke="#0E2050" stroke-miterlimit="10"/>
<path d="M24.5156 19.0447L30.1924 25.3327" stroke="#0E2050" stroke-miterlimit="10"/>
<path d="M34.3181 21.9899L29.3359 15.1423" stroke="#0E2050" stroke-miterlimit="10"/>
<path d="M38.3594 120.905L40.0824 117.055" stroke="#0E2050" stroke-miterlimit="10" stroke-linecap="square"/>
<path d="M38.81 106.917L34.5625 114.231" stroke="#0E2050" stroke-miterlimit="10"/>
<path d="M40.0859 117.055L43.5454 109.315" stroke="#0E2050" stroke-miterlimit="10"/>
<path d="M20.1367 102.601L26.4412 96.9258" stroke="#0E2050" stroke-miterlimit="10"/>
<path d="M23.0764 92.8097L16.2109 97.7921" stroke="#0E2050" stroke-miterlimit="10"/>
<path d="M12.8333 92.5939L9.16016 94.6988" stroke="#0E2050" stroke-miterlimit="10"/>
<path d="M20.1862 88.3576L12.8398 92.594" stroke="#0E2050" stroke-miterlimit="10"/>
<path d="M16.2109 97.7921L23.0764 92.8097" stroke="#0E2050" stroke-miterlimit="10"/>
<path d="M7.80859 81.285L15.8762 78.6739" stroke="#0E2050" stroke-miterlimit="10"/>
<path d="M14.49 73.546L6.19531 75.3045" stroke="#0E2050" stroke-miterlimit="10"/>
<path d="M10.0039 87.0658L17.751 83.6287" stroke="#0E2050" stroke-miterlimit="10"/>
<path d="M15.8762 78.6739L7.80859 81.285" stroke="#0E2050" stroke-miterlimit="10"/>
<path d="M9.16016 94.6988L12.8333 92.5939" stroke="#0E2050" stroke-miterlimit="10" stroke-linecap="square"/>
<path d="M17.751 83.6287L10.0039 87.0658" stroke="#0E2050" stroke-miterlimit="10"/>
<path d="M12.8398 92.594L20.1862 88.3576" stroke="#0E2050" stroke-miterlimit="10"/>
</svg>
