<svg width="639" height="220" viewBox="0 0 639 220" fill="none" xmlns="http://www.w3.org/2000/svg">
<path d="M65.0826 32.5112C20.1092 32.5112 0 64.1925 0 95.5774C0 112.208 5.34925 127.489 15.0902 138.489C26.6142 151.53 44.0818 158.413 65.5119 158.413C105.598 158.413 121.349 137.138 127.524 119.256L128.019 117.873H93.612L93.3148 118.4C87.8335 127.819 79.6775 131.836 66.0072 131.836C48.4074 131.836 36.19 121.001 34.539 104.173H128.91L129.009 103.185C129.241 99.9574 129.241 97.8168 129.241 95.3468C129.241 66.366 112.433 32.5112 65.0826 32.5112ZM65.0826 57.7047C87.5032 57.7047 92.8855 72.261 93.9752 81.7127H35.0343C38.0391 60.8333 55.0775 57.7047 65.0826 57.7047Z" fill="#00A099"/>
<path d="M347.578 61.5509V114.77C347.578 125.309 349.526 129.985 360.984 129.985C362.833 129.985 367.555 129.886 371.32 129.096L372.607 128.832V153.269L371.914 153.532C365.31 155.804 356.593 156.101 349.79 156.101C323.605 156.101 312.94 145.661 312.94 120.039V61.5838H286.953V35.6987H312.94V-0.000427246H347.611V35.6987H376.074V61.5838H347.611L347.578 61.5509Z" fill="#00A099"/>
<path d="M496.324 52.5554C484.173 39.4152 466.804 32.4664 446.166 32.4664C399.74 32.4664 378.574 65.0369 378.574 95.3021C378.574 112.262 384.551 127.873 395.414 139.234C407.401 151.749 424.472 158.368 444.78 158.368C486.121 158.368 512.834 133.636 512.834 95.3021C512.834 79.4285 506.824 63.8513 496.324 52.5554ZM445.704 131.363C423.878 131.363 413.939 112.691 413.939 95.335C413.939 77.9795 422.194 59.3066 445.473 59.3066C467.431 59.3066 477.238 77.6502 477.238 95.7961C477.238 112.987 468.95 131.363 445.704 131.363Z" fill="#00A099"/>
<path d="M638.824 118.878C638.824 144.006 617.427 158.365 580.18 158.365C545.608 158.365 522.659 143.413 518.796 118.351L518.598 117.133H552.939L553.17 117.857C556.505 128.33 566.279 133.599 582.26 133.599C597.252 133.599 604.846 129.549 604.846 121.579C604.846 114.926 600.058 110.711 574.765 107.517C539.202 102.675 523.386 91.149 523.386 70.072C523.386 51.8602 537.584 32.397 577.439 32.397C627.333 32.397 634.069 60.6203 634.927 69.2816L635.06 70.4343H600.983L600.785 69.6768C599.266 64.0124 595.039 56.4708 576.119 56.4708C563.901 56.4708 557.429 60.1593 557.429 67.1081C557.429 71.554 559.443 75.5059 584.308 79.1285C632.286 86.1761 638.89 102.379 638.89 118.812L638.824 118.878Z" fill="#00A099"/>
<path d="M246.97 33.7717V40.8851C236.305 34.1668 223.361 30.5772 208.7 30.5772C162.274 30.5772 141.108 63.1476 141.108 93.4128C141.108 110.373 147.084 125.983 157.948 137.345C169.934 149.859 187.006 156.479 207.313 156.479C218.177 156.479 231.88 154.009 241.192 150.65V157.401C241.192 174.592 230.79 192.968 207.577 192.968C185.751 192.968 175.812 174.296 175.812 156.94V156.446H140.447C140.315 173.604 146.325 189.412 157.288 200.872C169.274 213.387 186.345 220.006 206.653 220.006C247.994 220.006 274.707 195.274 274.707 156.94L275.335 95.784V33.7717H246.937H246.97ZM208.271 129.474C186.444 129.474 176.505 110.801 176.505 93.4457C176.505 76.0902 184.76 57.4174 208.04 57.4174C229.998 57.4174 239.805 75.7609 239.805 93.9068C239.805 111.131 231.517 129.474 208.271 129.474Z" fill="#00A099"/>
</svg>
