<svg width="150" height="44" viewBox="0 0 150 44" fill="none" xmlns="http://www.w3.org/2000/svg">
<g clip-path="url(#clip0_983_69062)">
<path d="M19.25 7.2168L19.8818 10.1716" stroke="#00A099" stroke-miterlimit="10"/>
<path d="M21.1386 9.97567L20.8203 6.96484" stroke="#00A099" stroke-miterlimit="10"/>
<path d="M28.5715 8.19238L27.3359 10.9511" stroke="#00A099" stroke-miterlimit="10"/>
<path d="M28.4688 11.5259L29.9851 8.90723" stroke="#00A099" stroke-miterlimit="10"/>
<path d="M17.7266 7.62793L18.6626 10.4987" stroke="#00A099" stroke-miterlimit="10"/>
<path d="M19.8818 10.1716L19.25 7.2168" stroke="#00A099" stroke-miterlimit="10"/>
<path d="M16.2422 8.19238L17.4778 10.9511" stroke="#00A099" stroke-miterlimit="10"/>
<path d="M18.6626 10.4987L17.7266 7.62793" stroke="#00A099" stroke-miterlimit="10"/>
<path d="M25.5615 7.21191L24.9297 10.1714" stroke="#00A099" stroke-miterlimit="10"/>
<path d="M26.1562 10.4985L27.0923 7.62305" stroke="#00A099" stroke-miterlimit="10"/>
<path d="M22.4062 6.88086V9.90568" stroke="#00A099" stroke-miterlimit="10"/>
<path d="M23.6719 9.971L23.9901 6.96484" stroke="#00A099" stroke-miterlimit="10"/>
<path d="M20.8203 6.96484L21.1386 9.97567" stroke="#00A099" stroke-miterlimit="10"/>
<path d="M22.4062 9.90568V6.88086" stroke="#00A099" stroke-miterlimit="10"/>
<path d="M13.3918 13.9107L11.1406 11.8848" stroke="#00A099" stroke-miterlimit="10"/>
<path d="M10.1406 13.1123L12.593 14.8908" stroke="#00A099" stroke-miterlimit="10"/>
<path d="M11.1406 11.8848L13.3918 13.9107" stroke="#00A099" stroke-miterlimit="10"/>
<path d="M14.2921 13.0148L12.2656 10.7695" stroke="#00A099" stroke-miterlimit="10"/>
<path d="M12.593 14.8908L10.1406 13.1123" stroke="#00A099" stroke-miterlimit="10"/>
<path d="M9.28125 14.4434L11.9068 15.9558" stroke="#00A099" stroke-miterlimit="10"/>
<path d="M13.5 9.77539L15.2832 12.2167" stroke="#00A099" stroke-miterlimit="10"/>
<path d="M16.3445 11.5298L14.8281 8.91113" stroke="#00A099" stroke-miterlimit="10"/>
<path d="M12.2656 10.7695L14.2921 13.0148" stroke="#00A099" stroke-miterlimit="10"/>
<path d="M15.2832 12.2167L13.5 9.77539" stroke="#00A099" stroke-miterlimit="10"/>
<path d="M14.8281 8.91113L16.3445 11.5298" stroke="#00A099" stroke-miterlimit="10"/>
<path d="M17.4778 10.9511L16.2422 8.19238" stroke="#00A099" stroke-miterlimit="10"/>
<path d="M11.9068 15.9558L9.28125 14.4434" stroke="#00A099" stroke-miterlimit="10"/>
<path d="M8.5625 15.8525L11.3332 17.0802" stroke="#00A099" stroke-miterlimit="10"/>
<path d="M34.5312 22H37.564" stroke="#00A099" stroke-miterlimit="10"/>
<path d="M37.4828 20.418L34.4688 20.7354" stroke="#00A099" stroke-miterlimit="10"/>
<path d="M34.4688 23.2656L37.4828 23.583" stroke="#00A099" stroke-miterlimit="10"/>
<path d="M37.564 22H34.5312" stroke="#00A099" stroke-miterlimit="10"/>
<path d="M37.2329 18.8584L34.2656 19.4839" stroke="#00A099" stroke-miterlimit="10"/>
<path d="M34.4688 20.7354L37.4828 20.418" stroke="#00A099" stroke-miterlimit="10"/>
<path d="M29.9851 8.90723L28.4688 11.5259" stroke="#00A099" stroke-miterlimit="10"/>
<path d="M29.5312 12.2165L31.3144 9.77051" stroke="#00A099" stroke-miterlimit="10"/>
<path d="M33.4844 26.9199L36.255 28.1476" stroke="#00A099" stroke-miterlimit="10"/>
<path d="M36.8205 26.6728L33.9375 25.7393" stroke="#00A099" stroke-miterlimit="10"/>
<path d="M36.8205 17.3281L33.9375 18.2664" stroke="#00A099" stroke-miterlimit="10"/>
<path d="M34.2656 19.4839L37.2329 18.8584" stroke="#00A099" stroke-miterlimit="10"/>
<path d="M33.9375 25.7393L36.8205 26.6728" stroke="#00A099" stroke-miterlimit="10"/>
<path d="M37.2282 25.1421L34.2656 24.5166" stroke="#00A099" stroke-miterlimit="10"/>
<path d="M34.2656 24.5166L37.2282 25.1421" stroke="#00A099" stroke-miterlimit="10"/>
<path d="M37.4828 23.583L34.4688 23.2656" stroke="#00A099" stroke-miterlimit="10"/>
<path d="M33.6699 11.8848L31.4141 13.9107" stroke="#00A099" stroke-miterlimit="10"/>
<path d="M32.2188 14.891L34.6712 13.1172" stroke="#00A099" stroke-miterlimit="10"/>
<path d="M32.5421 10.7695L30.5156 13.0148" stroke="#00A099" stroke-miterlimit="10"/>
<path d="M31.4141 13.9107L33.6699 11.8848" stroke="#00A099" stroke-miterlimit="10"/>
<path d="M31.3144 9.77051L29.5312 12.2165" stroke="#00A099" stroke-miterlimit="10"/>
<path d="M30.5156 13.0148L32.5421 10.7695" stroke="#00A099" stroke-miterlimit="10"/>
<path d="M35.5318 14.4434L32.9062 15.9558" stroke="#00A099" stroke-miterlimit="10"/>
<path d="M33.4844 17.0802L36.255 15.8525" stroke="#00A099" stroke-miterlimit="10"/>
<path d="M34.6712 13.1172L32.2188 14.891" stroke="#00A099" stroke-miterlimit="10"/>
<path d="M32.9062 15.9558L35.5318 14.4434" stroke="#00A099" stroke-miterlimit="10"/>
<path d="M23.9901 6.96484L23.6719 9.971" stroke="#00A099" stroke-miterlimit="10"/>
<path d="M24.9297 10.1714L25.5615 7.21191" stroke="#00A099" stroke-miterlimit="10"/>
<path d="M23.6719 34.0254L23.9901 37.0315" stroke="#00A099" stroke-miterlimit="10"/>
<path d="M25.5615 36.7839L24.9297 33.8291" stroke="#00A099" stroke-miterlimit="10"/>
<path d="M26.1562 33.4971L27.0923 36.3725" stroke="#00A099" stroke-miterlimit="10"/>
<path d="M28.5668 35.8083L27.3359 33.0449" stroke="#00A099" stroke-miterlimit="10"/>
<path d="M17.7266 36.3774L18.6626 33.502" stroke="#00A099" stroke-miterlimit="10"/>
<path d="M17.4778 33.0498L16.2422 35.8086" stroke="#00A099" stroke-miterlimit="10"/>
<path d="M24.9297 33.8291L25.5615 36.7839" stroke="#00A099" stroke-miterlimit="10"/>
<path d="M27.0923 36.3725L26.1562 33.4971" stroke="#00A099" stroke-miterlimit="10"/>
<path d="M19.25 36.7886L19.8818 33.8291" stroke="#00A099" stroke-miterlimit="10"/>
<path d="M18.6626 33.502L17.7266 36.3774" stroke="#00A099" stroke-miterlimit="10"/>
<path d="M21.1386 34.0293L20.8203 37.0354" stroke="#00A099" stroke-miterlimit="10"/>
<path d="M22.4062 37.1149V34.0947" stroke="#00A099" stroke-miterlimit="10"/>
<path d="M19.8818 33.8291L19.25 36.7886" stroke="#00A099" stroke-miterlimit="10"/>
<path d="M20.8203 37.0354L21.1386 34.0293" stroke="#00A099" stroke-miterlimit="10"/>
<path d="M22.4062 34.0947V37.1149" stroke="#00A099" stroke-miterlimit="10"/>
<path d="M23.9901 37.0315L23.6719 34.0254" stroke="#00A099" stroke-miterlimit="10"/>
<path d="M31.4219 30.0898L33.673 32.1157" stroke="#00A099" stroke-miterlimit="10"/>
<path d="M34.6712 30.8879L32.2188 29.1094" stroke="#00A099" stroke-miterlimit="10"/>
<path d="M32.2188 29.1094L34.6712 30.8879" stroke="#00A099" stroke-miterlimit="10"/>
<path d="M35.5318 29.5573L32.9062 28.0449" stroke="#00A099" stroke-miterlimit="10"/>
<path d="M27.3359 33.0449L28.5668 35.8083" stroke="#00A099" stroke-miterlimit="10"/>
<path d="M29.9804 35.0894L28.4688 32.4707" stroke="#00A099" stroke-miterlimit="10"/>
<path d="M32.9062 28.0449L35.5318 29.5573" stroke="#00A099" stroke-miterlimit="10"/>
<path d="M36.255 28.1476L33.4844 26.9199" stroke="#00A099" stroke-miterlimit="10"/>
<path d="M28.4688 32.4707L29.9804 35.0894" stroke="#00A099" stroke-miterlimit="10"/>
<path d="M31.3144 34.2255L29.5312 31.7842" stroke="#00A099" stroke-miterlimit="10"/>
<path d="M32.5421 33.2316L30.5156 30.9863" stroke="#00A099" stroke-miterlimit="10"/>
<path d="M29.5312 31.7842L31.3144 34.2255" stroke="#00A099" stroke-miterlimit="10"/>
<path d="M30.5156 30.9863L32.5421 33.2316" stroke="#00A099" stroke-miterlimit="10"/>
<path d="M33.673 32.1157L31.4219 30.0898" stroke="#00A099" stroke-miterlimit="10"/>
<path d="M11.9068 28.0449L9.28125 29.5573" stroke="#00A099" stroke-miterlimit="10"/>
<path d="M10.1484 30.883L12.6009 29.1045" stroke="#00A099" stroke-miterlimit="10"/>
<path d="M7.57812 25.1421L10.5454 24.5166" stroke="#00A099" stroke-miterlimit="10"/>
<path d="M10.35 23.2656L7.33594 23.5784" stroke="#00A099" stroke-miterlimit="10"/>
<path d="M7.99219 26.6726L10.8752 25.7344" stroke="#00A099" stroke-miterlimit="10"/>
<path d="M10.5454 24.5166L7.57812 25.1421" stroke="#00A099" stroke-miterlimit="10"/>
<path d="M7.33594 23.5784L10.35 23.2656" stroke="#00A099" stroke-miterlimit="10"/>
<path d="M10.2828 22H7.25" stroke="#00A099" stroke-miterlimit="10"/>
<path d="M10.5407 19.4839L7.57812 18.8584" stroke="#00A099" stroke-miterlimit="10"/>
<path d="M7.33594 20.418L10.35 20.7354" stroke="#00A099" stroke-miterlimit="10"/>
<path d="M10.35 20.7354L7.33594 20.418" stroke="#00A099" stroke-miterlimit="10"/>
<path d="M7.25 22H10.2828" stroke="#00A099" stroke-miterlimit="10"/>
<path d="M16.3445 32.4756L14.8281 35.0943" stroke="#00A099" stroke-miterlimit="10"/>
<path d="M16.2422 35.8086L17.4778 33.0498" stroke="#00A099" stroke-miterlimit="10"/>
<path d="M10.8752 25.7344L7.99219 26.6726" stroke="#00A099" stroke-miterlimit="10"/>
<path d="M8.5625 28.1476L11.3332 26.9199" stroke="#00A099" stroke-miterlimit="10"/>
<path d="M10.8752 18.2617L7.99219 17.3281" stroke="#00A099" stroke-miterlimit="10"/>
<path d="M7.57812 18.8584L10.5407 19.4839" stroke="#00A099" stroke-miterlimit="10"/>
<path d="M15.2832 31.7842L13.5 34.2302" stroke="#00A099" stroke-miterlimit="10"/>
<path d="M14.8281 35.0943L16.3445 32.4756" stroke="#00A099" stroke-miterlimit="10"/>
<path d="M11.3332 26.9199L8.5625 28.1476" stroke="#00A099" stroke-miterlimit="10"/>
<path d="M9.28125 29.5573L11.9068 28.0449" stroke="#00A099" stroke-miterlimit="10"/>
<path d="M11.3332 17.0802L8.5625 15.8525" stroke="#00A099" stroke-miterlimit="10"/>
<path d="M7.99219 17.3281L10.8752 18.2617" stroke="#00A099" stroke-miterlimit="10"/>
<path d="M14.2921 30.9863L12.2656 33.2316" stroke="#00A099" stroke-miterlimit="10"/>
<path d="M13.5 34.2302L15.2832 31.7842" stroke="#00A099" stroke-miterlimit="10"/>
<path d="M12.6009 29.1045L10.1484 30.883" stroke="#00A099" stroke-miterlimit="10"/>
<path d="M11.1406 32.1157L13.3918 30.0898" stroke="#00A099" stroke-miterlimit="10"/>
<path d="M13.3918 30.0898L11.1406 32.1157" stroke="#00A099" stroke-miterlimit="10"/>
<path d="M12.2656 33.2316L14.2921 30.9863" stroke="#00A099" stroke-miterlimit="10"/>
<path d="M25.6875 11.9358L26.1555 10.498" stroke="#00A099" stroke-miterlimit="10" stroke-linecap="square"/>
<path d="M14.2969 13.0146L15.3125 14.1396" stroke="#00A099" stroke-miterlimit="10"/>
<path d="M15.3125 14.1396L14.2969 13.0146" stroke="#00A099" stroke-miterlimit="10" stroke-linecap="square"/>
<path d="M34.2649 19.4844L32.7812 19.8018" stroke="#00A099" stroke-miterlimit="10"/>
<path d="M32.7812 19.8018L34.2649 19.4844" stroke="#00A099" stroke-miterlimit="10" stroke-linecap="square"/>
<path d="M19.1321 32.0645L18.6641 33.5022" stroke="#00A099" stroke-miterlimit="10"/>
<path d="M29.5 29.8613L30.5156 30.9863" stroke="#00A099" stroke-miterlimit="10"/>
<path d="M30.5156 30.9863L29.5 29.8613" stroke="#00A099" stroke-miterlimit="10" stroke-linecap="square"/>
<path d="M12.0258 24.1992L10.5469 24.5166" stroke="#00A099" stroke-miterlimit="10"/>
<path d="M10.5469 24.5166L12.0258 24.1992" stroke="#00A099" stroke-miterlimit="10" stroke-linecap="square"/>
<path d="M18.6641 33.5022L19.1321 32.0645" stroke="#00A099" stroke-miterlimit="10" stroke-linecap="square"/>
<path d="M10.1875 38.7677L11.9332 36.373" stroke="#0E2050" stroke-miterlimit="10"/>
<path d="M10.4891 35.2012L8.5 37.4044" stroke="#0E2050" stroke-miterlimit="10"/>
<path d="M37.8575 8.12695L35.6484 10.1155" stroke="#0E2050" stroke-miterlimit="10"/>
<path d="M36.8203 11.5573L39.2259 9.81152" stroke="#0E2050" stroke-miterlimit="10"/>
<path d="M34.6207 5.23242L32.875 7.62707" stroke="#0E2050" stroke-miterlimit="10"/>
<path d="M34.3281 8.79897L36.3172 6.5957" stroke="#0E2050" stroke-miterlimit="10"/>
<path d="M40.4062 11.6321L41.6886 10.8945" stroke="#0E2050" stroke-miterlimit="10"/>
<path d="M37.8359 13.1172L40.41 11.6328" stroke="#0E2050" stroke-miterlimit="10"/>
<path d="M39.2259 9.81152L36.8203 11.5573" stroke="#0E2050" stroke-miterlimit="10"/>
<path d="M32.8008 4.05176L31.3125 6.61446" stroke="#0E2050" stroke-miterlimit="10"/>
<path d="M32.875 7.62707L34.6207 5.23242" stroke="#0E2050" stroke-miterlimit="10"/>
<path d="M36.3172 6.5957L34.3281 8.79897" stroke="#0E2050" stroke-miterlimit="10"/>
<path d="M35.6484 10.1155L37.8575 8.12695" stroke="#0E2050" stroke-miterlimit="10"/>
<path d="M42.7345 17.6914L39.8281 18.3076" stroke="#0E2050" stroke-miterlimit="10"/>
<path d="M40.125 20.1421L43.0782 19.834" stroke="#0E2050" stroke-miterlimit="10"/>
<path d="M41.6886 10.8945L40.4062 11.6321" stroke="#0E2050" stroke-miterlimit="10" stroke-linecap="square"/>
<path d="M38.6797 14.7737L41.3942 13.5693" stroke="#0E2050" stroke-miterlimit="10"/>
<path d="M40.41 11.6328L37.8359 13.1172" stroke="#0E2050" stroke-miterlimit="10"/>
<path d="M10.1875 5.22852L11.9332 7.62784" stroke="#0E2050" stroke-miterlimit="10"/>
<path d="M13.4992 6.61424L12.0156 4.04688" stroke="#0E2050" stroke-miterlimit="10"/>
<path d="M39.3438 16.5106L42.1706 15.5957" stroke="#0E2050" stroke-miterlimit="10"/>
<path d="M41.3942 13.5693L38.6797 14.7737" stroke="#0E2050" stroke-miterlimit="10"/>
<path d="M31.4631 1.71289L30.8594 3.06193" stroke="#0E2050" stroke-miterlimit="10" stroke-linecap="square"/>
<path d="M31.3125 6.61446L32.8008 4.05176" stroke="#0E2050" stroke-miterlimit="10"/>
<path d="M30.8606 3.0625L29.6484 5.7699" stroke="#0E2050" stroke-miterlimit="10"/>
<path d="M18.0823 1.72712L17.7734 0.275391" stroke="#0E2050" stroke-miterlimit="10" stroke-linecap="square"/>
<path d="M15.9844 2.28711L16.9017 5.10188" stroke="#0E2050" stroke-miterlimit="10"/>
<path d="M18.7037 4.62166L18.0859 1.72754" stroke="#0E2050" stroke-miterlimit="10"/>
<path d="M13.9531 3.0625L15.1606 5.7699" stroke="#0E2050" stroke-miterlimit="10"/>
<path d="M16.9017 5.10188L15.9844 2.28711" stroke="#0E2050" stroke-miterlimit="10"/>
<path d="M12.0156 4.04688L13.4992 6.61424" stroke="#0E2050" stroke-miterlimit="10"/>
<path d="M15.1606 5.7699L13.9531 3.0625" stroke="#0E2050" stroke-miterlimit="10"/>
<path d="M20.2344 1.38672L20.5479 4.33219" stroke="#0E2050" stroke-miterlimit="10"/>
<path d="M22.4062 4.23367V1.26953" stroke="#0E2050" stroke-miterlimit="10"/>
<path d="M26.7272 1.72266L26.1094 4.62145" stroke="#0E2050" stroke-miterlimit="10"/>
<path d="M27.9062 5.10633L28.8282 2.28223" stroke="#0E2050" stroke-miterlimit="10"/>
<path d="M24.5792 1.38184L24.2656 4.33197" stroke="#0E2050" stroke-miterlimit="10"/>
<path d="M26.1094 4.62145L26.7272 1.72266" stroke="#0E2050" stroke-miterlimit="10"/>
<path d="M22.4062 1.26953V4.23367" stroke="#0E2050" stroke-miterlimit="10"/>
<path d="M24.2656 4.33197L24.5792 1.38184" stroke="#0E2050" stroke-miterlimit="10"/>
<path d="M42.1706 15.5957L39.3438 16.5106" stroke="#0E2050" stroke-miterlimit="10"/>
<path d="M39.8281 18.3076L42.7345 17.6914" stroke="#0E2050" stroke-miterlimit="10"/>
<path d="M18.0859 42.2777L18.7037 39.3789" stroke="#0E2050" stroke-miterlimit="10"/>
<path d="M16.9017 38.8936L15.9844 41.7177" stroke="#0E2050" stroke-miterlimit="10"/>
<path d="M29.6562 38.2305L30.8637 40.9379" stroke="#0E2050" stroke-miterlimit="10"/>
<path d="M32.7961 39.9531L31.3125 37.3857" stroke="#0E2050" stroke-miterlimit="10"/>
<path d="M32.875 36.373L34.6207 38.7724" stroke="#0E2050" stroke-miterlimit="10"/>
<path d="M36.3172 37.4044L34.3281 35.2012" stroke="#0E2050" stroke-miterlimit="10"/>
<path d="M31.3125 37.3857L32.7961 39.9531" stroke="#0E2050" stroke-miterlimit="10"/>
<path d="M34.6207 38.7724L32.875 36.373" stroke="#0E2050" stroke-miterlimit="10"/>
<path d="M26.7266 42.2725L27.0355 43.7242" stroke="#0E2050" stroke-miterlimit="10"/>
<path d="M26.1094 39.3789L26.7272 42.273" stroke="#0E2050" stroke-miterlimit="10"/>
<path d="M28.8314 41.7122L27.9141 38.8975" stroke="#0E2050" stroke-miterlimit="10"/>
<path d="M20.2344 42.6181L20.5479 39.668" stroke="#0E2050" stroke-miterlimit="10"/>
<path d="M18.7037 39.3789L18.0859 42.2777" stroke="#0E2050" stroke-miterlimit="10"/>
<path d="M22.4062 42.7307V39.7666" stroke="#0E2050" stroke-miterlimit="10"/>
<path d="M20.5479 39.668L20.2344 42.6181" stroke="#0E2050" stroke-miterlimit="10"/>
<path d="M27.0355 43.7242L26.7266 42.2725" stroke="#0E2050" stroke-miterlimit="10" stroke-linecap="square"/>
<path d="M26.7272 42.273L26.1094 39.3789" stroke="#0E2050" stroke-miterlimit="10"/>
<path d="M24.2656 39.668L24.5792 42.6134" stroke="#0E2050" stroke-miterlimit="10"/>
<path d="M27.9141 38.8975L28.8314 41.7122" stroke="#0E2050" stroke-miterlimit="10"/>
<path d="M30.8637 40.9379L29.6562 38.2305" stroke="#0E2050" stroke-miterlimit="10"/>
<path d="M38.9561 36.8578L37.8516 35.8682" stroke="#0E2050" stroke-miterlimit="10"/>
<path d="M34.3281 35.2012L36.3172 37.4044" stroke="#0E2050" stroke-miterlimit="10"/>
<path d="M37.8497 35.8686L35.6406 33.8848" stroke="#0E2050" stroke-miterlimit="10"/>
<path d="M43.0781 24.166L44.5571 24.3201" stroke="#0E2050" stroke-miterlimit="10"/>
<path d="M43.1907 22H40.2188" stroke="#0E2050" stroke-miterlimit="10"/>
<path d="M40.125 23.8574L43.0782 24.1655" stroke="#0E2050" stroke-miterlimit="10"/>
<path d="M44.5571 24.3201L43.0781 24.166" stroke="#0E2050" stroke-miterlimit="10" stroke-linecap="square"/>
<path d="M43.0782 24.1655L40.125 23.8574" stroke="#0E2050" stroke-miterlimit="10"/>
<path d="M39.8281 25.6924L42.7392 26.3086" stroke="#0E2050" stroke-miterlimit="10"/>
<path d="M43.0782 19.834L40.125 20.1421" stroke="#0E2050" stroke-miterlimit="10"/>
<path d="M40.2188 22H43.1907" stroke="#0E2050" stroke-miterlimit="10"/>
<path d="M42.7392 26.3086L39.8281 25.6924" stroke="#0E2050" stroke-miterlimit="10"/>
<path d="M39.3438 27.4893L42.1706 28.4042" stroke="#0E2050" stroke-miterlimit="10"/>
<path d="M40.4022 32.3625L37.8281 30.8828" stroke="#0E2050" stroke-miterlimit="10"/>
<path d="M36.8125 32.4424L39.2181 34.1835" stroke="#0E2050" stroke-miterlimit="10"/>
<path d="M37.8516 35.8682L38.9561 36.8578" stroke="#0E2050" stroke-miterlimit="10" stroke-linecap="square"/>
<path d="M35.6406 33.8848L37.8497 35.8686" stroke="#0E2050" stroke-miterlimit="10"/>
<path d="M39.2181 34.1835L36.8125 32.4424" stroke="#0E2050" stroke-miterlimit="10"/>
<path d="M41.3942 30.4299L38.6797 29.2256" stroke="#0E2050" stroke-miterlimit="10"/>
<path d="M37.8281 30.8828L40.4022 32.3625" stroke="#0E2050" stroke-miterlimit="10"/>
<path d="M42.1706 28.4042L39.3438 27.4893" stroke="#0E2050" stroke-miterlimit="10"/>
<path d="M38.6797 29.2256L41.3942 30.4299" stroke="#0E2050" stroke-miterlimit="10"/>
<path d="M12.0156 39.9484L13.5039 37.3857" stroke="#0E2050" stroke-miterlimit="10"/>
<path d="M11.9332 36.373L10.1875 38.7677" stroke="#0E2050" stroke-miterlimit="10"/>
<path d="M2.07812 17.6914L4.9892 18.3076" stroke="#0E2050" stroke-miterlimit="10"/>
<path d="M5.46746 16.5106L2.64062 15.5957" stroke="#0E2050" stroke-miterlimit="10"/>
<path d="M2.64062 15.5957L5.46746 16.5106" stroke="#0E2050" stroke-miterlimit="10"/>
<path d="M6.13638 14.7737L3.42188 13.5693" stroke="#0E2050" stroke-miterlimit="10"/>
<path d="M0.257812 19.6797L1.73207 19.8337" stroke="#0E2050" stroke-miterlimit="10"/>
<path d="M1.73438 19.834L4.69225 20.1421" stroke="#0E2050" stroke-miterlimit="10"/>
<path d="M4.9892 18.3076L2.07812 17.6914" stroke="#0E2050" stroke-miterlimit="10"/>
<path d="M4.40625 11.6367L6.98035 13.1165" stroke="#0E2050" stroke-miterlimit="10"/>
<path d="M7.99469 11.5575L5.59375 9.81641" stroke="#0E2050" stroke-miterlimit="10"/>
<path d="M6.9639 8.13197L5.85938 7.1377" stroke="#0E2050" stroke-miterlimit="10" stroke-linecap="square"/>
<path d="M9.17312 10.1157L6.96875 8.13184" stroke="#0E2050" stroke-miterlimit="10"/>
<path d="M5.59375 9.81641L7.99469 11.5575" stroke="#0E2050" stroke-miterlimit="10"/>
<path d="M3.42188 13.5693L6.13638 14.7737" stroke="#0E2050" stroke-miterlimit="10"/>
<path d="M6.98035 13.1165L4.40625 11.6367" stroke="#0E2050" stroke-miterlimit="10"/>
<path d="M1.73438 24.1655L4.68757 23.8574" stroke="#0E2050" stroke-miterlimit="10"/>
<path d="M4.58911 22H1.61719" stroke="#0E2050" stroke-miterlimit="10"/>
<path d="M1.73207 19.8337L0.257812 19.6797" stroke="#0E2050" stroke-miterlimit="10" stroke-linecap="square"/>
<path d="M1.61719 22H4.58911" stroke="#0E2050" stroke-miterlimit="10"/>
<path d="M4.69225 20.1421L1.73438 19.834" stroke="#0E2050" stroke-miterlimit="10"/>
<path d="M2.07812 26.3086L4.98452 25.6924" stroke="#0E2050" stroke-miterlimit="10"/>
<path d="M4.68757 23.8574L1.73438 24.1655" stroke="#0E2050" stroke-miterlimit="10"/>
<path d="M8.5 37.4044L10.4891 35.2012" stroke="#0E2050" stroke-miterlimit="10"/>
<path d="M9.16999 33.8848L6.96094 35.8733" stroke="#0E2050" stroke-miterlimit="10"/>
<path d="M8.5 6.5957L10.4891 8.79897" stroke="#0E2050" stroke-miterlimit="10"/>
<path d="M11.9332 7.62784L10.1875 5.22852" stroke="#0E2050" stroke-miterlimit="10"/>
<path d="M13.3438 42.2865L13.9475 40.9375" stroke="#0E2050" stroke-miterlimit="10" stroke-linecap="square"/>
<path d="M13.5039 37.3857L12.0156 39.9484" stroke="#0E2050" stroke-miterlimit="10"/>
<path d="M13.9531 40.9377L15.1653 38.2256" stroke="#0E2050" stroke-miterlimit="10"/>
<path d="M6.96094 35.8733L9.16999 33.8848" stroke="#0E2050" stroke-miterlimit="10"/>
<path d="M7.99155 32.4424L5.58594 34.1882" stroke="#0E2050" stroke-miterlimit="10"/>
<path d="M4.40424 32.3672L3.11719 33.1047" stroke="#0E2050" stroke-miterlimit="10"/>
<path d="M6.98035 30.8828L4.40625 32.3672" stroke="#0E2050" stroke-miterlimit="10"/>
<path d="M5.58594 34.1882L7.99155 32.4424" stroke="#0E2050" stroke-miterlimit="10"/>
<path d="M2.64062 28.4042L5.46746 27.4893" stroke="#0E2050" stroke-miterlimit="10"/>
<path d="M4.98452 25.6924L2.07812 26.3086" stroke="#0E2050" stroke-miterlimit="10"/>
<path d="M3.41406 30.4299L6.12857 29.2256" stroke="#0E2050" stroke-miterlimit="10"/>
<path d="M5.46746 27.4893L2.64062 28.4042" stroke="#0E2050" stroke-miterlimit="10"/>
<path d="M3.11719 33.1047L4.40424 32.3672" stroke="#0E2050" stroke-miterlimit="10" stroke-linecap="square"/>
<path d="M6.12857 29.2256L3.41406 30.4299" stroke="#0E2050" stroke-miterlimit="10"/>
<path d="M4.40625 32.3672L6.98035 30.8828" stroke="#0E2050" stroke-miterlimit="10"/>
<path d="M63.3184 14.2744C56.944 14.2744 54.0938 18.765 54.0938 23.2135C54.0938 25.5708 54.8519 27.7368 56.2326 29.2958C57.866 31.1443 60.3418 32.1199 63.3792 32.1199C69.061 32.1199 71.2934 29.1045 72.1686 26.5698L72.2388 26.3737H67.3621L67.32 26.4484C66.543 27.7834 65.387 28.3529 63.4494 28.3529C60.9549 28.3529 59.2232 26.8172 58.9892 24.4319H72.3652L72.3792 24.2918C72.412 23.8344 72.412 23.5309 72.412 23.1808C72.412 19.0731 70.0298 14.2744 63.3184 14.2744ZM63.3184 17.8454C66.4962 17.8454 67.2591 19.9086 67.4136 21.2483H59.0594C59.4853 18.2888 61.9003 17.8454 63.3184 17.8454Z" fill="#0E2050"/>
<path d="M103.358 18.3914V25.9348C103.358 27.4285 103.635 28.0914 105.259 28.0914C105.521 28.0914 106.19 28.0773 106.724 27.9653L106.906 27.928V31.3916L106.808 31.4289C105.872 31.751 104.636 31.793 103.672 31.793C99.9606 31.793 98.4489 30.3133 98.4489 26.6816V18.396H94.7656V14.727H98.4489V9.66699H103.363V14.727H107.397V18.396H103.363L103.358 18.3914Z" fill="#0E2050"/>
<path d="M124.44 17.117C122.717 15.2545 120.255 14.2695 117.33 14.2695C110.75 14.2695 107.75 18.8861 107.75 23.176C107.75 25.58 108.597 27.7926 110.137 29.403C111.836 31.1768 114.255 32.1151 117.134 32.1151C122.993 32.1151 126.78 28.6094 126.78 23.176C126.78 20.926 125.928 18.7181 124.44 17.117ZM117.265 28.2874C114.171 28.2874 112.762 25.6406 112.762 23.1806C112.762 20.7206 113.933 18.0739 117.232 18.0739C120.344 18.0739 121.734 20.6739 121.734 23.246C121.734 25.6826 120.56 28.2874 117.265 28.2874Z" fill="#0E2050"/>
<path d="M144.634 26.5188C144.634 30.0804 141.602 32.1156 136.322 32.1156C131.422 32.1156 128.169 29.9964 127.622 26.4441L127.594 26.2714H132.461L132.494 26.374C132.967 27.8585 134.352 28.6053 136.617 28.6053C138.742 28.6053 139.818 28.0312 139.818 26.9015C139.818 25.9586 139.14 25.3611 135.555 24.9083C130.514 24.2221 128.272 22.5883 128.272 19.6009C128.272 17.0195 130.285 14.2607 135.934 14.2607C143.006 14.2607 143.96 18.2612 144.082 19.4888L144.101 19.6522H139.271L139.243 19.5448C139.027 18.742 138.428 17.673 135.747 17.673C134.015 17.673 133.098 18.1958 133.098 19.1808C133.098 19.8109 133.383 20.3711 136.907 20.8846C143.708 21.8835 144.644 24.1801 144.644 26.5094L144.634 26.5188Z" fill="#0E2050"/>
<path d="M89.0986 14.4528V15.4611C87.5869 14.5088 85.7523 14 83.6742 14C77.0939 14 74.0939 18.6166 74.0939 22.9064C74.0939 25.3104 74.941 27.523 76.4808 29.1335C78.1797 30.9073 80.5994 31.8455 83.4777 31.8455C85.0175 31.8455 86.9597 31.4954 88.2796 31.0193V31.9762C88.2796 34.4129 86.8053 37.0176 83.5151 37.0176C80.4215 37.0176 79.0128 34.3709 79.0128 31.9109V31.8409H74.0003C73.9816 34.2729 74.8334 36.5135 76.3872 38.1379C78.0861 39.9117 80.5058 40.85 83.3841 40.85C89.2437 40.85 93.0299 37.3444 93.0299 31.9109L93.1189 23.2425V14.4528H89.0939H89.0986ZM83.6134 28.0178C80.5198 28.0178 79.1111 25.3711 79.1111 22.9111C79.1111 20.4511 80.2811 17.8044 83.5806 17.8044C86.693 17.8044 88.083 20.4044 88.083 22.9764C88.083 25.4178 86.9083 28.0178 83.6134 28.0178Z" fill="#0E2050"/>
<path d="M146.168 15.1897H145.531V14.7275H147.385V15.1897H146.753V16.7908H146.168V15.1897Z" fill="#0E2050"/>
<path d="M149.466 16.7908V15.6985L148.928 16.59H148.666L148.137 15.7265V16.7908H147.594V14.7275H148.076L148.801 15.9179L149.513 14.7275H149.995V16.7908H149.461H149.466Z" fill="#0E2050"/>
</g>
<defs>
<clipPath id="clip0_983_69062">
<rect width="150" height="44" fill="white"/>
</clipPath>
</defs>
</svg>
