<svg width="400" height="400" viewBox="0 0 400 400" fill="none" xmlns="http://www.w3.org/2000/svg">
<path d="M241.557 192.161C250.519 196.358 260.402 198.496 270.303 198.302C279.76 198.116 289.095 195.774 297.566 191.58C302.224 189.275 306.573 186.387 310.542 183.035C311.176 182.499 311.094 181.414 310.542 180.862C309.913 180.234 309.005 180.325 308.369 180.862C301.732 186.468 293.715 190.674 285.293 193.021C276.481 195.477 267.077 195.904 258.104 194.262C252.919 193.313 247.779 191.695 243.108 189.507C242.357 189.156 241.451 189.297 241.006 190.059C240.616 190.725 240.802 191.807 241.557 192.161Z" fill="#6C6D75"/>
<path d="M238.841 198.504C248.32 203.373 258.878 206.044 269.534 206.26C279.865 206.469 290.143 204.276 299.556 200.041C304.754 197.702 309.611 194.71 314.087 191.187C314.739 190.673 314.624 189.552 314.087 189.014C313.442 188.37 312.568 188.499 311.914 189.014C311.107 189.649 310.055 190.428 309.085 191.106C308.086 191.803 307.067 192.474 306.032 193.117C303.937 194.417 301.771 195.604 299.548 196.671C295.299 198.709 290.72 200.324 285.993 201.443C284.779 201.73 283.558 201.984 282.33 202.204C281.772 202.305 281.213 202.398 280.653 202.483C279.96 202.59 279.667 202.63 279.04 202.707C276.535 203.014 274.013 203.177 271.49 203.198C266.293 203.243 261.375 202.721 256.37 201.604C250.758 200.351 245.433 198.44 240.392 195.851C239.654 195.472 238.725 195.659 238.29 196.402C237.888 197.09 238.1 198.124 238.841 198.504Z" fill="#6C6D75"/>
<path d="M285.409 103.003C287.428 104.582 289.321 106.318 291.064 108.197C291.918 109.117 292.736 110.07 293.517 111.053C293.615 111.175 293.712 111.299 293.808 111.422C293.641 111.208 293.955 111.615 293.951 111.609C294.14 111.859 294.328 112.11 294.513 112.364C294.914 112.913 295.304 113.471 295.682 114.036C298.556 118.329 300.597 122.686 302.009 127.548C302.403 128.904 302.738 130.277 303.013 131.662C303.318 133.202 303.484 134.344 303.627 135.752C303.708 136.549 304.276 137.328 305.164 137.289C305.927 137.254 306.787 136.608 306.7 135.752C305.615 125.055 301.109 114.88 293.975 106.838C292.031 104.646 289.89 102.635 287.582 100.83C286.928 100.319 286.046 100.193 285.409 100.83C284.877 101.361 284.751 102.489 285.409 103.003Z" fill="#6C6D75"/>
<path d="M210.384 172.795C217.332 179.232 225.528 184.226 234.417 187.491C236.889 188.399 239.413 189.162 241.972 189.783C242.751 189.972 243.674 189.536 243.862 188.71C244.042 187.919 243.624 187.023 242.789 186.82C233.911 184.666 225.739 180.855 218.331 175.412C217.298 174.654 216.492 174.024 215.462 173.172C214.47 172.349 213.502 171.498 212.556 170.623C211.948 170.059 210.986 170.02 210.384 170.623C209.813 171.193 209.773 172.229 210.384 172.795Z" fill="#6C6D75"/>
<path d="M309.029 134.702C309.029 140.354 309.029 146.005 309.029 151.657C309.029 152.461 309.736 153.231 310.565 153.194C311.398 153.156 312.102 152.519 312.102 151.657C312.102 146.005 312.102 140.354 312.102 134.702C312.102 133.898 311.395 133.128 310.565 133.165C309.733 133.203 309.029 133.84 309.029 134.702Z" fill="#393A45"/>
<path d="M310.577 94.0355V67.3368C310.577 55.4423 310.577 43.5478 310.577 31.6533C310.577 30.8141 310.584 29.9746 310.577 29.1354C310.541 24.6829 309.145 20.3233 306.458 16.7583C302.463 11.4574 296.263 8.48146 289.652 8.46358C285.631 8.4527 281.61 8.46358 277.589 8.46358C268.72 8.46358 259.85 8.46358 250.98 8.46358C238.772 8.46358 226.564 8.46358 214.356 8.46358C200.402 8.46358 186.449 8.46358 172.495 8.46358C158.365 8.46358 144.236 8.46358 130.106 8.46358C117.372 8.46358 104.637 8.46358 91.9019 8.46358H46.9358C44.2501 8.46358 41.596 8.63386 39.0144 9.49326C30.5684 12.3049 24.8822 20.2866 24.8093 29.155C24.7671 34.2804 24.8093 39.4079 24.8093 44.5335C24.8093 56.2019 24.8093 67.8703 24.8093 79.5388C24.8093 93.6196 24.8093 107.7 24.8093 121.781C24.8093 134.26 24.8093 146.74 24.8093 159.219C24.8093 166.062 24.8093 172.905 24.8093 179.748C24.8093 184.868 26.151 189.692 29.3944 193.745C33.5969 198.996 39.8388 201.439 46.4393 201.439H77.0012C89.6381 201.439 102.275 201.439 114.912 201.439H121.459C120.965 201.063 120.471 200.687 119.977 200.311C121.557 209.945 119.763 220.436 114.585 228.759C113.91 229.843 114.821 230.945 115.912 231.071C129.794 232.677 141.804 223.341 147.092 210.99C148.614 207.434 149.576 203.741 150.03 199.902L148.494 201.439H182.033C184.01 201.439 184.013 198.366 182.033 198.366H148.494C147.591 198.366 147.055 199.075 146.957 199.902C145.128 215.368 132.451 229.912 115.912 227.998C116.354 228.769 116.796 229.539 117.238 230.31C122.873 221.252 124.654 209.946 122.94 199.494C122.833 198.839 122.081 198.366 121.459 198.366H97.8102C84.5339 198.366 71.2576 198.366 57.9813 198.366H46.5479C40.2773 198.366 34.3954 195.922 30.8361 190.543C28.5586 187.1 27.882 183.282 27.882 179.259C27.882 176.611 27.882 173.962 27.882 171.314C27.882 161.013 27.882 150.712 27.882 140.411C27.882 126.709 27.882 113.006 27.882 99.3037C27.882 86.0859 27.882 72.868 27.882 59.6502C27.882 50.9405 27.882 42.2309 27.882 33.5212C27.882 32.066 27.87 30.6102 27.882 29.155C27.9537 20.4542 34.4204 12.8337 43.1269 11.6781C46.6115 11.2155 50.3273 11.5364 53.8249 11.5364C61.6863 11.5364 69.5477 11.5364 77.4091 11.5364C88.8419 11.5364 100.275 11.5364 111.708 11.5364C125.203 11.5364 138.698 11.5364 152.193 11.5364C166.242 11.5364 180.29 11.5364 194.339 11.5364C207.432 11.5364 220.524 11.5364 233.617 11.5364C244.245 11.5364 254.873 11.5364 265.501 11.5364C272.155 11.5364 278.81 11.5364 285.464 11.5364C286.829 11.5364 288.194 11.5335 289.56 11.5364C295.469 11.5486 301.1 14.2481 304.449 19.2056C306.479 22.2107 307.484 25.6657 307.505 29.2813C307.511 30.3454 307.505 31.4097 307.505 32.4739C307.505 37.6031 307.505 42.7323 307.505 47.8616C307.505 60.7878 307.505 73.7139 307.505 86.6401V94.0355C307.505 96.0127 310.577 96.0159 310.577 94.0355Z" fill="#393A45"/>
<path d="M120.578 46.7478H249.974C261.617 46.7478 273.259 46.7478 284.901 46.7478H289.58C291.557 46.7478 291.561 43.675 289.58 43.675H120.578C118.6 43.675 118.597 46.7478 120.578 46.7478Z" fill="#393A45"/>
<path d="M48.5232 77.635H228.125C230.102 77.635 230.105 74.5623 228.125 74.5623H123.627C112.249 74.5623 100.871 74.5623 89.4937 74.5623C77.3844 74.5623 65.2751 74.5623 53.1659 74.5623H48.5232C46.546 74.5623 46.5428 77.635 48.5232 77.635Z" fill="#393A45"/>
<path d="M48.5242 170.296C64.7058 170.296 80.8874 170.296 97.0691 170.296C113.229 170.296 129.389 170.296 145.549 170.296H172.816C174.793 170.296 174.796 167.224 172.816 167.224C156.634 167.224 140.452 167.224 124.271 167.224C108.11 167.224 91.9504 167.224 75.7903 167.224C66.7016 167.224 57.6129 167.224 48.5242 167.224C46.547 167.224 46.5437 170.296 48.5242 170.296Z" fill="#393A45"/>
<path d="M178.323 104.966C185.582 107.212 192.758 109.739 199.933 112.236C206.75 114.609 213.558 117.012 220.359 119.431C223.76 120.641 227.159 121.855 230.557 123.072C232.1 123.624 236.726 124.163 236.969 126.143C237.12 127.375 236.381 128.521 235.674 129.542C231.659 135.345 227.643 141.149 223.627 146.953C222.936 147.952 222.208 148.985 221.152 149.587C219.236 150.679 216.812 149.532 214.97 148.839C209.284 146.699 202.71 144.644 199.986 138.628C198.589 135.542 198.461 131.904 199.638 128.727C200.02 127.698 200.537 126.697 200.651 125.605C200.766 124.513 200.351 123.262 199.348 122.815C198.103 122.259 196.725 123.156 195.659 124.005C196.295 122.795 195.967 121.16 194.914 120.289C193.86 119.419 192.193 119.405 191.125 120.258C191.808 119.146 190.819 117.579 189.539 117.324C188.26 117.07 186.966 117.778 186.048 118.705C186.534 117.558 185.593 116.161 184.379 115.885C183.164 115.609 181.886 116.227 181.042 117.143C180.197 118.058 179.702 119.233 179.222 120.383C177.785 123.827 176.318 127.451 176.687 131.165C176.899 133.3 175.995 134.626 173.942 133.453C171.869 132.269 169.413 131.589 167.182 130.734C165.148 129.955 163.34 128.71 161.881 127.092L146.368 109.891C145.052 108.433 146.004 106.1 147.964 105.977L173.413 104.387C175.076 104.283 176.731 104.474 178.323 104.966Z" fill="#00A099"/>
<path d="M295.616 148.358C296.468 145.83 303.149 149.454 304.492 149.948C308.003 151.242 311.509 152.545 315.021 153.834C317.228 154.651 320.724 155.245 322.462 156.898C324.651 158.981 323.058 162.059 321.935 164.148C321.594 164.782 321.385 165.546 321.635 166.221C321.958 167.093 322.992 167.552 323.916 167.444C324.84 167.337 325.653 166.776 326.315 166.123C326.977 165.47 327.53 164.712 328.197 164.064C333.438 158.975 340.397 163.267 345.944 165.351C351.863 167.576 357.779 169.811 363.684 172.075C371.906 175.227 375.864 184.575 372.395 192.668C369.096 200.366 360.291 204.061 352.495 201.003C344.872 198.012 337.229 195.077 329.581 192.152C326.285 190.891 322.773 189.977 319.592 188.435C318.48 187.895 317.525 187.028 316.402 186.578C315.893 186.374 311.906 186.227 311.85 186.093C309.187 179.657 306.531 173.471 304.256 166.902C302.362 161.431 299.766 156.203 296.551 151.388C295.968 150.516 295.336 149.516 295.577 148.495C295.588 148.447 295.601 148.402 295.616 148.358Z" fill="#00A099"/>
<path d="M48.5242 139.409C63.6391 139.409 78.754 139.409 93.8689 139.409C108.963 139.409 124.058 139.409 139.152 139.409H164.621C166.599 139.409 166.602 136.337 164.621 136.337H119.277C104.182 136.337 89.0877 136.337 73.9931 136.337C65.5035 136.337 57.0138 136.337 48.5242 136.337C46.547 136.337 46.5437 139.409 48.5242 139.409Z" fill="#393A45"/>
<path d="M48.5235 108.522H138.324C139.128 108.522 139.898 107.815 139.861 106.986C139.823 106.153 139.185 105.449 138.324 105.449H104.555C92.8287 105.449 81.1019 105.449 69.3752 105.449C62.4246 105.449 55.4741 105.449 48.5235 105.449C47.7199 105.449 46.95 106.156 46.9871 106.986C47.0244 107.818 47.6622 108.522 48.5235 108.522Z" fill="#393A45"/>
<path d="M294.293 148.732C301.881 151.541 309.543 154.146 317.164 156.866C319.104 157.558 321.041 158.258 322.972 158.975C323.727 159.255 324.689 158.663 324.862 157.902C325.06 157.031 324.597 156.312 323.789 156.012C316.309 153.234 308.75 150.671 301.235 147.99C299.19 147.26 297.147 146.523 295.11 145.769C294.355 145.49 293.393 146.081 293.22 146.842C293.022 147.712 293.484 148.433 294.293 148.732Z" fill="#393A45"/>
<path d="M176.928 132.95C175.131 132.347 173.377 131.629 171.629 130.899C170.781 130.545 169.935 130.189 169.084 129.844C168.676 129.678 168.266 129.514 167.854 129.354C167.356 129.161 167.281 129.138 166.81 128.907C165.119 128.075 163.931 127.075 162.672 125.679C160.782 123.583 158.891 121.487 157.001 119.391C154.545 116.667 152.089 113.944 149.632 111.22L147.648 109.02C147.592 108.957 147.535 108.895 147.478 108.832C147.47 108.823 147.462 108.814 147.454 108.805C147.284 108.615 147.462 108.883 147.434 108.769C147.417 108.704 147.357 108.617 147.318 108.56C147.232 108.433 147.372 108.846 147.328 108.549C147.321 108.506 147.308 108.422 147.288 108.384C147.206 108.224 147.255 108.629 147.3 108.459C147.338 108.317 147.33 108.05 147.271 108.37C147.292 108.256 147.364 108.11 147.362 107.996C147.36 107.863 147.332 108.064 147.308 108.108C147.352 108.028 147.395 107.945 147.438 107.865C147.601 107.561 147.318 107.938 147.498 107.781C147.551 107.735 147.608 107.678 147.659 107.627C147.613 107.673 147.388 107.785 147.617 107.665C147.652 107.647 147.74 107.609 147.765 107.579C147.875 107.446 147.537 107.628 147.715 107.593C147.772 107.581 147.829 107.554 147.885 107.539C147.936 107.525 148.261 107.49 148.043 107.5C147.865 107.509 148.026 107.508 148.064 107.507C148.169 107.506 148.275 107.494 148.38 107.487L149.59 107.412L153.723 107.153C157.512 106.917 161.302 106.68 165.091 106.443C167.736 106.278 170.38 106.112 173.025 105.947C173.277 105.931 173.53 105.914 173.783 105.905C175.643 105.838 177.143 106.203 178.943 106.768C182.652 107.932 186.336 109.172 190.008 110.444C197.164 112.921 204.304 115.432 211.479 117.852C218.468 120.209 225.524 122.648 232.199 125.625C233.94 126.401 235.706 127.114 237.477 127.819C238.225 128.117 239.196 127.493 239.367 126.746C239.569 125.859 239.095 125.175 238.294 124.856C234.763 123.449 231.334 121.872 227.77 120.454C224.231 119.046 220.646 117.754 217.047 116.508C209.792 113.999 202.508 111.579 195.266 109.032C191.537 107.721 187.804 106.423 184.05 105.186C180.596 104.049 177.105 102.637 173.405 102.851C171.286 102.973 169.168 103.115 167.05 103.248C163.168 103.49 159.286 103.733 155.403 103.976C152.967 104.128 150.529 104.268 148.094 104.432C147.3 104.486 146.535 104.663 145.883 105.143C144.577 106.102 143.915 107.777 144.365 109.366C144.659 110.404 145.435 111.148 146.134 111.923C148.357 114.388 150.58 116.853 152.804 119.319C155.103 121.868 157.401 124.417 159.7 126.966C160.213 127.535 160.714 128.121 161.254 128.665C162.472 129.891 163.919 130.934 165.484 131.668C167.246 132.494 169.103 133.149 170.9 133.898C172.619 134.616 174.344 135.32 176.111 135.913C176.874 136.169 177.824 135.619 178.001 134.84C178.194 133.991 177.744 133.224 176.928 132.95Z" fill="#393A45"/>
<path d="M220.426 149.523C216.113 146.642 210.864 145.645 206.073 143.848C205.319 143.565 204.356 144.162 204.183 144.921C203.984 145.794 204.449 146.508 205.256 146.811C207.594 147.688 209.998 148.371 212.36 149.177C212.958 149.382 213.554 149.593 214.145 149.817C214.738 150.042 215.237 150.244 215.657 150.431C216.774 150.928 217.858 151.497 218.876 152.176C219.566 152.638 220.577 152.311 220.978 151.625C221.419 150.871 221.118 149.985 220.426 149.523Z" fill="#393A45"/>
<path d="M333.215 163.072C341.182 166.036 349.281 168.604 357.31 171.39C359.007 171.978 360.697 172.583 362.378 173.215C362.787 173.369 363.198 173.521 363.603 173.686C363.854 173.788 363.28 173.536 363.687 173.724C363.771 173.762 363.856 173.8 363.94 173.839C364.191 173.956 364.438 174.08 364.682 174.21C365.044 174.403 365.398 174.611 365.743 174.832C365.933 174.953 366.12 175.079 366.304 175.209C366.378 175.261 366.451 175.313 366.523 175.366C366.548 175.384 366.899 175.654 366.64 175.45C367.336 175.997 367.985 176.604 368.577 177.262C368.695 177.393 368.81 177.525 368.923 177.66C368.983 177.732 369.364 178.219 369.174 177.965C369.436 178.314 369.686 178.672 369.919 179.041C370.14 179.391 370.347 179.749 370.539 180.115C370.63 180.288 370.718 180.463 370.802 180.64C370.849 180.738 370.895 180.836 370.94 180.935C370.958 180.976 371.118 181.349 371.044 181.17C370.956 180.957 371.115 181.353 371.114 181.35C371.145 181.431 371.176 181.512 371.206 181.593C371.282 181.797 371.353 182.003 371.42 182.21C371.554 182.624 371.67 183.044 371.769 183.468C371.863 183.872 371.914 184.284 372.002 184.689C372.057 184.942 371.964 184.317 372.008 184.736C372.018 184.823 372.028 184.91 372.037 184.997C372.062 185.238 372.081 185.478 372.094 185.719C372.142 186.585 372.106 187.445 372.019 188.307C371.975 188.736 372.055 188.102 372.013 188.365C371.995 188.476 371.98 188.587 371.961 188.698C371.928 188.898 371.89 189.098 371.849 189.296C371.756 189.743 371.643 190.185 371.511 190.622C371.383 191.044 371.23 191.456 371.075 191.869C370.97 192.148 371.044 191.951 371.069 191.892C371.034 191.974 371.015 192.015 370.983 192.088C370.878 192.325 370.766 192.56 370.649 192.792C370.242 193.598 369.763 194.362 369.226 195.088C369.068 195.301 369.449 194.816 369.174 195.155C369.117 195.226 369.06 195.297 369.003 195.367C368.858 195.541 368.711 195.712 368.559 195.88C368.257 196.213 367.941 196.534 367.612 196.84C367.317 197.114 367.011 197.373 366.697 197.625C366.941 197.429 366.449 197.809 366.368 197.866C366.17 198.008 365.967 198.145 365.762 198.277C365.036 198.743 364.272 199.151 363.478 199.49C363.75 199.374 363.533 199.467 363.478 199.488C363.354 199.535 363.231 199.585 363.106 199.631C362.94 199.692 362.773 199.751 362.605 199.806C362.164 199.953 361.716 200.079 361.264 200.185C360.853 200.282 360.438 200.356 360.022 200.424C359.956 200.434 359.721 200.456 360.033 200.423C359.923 200.435 359.812 200.449 359.701 200.46C359.457 200.485 359.212 200.504 358.967 200.517C358.083 200.565 357.214 200.511 356.334 200.432C356.067 200.408 356.701 200.494 356.268 200.424C356.178 200.409 356.087 200.396 355.997 200.38C355.77 200.342 355.545 200.299 355.32 200.25C354.866 200.153 354.416 200.035 353.972 199.897C352.326 199.383 350.728 198.669 349.121 198.043C347.376 197.363 345.63 196.686 343.884 196.011C335.403 192.731 326.908 189.486 318.409 186.253C317.239 185.807 316.068 185.362 314.898 184.917C314.145 184.631 313.18 185.234 313.008 185.99C312.808 186.866 313.275 187.574 314.081 187.88C323.082 191.301 332.08 194.732 341.064 198.2C344.585 199.559 348.104 200.923 351.618 202.3C355.216 203.71 359.114 204.028 362.852 202.946C366.588 201.864 369.827 199.52 372.082 196.362C374.269 193.298 375.386 189.411 375.163 185.654C374.938 181.863 373.475 178.271 371.011 175.387C369.787 173.955 368.286 172.727 366.653 171.79C364.964 170.82 363.087 170.2 361.263 169.538C353.447 166.7 345.494 164.261 337.671 161.442C336.456 161.004 335.243 160.559 334.032 160.108C333.277 159.828 332.315 160.421 332.142 161.182C331.944 162.053 332.407 162.771 333.215 163.072Z" fill="#393A45"/>
<path d="M317.797 283.061C315.506 281.575 312.95 280.321 310.898 278.544C308.724 276.662 306.819 274.667 304.385 273.075C299.634 269.971 302.912 265.863 305.368 262.31C314.784 248.688 317.815 230.842 313.426 214.875C312.977 213.24 312.243 210.289 310.721 209.279C309.261 208.31 308.586 209.017 307.11 209.667C303.072 211.444 298.657 212.471 294.325 213.249C285.381 214.854 276.205 214.947 267.18 214.018C257.422 213.013 247.826 210.829 238.406 208.139C236.471 207.586 234.57 207.15 232.877 206.031C231.999 205.451 230.804 203.859 229.727 203.706C227.448 203.382 225.464 208.693 223.922 210.302C219.734 214.67 214.357 217.674 210.276 222.168C205.407 227.528 202.439 235.638 199.25 242.103C192.175 256.446 185.895 271.184 180.452 286.222C176.698 296.588 173.977 307.208 170.783 317.654C167.448 328.562 164.628 338.514 169.533 349.628C180.841 375.246 214.255 368.977 226.861 348.331C233.576 337.331 235.858 324.289 238.413 311.658C239.336 307.095 240.507 302.581 242.002 298.171C243.121 294.87 244.211 289.626 247.188 287.493C250.542 297.494 256.666 307.448 264.225 314.739C267.977 318.358 270.395 323.897 273.64 328.043C277.092 332.452 280.88 336.598 284.965 340.428C292.085 347.104 300.318 352.926 309.737 355.489C319.156 358.051 329.915 356.96 337.611 350.955C346.37 344.122 349.782 331.859 347.784 320.931C345.786 310.003 339.069 300.387 330.838 292.925C326.792 289.256 322.378 286.033 317.797 283.061Z" fill="#C7FFF7"/>
<path d="M340.452 388.682C338.38 388.846 335.998 388.422 334.115 388.352C333.083 388.314 331.961 388.242 331.184 387.561C330.049 386.566 330.187 384.717 330.87 383.371C332.123 380.904 334.944 379.328 337.701 379.556C338.54 379.626 339.525 379.798 340.107 379.189C340.418 378.862 340.515 378.393 340.6 377.95C341.987 370.664 344.591 364.025 351.699 360.407C357.809 357.297 366.107 357.531 370.692 363.158C366.177 367.188 361.662 371.218 357.148 375.248C353.746 378.284 350.345 381.32 346.944 384.356C345.761 385.412 344.252 387.393 342.851 388.089C342.147 388.439 341.327 388.613 340.452 388.682Z" fill="#393A45"/>
<path d="M340.453 387.146C339.108 387.242 337.763 387.122 336.424 386.996C335.811 386.938 335.198 386.877 334.584 386.839C334.324 386.824 334.064 386.816 333.804 386.803C333.647 386.795 333.49 386.781 333.332 386.772C333.143 386.751 333.122 386.751 333.271 386.772C333.193 386.761 333.116 386.747 333.04 386.732C332.913 386.707 332.788 386.678 332.664 386.642C332.637 386.634 332.216 386.442 332.465 386.575C332.451 386.568 332.066 386.3 332.272 386.475C332.202 386.416 332.142 386.35 332.079 386.285C332.302 386.515 332.05 386.219 332.014 386.167C331.814 385.874 332.041 386.399 331.965 386.051C331.942 385.945 331.915 385.833 331.886 385.728C331.865 385.616 331.868 385.64 331.894 385.802C331.886 385.711 331.882 385.62 331.881 385.529C331.879 385.39 331.889 385.252 331.898 385.113C331.877 385.419 331.899 385.116 331.916 385.035C331.968 384.779 332.044 384.534 332.13 384.288C332.27 383.884 331.983 384.509 332.198 384.146C332.247 384.063 332.288 383.974 332.335 383.89C332.407 383.763 332.483 383.639 332.563 383.518C332.594 383.47 332.935 383.032 332.753 383.246C332.909 383.061 333.07 382.881 333.242 382.711C333.346 382.61 333.452 382.511 333.562 382.415C333.541 382.434 333.908 382.135 333.744 382.26C333.581 382.386 333.965 382.108 333.941 382.124C334.061 382.042 334.184 381.963 334.309 381.889C334.558 381.74 334.817 381.605 335.082 381.486C334.794 381.615 335.233 381.433 335.255 381.425C335.392 381.376 335.53 381.331 335.67 381.291C335.903 381.224 336.139 381.178 336.376 381.125C336.822 381.027 336.086 381.131 336.542 381.101C336.662 381.093 336.782 381.082 336.903 381.077C337.218 381.064 337.53 381.078 337.843 381.105C339.235 381.225 340.677 381.132 341.53 379.85C342.181 378.875 342.239 377.499 342.496 376.376C342.734 375.336 343.007 374.304 343.327 373.287C343.474 372.82 343.632 372.356 343.8 371.896C343.896 371.635 343.995 371.376 344.098 371.118C344.133 371.033 344.168 370.947 344.203 370.862C344.271 370.697 344.273 370.692 344.209 370.848C344.245 370.763 344.282 370.679 344.319 370.595C344.744 369.638 345.229 368.707 345.784 367.818C346.024 367.433 346.278 367.057 346.544 366.69C346.624 366.579 346.706 366.47 346.788 366.361C346.587 366.627 346.863 366.269 346.884 366.242C347.057 366.029 347.234 365.819 347.416 365.614C348.127 364.811 348.912 364.065 349.761 363.41C349.562 363.563 349.759 363.413 349.795 363.388C349.913 363.303 350.03 363.216 350.149 363.132C350.39 362.962 350.636 362.798 350.885 362.639C351.356 362.34 351.841 362.062 352.337 361.805C352.585 361.676 352.836 361.553 353.09 361.436C353.172 361.397 353.256 361.361 353.339 361.323C353.749 361.132 353.056 361.431 353.476 361.263C353.988 361.058 354.505 360.869 355.032 360.707C355.516 360.558 356.006 360.429 356.501 360.32C356.726 360.27 356.952 360.224 357.179 360.183C357.315 360.158 357.451 360.135 357.588 360.113C357.691 360.097 358.005 360.054 357.726 360.09C358.907 359.938 360.105 359.903 361.293 359.997C361.383 360.005 361.474 360.013 361.565 360.021C361.629 360.028 362.202 360.097 361.833 360.046C362.102 360.083 362.37 360.129 362.637 360.181C363.212 360.292 363.782 360.438 364.339 360.619C364.596 360.702 364.85 360.793 365.102 360.891C365.141 360.906 365.55 361.083 365.233 360.942C365.398 361.015 365.561 361.089 365.723 361.168C366.21 361.406 366.683 361.674 367.135 361.972C367.249 362.046 367.362 362.123 367.473 362.202C367.515 362.231 367.878 362.502 367.758 362.408C367.586 362.275 367.938 362.557 367.925 362.546C368.067 362.664 368.207 362.785 368.343 362.91C368.797 363.323 369.216 363.771 369.606 364.244V362.071C365.538 365.703 361.47 369.334 357.402 372.966C355.378 374.772 353.354 376.579 351.33 378.385C349.381 380.125 347.339 381.801 345.475 383.631C344.638 384.452 343.881 385.354 342.998 386.129C342.924 386.194 342.848 386.257 342.773 386.321C342.501 386.553 342.899 386.256 342.634 386.426C342.406 386.572 342.183 386.722 341.934 386.83C342.147 386.737 341.831 386.86 341.78 386.876C341.598 386.936 341.414 386.986 341.227 387.028C340.835 387.116 340.798 387.116 340.453 387.146C339.654 387.216 338.877 387.802 338.916 388.682C338.951 389.455 339.595 390.294 340.453 390.219C341.713 390.108 342.999 389.866 344.072 389.156C345.026 388.525 345.829 387.7 346.612 386.876C348.35 385.047 350.292 383.425 352.172 381.746C356.351 378.016 360.53 374.285 364.709 370.555C367.066 368.451 369.423 366.348 371.779 364.244C372.44 363.654 372.283 362.682 371.779 362.071C368.741 358.386 363.931 356.687 359.237 356.888C354.45 357.093 349.78 359.043 346.302 362.345C342.937 365.539 340.988 369.879 339.838 374.308C339.548 375.427 339.327 376.558 339.09 377.69C339.059 377.839 339.028 377.988 338.981 378.133C339.081 377.821 338.943 378.403 339.021 378.102C339.091 377.834 339.127 378.327 339.01 378.106L339.133 378.053C339.047 378.08 338.959 378.101 338.87 378.116C339.223 378.059 338.762 378.096 338.715 378.096C338.569 378.094 338.423 378.083 338.277 378.072C337.94 378.046 337.605 378.004 337.266 377.999C334.705 377.961 332.092 379.188 330.489 381.186C329.518 382.396 328.846 383.815 328.809 385.391C328.771 386.997 329.561 388.588 331.05 389.294C332.503 389.982 334.171 389.861 335.736 390.004C337.304 390.148 338.877 390.331 340.453 390.219C341.253 390.162 342.028 389.553 341.989 388.682C341.954 387.899 341.311 387.085 340.453 387.146Z" fill="#393A45"/>
<path d="M154.378 387.714C160.708 380.977 168.631 374.024 177.925 373.794C185.717 373.6 195.657 380.43 194.681 390L154.378 387.714Z" fill="#393A45"/>
<path d="M155.465 388.8C156.813 387.367 158.193 385.963 159.631 384.619C160.371 383.928 161.125 383.253 161.898 382.599C162.647 381.965 163.359 381.396 164.022 380.903C165.574 379.749 167.204 378.693 168.923 377.804C169.346 377.585 169.774 377.376 170.207 377.179C170.303 377.136 170.399 377.093 170.495 377.05C170.452 377.069 170.928 376.865 170.747 376.941C170.6 377.002 170.899 376.879 170.927 376.868C171.073 376.81 171.219 376.752 171.366 376.696C172.269 376.353 173.192 376.063 174.131 375.836C174.562 375.732 174.996 375.642 175.432 375.566C175.664 375.525 175.896 375.487 176.13 375.456C176.06 375.465 175.872 375.485 176.189 375.451C176.346 375.434 176.502 375.417 176.659 375.403C177.46 375.33 178.265 375.303 179.068 375.351C179.242 375.361 179.416 375.375 179.59 375.391C179.673 375.399 180.256 375.473 179.824 375.412C180.178 375.462 180.531 375.523 180.882 375.595C181.601 375.745 182.309 375.941 183.004 376.179C183.358 376.301 183.705 376.439 184.054 376.575C183.721 376.445 184.238 376.657 184.321 376.695C184.513 376.782 184.703 376.873 184.891 376.966C185.594 377.315 186.276 377.706 186.931 378.138C187.233 378.337 187.528 378.547 187.819 378.762C187.856 378.789 188.071 378.954 187.918 378.836C187.737 378.695 188.066 378.955 188.064 378.953C188.229 379.087 188.392 379.224 188.553 379.363C189.13 379.865 189.676 380.405 190.18 380.98C190.32 381.139 190.456 381.301 190.589 381.466C190.642 381.531 190.695 381.598 190.747 381.664C190.537 381.395 190.769 381.697 190.813 381.758C191.075 382.116 191.32 382.485 191.548 382.865C191.765 383.227 191.966 383.598 192.149 383.978C192.195 384.073 192.24 384.169 192.284 384.265C192.316 384.336 192.459 384.69 192.329 384.363C192.408 384.56 192.484 384.757 192.555 384.957C192.696 385.359 192.818 385.768 192.918 386.182C192.969 386.391 193.014 386.602 193.053 386.813C193.069 386.898 193.084 386.983 193.099 387.068C193.12 387.198 193.151 387.452 193.118 387.176C193.228 388.117 193.236 389.058 193.145 390C193.657 389.488 194.169 388.976 194.681 388.464C193.341 388.388 192.001 388.312 190.66 388.236C187.459 388.054 184.258 387.872 181.057 387.691C177.169 387.47 173.281 387.25 169.393 387.029C166.045 386.839 162.698 386.649 159.35 386.459C157.721 386.367 156.078 386.201 154.446 386.181C154.424 386.181 154.401 386.178 154.378 386.177C153.574 386.132 152.806 386.916 152.842 387.714C152.881 388.585 153.517 389.201 154.378 389.25C155.718 389.326 157.059 389.402 158.399 389.478C161.6 389.66 164.801 389.841 168.002 390.023C171.89 390.243 175.778 390.464 179.666 390.685C183.014 390.874 186.362 391.064 189.709 391.254C191.338 391.347 192.981 391.512 194.613 391.533C194.636 391.533 194.658 391.535 194.681 391.536C195.567 391.587 196.141 390.788 196.217 390C196.911 382.83 191.794 376.587 185.469 373.864C183.955 373.212 182.392 372.705 180.758 372.465C178.871 372.189 177.044 372.238 175.157 372.515C171.109 373.11 167.291 374.933 163.929 377.213C159.997 379.879 156.538 383.176 153.292 386.627C152.723 387.231 152.692 388.201 153.292 388.8C153.866 389.374 154.894 389.406 155.465 388.8Z" fill="#393A45"/>
<path d="M244.848 288.451C248.677 295.733 252.883 302.816 257.469 309.648C262.1 316.548 267.117 323.196 272.505 329.523C277.438 335.318 282.622 340.983 288.497 345.842C294.351 350.685 300.847 354.892 308.048 357.424C314.947 359.85 322.6 360.466 329.581 357.995C336.159 355.666 341.581 350.862 345.178 344.932C348.918 338.766 350.585 331.525 350.085 324.344C349.54 316.498 346.687 308.897 342.34 302.374C337.876 295.675 331.884 290.153 325.241 285.658C321.959 283.438 318.461 281.567 315.189 279.328C312.019 277.159 309.257 274.951 306.334 272.4C304.85 271.105 303.394 269.779 301.949 268.44C301.341 267.876 300.379 267.838 299.777 268.44C299.206 269.011 299.166 270.047 299.777 270.613C305.46 275.882 311.408 280.83 318.072 284.82C319.74 285.818 321.413 286.799 323.035 287.873C324.593 288.904 326.265 290.097 327.625 291.168C330.675 293.569 333.523 296.231 336.064 299.167C338.46 301.937 340.564 305.01 342.316 308.358C344.062 311.693 345.351 315.112 346.199 318.872C347.002 322.437 347.294 326.007 346.986 329.783C346.951 330.215 346.908 330.646 346.856 331.077C346.844 331.175 346.832 331.273 346.819 331.372C346.854 331.103 346.82 331.357 346.813 331.405C346.776 331.651 346.739 331.896 346.698 332.141C346.562 332.949 346.394 333.752 346.197 334.548C345.801 336.143 345.283 337.705 344.658 339.225C344.562 339.459 344.739 339.038 344.639 339.271C344.6 339.362 344.56 339.454 344.52 339.545C344.44 339.727 344.358 339.909 344.274 340.09C344.097 340.474 343.913 340.854 343.721 341.231C343.338 341.984 342.926 342.723 342.486 343.445C342.06 344.143 341.608 344.826 341.13 345.49C341.015 345.651 340.898 345.811 340.779 345.969C340.72 346.048 340.66 346.127 340.6 346.206C340.448 346.406 340.724 346.05 340.568 346.247C340.308 346.577 340.043 346.902 339.771 347.222C338.718 348.457 337.567 349.61 336.327 350.657C335.247 351.568 333.931 352.498 332.488 353.317C331.783 353.717 331.06 354.084 330.321 354.416C330.231 354.456 330.141 354.495 330.051 354.535C330.012 354.552 329.78 354.649 330.01 354.554C329.827 354.63 329.644 354.703 329.46 354.774C329.051 354.933 328.638 355.08 328.221 355.217C327.378 355.495 326.52 355.732 325.652 355.925C325.237 356.017 324.821 356.1 324.402 356.172C324.193 356.208 323.985 356.24 323.776 356.273C323.46 356.322 323.644 356.293 323.714 356.284C323.558 356.305 323.401 356.324 323.244 356.341C321.527 356.537 319.792 356.569 318.068 356.454C317.65 356.427 317.232 356.39 316.815 356.346C316.606 356.324 316.398 356.299 316.19 356.273C316.152 356.269 315.889 356.232 316.13 356.266C315.999 356.247 315.869 356.228 315.739 356.208C314.878 356.076 314.022 355.911 313.172 355.716C311.425 355.314 309.707 354.785 308.028 354.157C307.134 353.822 306.52 353.571 305.757 353.232C304.931 352.866 304.116 352.477 303.31 352.069C300.035 350.41 296.925 348.433 293.971 346.255C292.582 345.23 291.328 344.234 289.925 343.046C288.574 341.904 287.258 340.721 285.977 339.501C283.245 336.901 280.671 334.133 278.153 331.327C272.76 325.317 267.819 319.095 263.177 312.532C258.527 305.956 254.238 299.125 250.314 292.092C249.354 290.373 248.418 288.642 247.502 286.9C247.116 286.166 246.093 285.943 245.4 286.349C244.656 286.784 244.461 287.714 244.848 288.451Z" fill="#393A45"/>
<path d="M309.321 208.143C309.62 208.713 309.908 209.288 310.181 209.871C310.312 210.15 310.44 210.431 310.565 210.713C310.622 210.843 310.679 210.973 310.735 211.103C310.741 211.116 310.833 211.332 310.769 211.181C310.698 211.012 310.842 211.358 310.855 211.39C311.329 212.545 311.75 213.72 312.12 214.912C312.496 216.122 312.818 217.348 313.088 218.585C313.223 219.203 313.345 219.825 313.454 220.448C313.503 220.726 313.549 221.003 313.592 221.282C313.618 221.444 313.642 221.606 313.666 221.769C313.68 221.861 313.737 222.279 313.699 221.988C314.031 224.491 314.161 227.021 314.115 229.545C314.091 230.83 314.022 232.115 313.909 233.396C313.853 234.04 313.785 234.683 313.707 235.324C313.69 235.467 313.672 235.61 313.654 235.753C313.651 235.769 313.621 236.006 313.643 235.834C313.668 235.646 313.628 235.945 313.622 235.987C313.575 236.32 313.526 236.653 313.474 236.985C312.667 242.126 311.211 247.158 309.248 251.974C309.193 252.11 309.137 252.245 309.081 252.381C309.053 252.448 308.875 252.869 308.98 252.623C308.845 252.938 308.71 253.253 308.571 253.566C308.314 254.148 308.049 254.727 307.778 255.302C307.214 256.495 306.618 257.673 305.992 258.834C304.76 261.12 303.41 263.343 301.948 265.49C301.219 266.56 300.461 267.612 299.676 268.643C299.633 268.7 299.589 268.756 299.546 268.813C299.539 268.822 299.395 269.009 299.491 268.884C299.587 268.76 299.443 268.946 299.436 268.955C299.392 269.011 299.348 269.067 299.304 269.124C299.099 269.385 298.892 269.646 298.683 269.905C298.282 270.402 297.874 270.893 297.46 271.379C295.848 273.268 294.135 275.072 292.319 276.767C291.871 277.185 291.416 277.597 290.955 278.002C290.332 278.55 290.395 279.614 290.955 280.175C291.574 280.793 292.503 280.724 293.128 280.175C297.019 276.75 300.455 272.838 303.483 268.636C306.582 264.337 309.221 259.704 311.342 254.848C313.503 249.904 315.177 244.752 316.157 239.441C317.119 234.227 317.475 228.884 316.957 223.6C316.437 218.301 315.098 213.145 312.835 208.32C312.561 207.737 312.273 207.162 311.974 206.592C311.588 205.858 310.565 205.635 309.872 206.041C309.128 206.476 308.934 207.406 309.321 208.143Z" fill="#393A45"/>
<path d="M208.365 221.478C201.833 233.153 195.842 245.129 190.42 257.359C184.961 269.675 179.878 282.241 175.859 295.106C173.809 301.669 171.985 308.3 170.014 314.887C168.178 321.028 166.155 327.15 165.531 333.564C164.519 343.97 168.438 355.159 176.747 361.79C182.939 366.733 190.92 368.655 198.739 367.764C206.873 366.836 214.577 363.307 220.732 357.928C228.761 350.91 232.995 340.769 235.768 330.692C237.416 324.7 238.578 318.592 239.806 312.505C240.933 306.918 242.397 301.405 244.378 296.057C248.145 285.886 253.903 276.568 260.492 267.941C264.148 263.154 267.96 258.502 271.258 253.452C274.559 248.399 277.419 242.976 279.129 237.166C279.961 234.336 280.487 231.422 280.704 228.48C280.766 227.652 279.954 226.944 279.168 226.944C278.286 226.944 277.693 227.649 277.632 228.48C276.76 240.274 269.991 250.595 263.016 259.741C259.528 264.313 255.908 268.765 252.686 273.536C249.73 277.914 247.051 282.482 244.782 287.255C242.459 292.142 240.553 297.223 239.067 302.426C237.433 308.149 236.416 314.009 235.191 319.827C233.932 325.809 232.5 331.78 230.361 337.517C229.321 340.306 228.098 343.024 226.655 345.628C226.058 346.704 225.431 347.764 224.746 348.786C224.476 349.191 224.197 349.589 223.91 349.982C223.767 350.178 223.621 350.372 223.474 350.565C223.192 350.937 223.575 350.439 223.403 350.658C223.298 350.791 223.192 350.924 223.086 351.056C221.839 352.6 220.467 354.042 218.993 355.37C218.634 355.693 218.269 356.01 217.899 356.319C217.732 356.459 217.564 356.596 217.395 356.733C217.302 356.808 217.207 356.884 217.113 356.959C217.07 356.993 216.762 357.233 216.968 357.074C216.168 357.692 215.341 358.275 214.496 358.828C212.854 359.901 211.133 360.854 209.351 361.674C209.135 361.773 208.918 361.871 208.7 361.966C208.613 362.004 208.525 362.042 208.438 362.08C208.007 362.267 208.716 361.97 208.28 362.146C207.841 362.324 207.402 362.5 206.957 362.664C206.03 363.008 205.089 363.317 204.138 363.588C203.239 363.844 202.331 364.067 201.415 364.254C200.961 364.347 200.504 364.431 200.046 364.507C199.818 364.544 199.589 364.577 199.36 364.613C198.919 364.681 199.558 364.589 199.288 364.624C199.128 364.644 198.968 364.664 198.808 364.683C196.949 364.899 195.072 364.963 193.203 364.858C192.775 364.833 192.347 364.8 191.92 364.758C191.696 364.736 191.472 364.709 191.248 364.684C191.166 364.675 190.863 364.633 191.188 364.678C191.054 364.66 190.921 364.64 190.787 364.62C189.857 364.478 188.933 364.292 188.021 364.058C187.153 363.836 186.297 363.572 185.456 363.265C185.246 363.189 185.037 363.109 184.828 363.027C184.755 362.998 184.158 362.748 184.449 362.875C183.995 362.677 183.546 362.471 183.104 362.249C182.293 361.844 181.504 361.396 180.741 360.906C180.355 360.659 179.976 360.401 179.604 360.133C179.417 359.998 179.231 359.86 179.048 359.72C179.259 359.882 179.068 359.735 179.029 359.704C178.883 359.589 178.738 359.472 178.594 359.353C177.864 358.751 177.167 358.107 176.507 357.429C175.854 356.759 175.084 355.871 174.605 355.254C171.575 351.348 169.387 346.228 168.688 341.18C167.864 335.237 169.059 329.271 170.642 323.558C171.515 320.411 172.508 317.299 173.434 314.168C174.379 310.972 175.296 307.769 176.229 304.57C178.12 298.081 180.103 291.625 182.426 285.276C184.683 279.107 187.081 272.99 189.615 266.93C194.665 254.86 200.283 243.025 206.417 231.469C207.919 228.638 209.454 225.825 211.019 223.029C211.985 221.301 209.332 219.75 208.365 221.478Z" fill="#393A45"/>
<path d="M250.306 77.9746C247.236 77.5291 242.448 74.4874 242.167 70.9732C241.888 67.4861 245.95 65.0785 248.87 64.3837C258.547 62.0811 266.099 67.5396 273.609 72.7376C278.384 76.043 284.083 78.9835 289.767 77.7916C287.575 82.7432 285.068 87.5863 281.444 91.6604C276.966 96.6944 270.998 97.2494 265.127 100.022C264.219 97.4348 262.965 96.478 260.87 95.0169C259.969 94.3884 255.1 90.3769 253.928 91.2792C255.833 89.812 257.455 87.712 257.545 85.3098C257.706 81.0519 252.828 79.0516 250.277 82.645C249.279 84.0511 248.934 85.8035 248.613 87.4972C249.64 84.3549 249.956 80.9826 249.531 77.7042" fill="#393A45"/>
<path d="M250.714 76.4933C250.349 76.4372 249.99 76.356 249.636 76.2516C249.444 76.1949 249.254 76.132 249.065 76.064C248.948 76.0218 248.833 75.9756 248.716 75.9314C248.324 75.783 248.999 76.0667 248.613 75.8871C247.755 75.4878 246.952 75.0169 246.184 74.4634C245.829 74.208 246.321 74.5782 246.117 74.4116C246.029 74.3399 245.941 74.2684 245.855 74.1948C245.684 74.0488 245.517 73.8978 245.356 73.7414C245.196 73.5872 245.042 73.428 244.894 73.2634C244.82 73.1822 244.751 73.098 244.679 73.0158C244.637 72.9662 244.596 72.9158 244.555 72.8649C244.663 73.0061 244.665 73.0072 244.562 72.8683C244.327 72.5203 244.115 72.1721 243.928 71.7956C243.889 71.7164 243.857 71.5391 243.942 71.8285C243.908 71.7143 243.86 71.6037 243.826 71.4894C243.803 71.4138 243.782 71.3375 243.763 71.2609C243.752 71.2179 243.665 70.7611 243.703 71.0026C243.743 71.2632 243.695 70.857 243.695 70.8448C243.689 70.739 243.689 70.6334 243.691 70.5276C243.694 70.4234 243.703 70.3204 243.71 70.2165C243.686 70.5668 243.696 70.2972 243.721 70.2006C243.771 70.0035 243.823 69.8109 243.885 69.6167C243.913 69.5267 244.04 69.2929 243.89 69.591C243.945 69.4821 243.997 69.3721 244.056 69.2654C244.156 69.0852 244.272 68.9173 244.385 68.7456C244.607 68.408 244.177 68.9634 244.451 68.6617C244.507 68.5994 244.56 68.5338 244.617 68.4714C244.76 68.3136 244.91 68.1624 245.065 68.0173C245.16 67.9292 245.257 67.8434 245.355 67.7598C245.384 67.7353 245.723 67.4694 245.451 67.6745C245.801 67.4106 246.168 67.171 246.548 66.9528C246.737 66.8442 246.929 66.741 247.123 66.6431C247.239 66.5849 247.355 66.5286 247.473 66.4741C247.543 66.4415 247.899 66.2885 247.573 66.4237C248.456 66.0569 249.375 65.8195 250.313 65.647C250.596 65.5951 250.879 65.5462 251.164 65.5092C250.963 65.5353 251.241 65.5021 251.26 65.5002C251.427 65.4836 251.594 65.4644 251.761 65.45C252.362 65.398 252.965 65.3739 253.568 65.3789C254.734 65.3885 255.595 65.4758 256.561 65.6548C257.613 65.8498 258.649 66.1274 259.664 66.47C260.159 66.6375 260.65 66.8211 261.135 67.0176C261.13 67.0159 261.606 67.2165 261.349 67.1059C261.446 67.1476 261.542 67.1898 261.638 67.2324C261.928 67.3606 262.215 67.4934 262.501 67.6302C266.613 69.5981 270.213 72.3709 274.008 74.8566C278.772 77.9766 284.378 80.4465 290.176 79.2733L288.441 77.0163C286.552 81.274 284.326 85.6957 281.489 89.2341C280.776 90.1232 280.029 90.9908 279.188 91.7616C278.99 91.9429 278.787 92.1194 278.581 92.2906C278.352 92.4795 278.259 92.5528 278.145 92.6338C277.724 92.9337 277.301 93.2262 276.859 93.4955C275.947 94.052 274.99 94.5175 274.016 94.9528C273.982 94.9677 273.746 95.069 273.963 94.9771C273.846 95.0266 273.729 95.0745 273.611 95.1223C273.399 95.2086 273.186 95.293 272.973 95.3759C272.448 95.5798 271.919 95.7742 271.39 95.9648C269.019 96.8174 266.636 97.6245 264.352 98.6959L266.609 99.6141C266.097 98.1857 265.399 96.8737 264.319 95.7916C263.451 94.9222 262.411 94.2613 261.429 93.533C259.884 92.3867 258.369 91.1413 256.635 90.2855C255.628 89.7884 254.2 89.2162 253.153 89.9528L255.015 92.3658C258.031 90.0122 260.454 85.6491 258.248 81.9528C257.468 80.6466 256.128 79.6302 254.618 79.3549C252.901 79.0417 251.247 79.5518 249.946 80.7077C248.139 82.3144 247.563 84.8165 247.131 87.089C246.982 87.876 247.35 88.7844 248.204 88.9789C249.045 89.1705 249.83 88.7253 250.094 87.9058C251.149 84.6314 251.495 81.1186 251.067 77.7044C250.968 76.9099 250.432 76.1276 249.531 76.168C248.784 76.2014 247.887 76.8502 247.994 77.7044C248.401 80.9478 248.124 84.0078 247.131 87.089L250.094 87.9058C250.261 87.0276 250.43 86.1466 250.697 85.2921C250.755 85.1068 250.818 84.9229 250.885 84.741C250.894 84.7172 251.021 84.4043 250.963 84.5402C250.913 84.6568 251.025 84.4109 251.02 84.4215C251.119 84.2244 251.218 84.0278 251.331 83.8382C251.388 83.7434 251.447 83.6496 251.509 83.5578C251.529 83.5279 251.767 83.2112 251.643 83.3648C251.546 83.4854 251.81 83.1821 251.856 83.1337C251.968 83.017 252.089 82.9117 252.209 82.8028C252.28 82.738 252.43 82.6795 252.173 82.8293C252.237 82.7919 252.298 82.7427 252.361 82.703C252.485 82.6242 252.615 82.5584 252.745 82.4883C252.98 82.3602 252.716 82.4995 252.672 82.5146C252.738 82.4921 252.803 82.4658 252.87 82.4441C252.985 82.4067 253.103 82.3815 253.22 82.3497C253.584 82.2504 252.94 82.3464 253.314 82.3308C253.465 82.3245 253.614 82.3204 253.765 82.324C253.813 82.3252 253.866 82.3386 253.914 82.3345C254.112 82.3174 253.611 82.2581 253.801 82.3179C253.91 82.352 254.03 82.3622 254.141 82.3919C254.27 82.4264 254.393 82.4752 254.519 82.5149C254.482 82.5031 254.197 82.3552 254.427 82.478C254.501 82.5173 254.576 82.5524 254.649 82.5932C254.752 82.6506 254.848 82.7179 254.949 82.7781C255.169 82.9092 254.916 82.7475 254.882 82.7187C254.934 82.7628 254.987 82.805 255.038 82.8502C255.141 82.9414 255.239 83.0379 255.332 83.1391C255.365 83.175 255.397 83.226 255.435 83.2562C255.569 83.3636 255.271 83.0051 255.42 83.2356C255.498 83.3558 255.578 83.472 255.648 83.597C255.684 83.66 255.859 83.9917 255.764 83.8059C255.666 83.6129 255.772 83.8262 255.791 83.881C255.815 83.9527 255.84 84.0239 255.862 84.0964C255.913 84.2641 255.949 84.4341 255.986 84.6052C256.045 84.8716 255.981 84.3422 255.999 84.7384C256.006 84.8859 256.014 85.0327 256.012 85.1805C256.011 85.2408 255.973 85.7922 256.006 85.5213C255.978 85.7497 255.924 85.9783 255.864 86.2002C255.804 86.4234 255.731 86.6426 255.648 86.8584C255.66 86.8273 255.726 86.6846 255.653 86.8472C255.6 86.9651 255.543 87.0814 255.483 87.196C255.268 87.6112 255.016 88.0156 254.729 88.3854C254.773 88.3287 254.872 88.2193 254.674 88.4464C254.587 88.546 254.502 88.6476 254.414 88.746C254.254 88.9232 254.088 89.0952 253.918 89.2618C253.578 89.5935 253.216 89.901 252.842 90.1931C252.247 90.6576 252.295 91.6746 252.722 92.2104C253.164 92.766 254.068 93.0535 254.704 92.6062C254.895 92.4718 254.562 92.6548 254.504 92.6726C254.763 92.5934 254.276 92.6726 254.326 92.6861C254.365 92.6967 254.463 92.6962 254.503 92.6898C254.402 92.7058 254.135 92.604 254.425 92.6924C254.589 92.7424 254.749 92.7976 254.912 92.852C255.164 92.9362 254.624 92.711 254.871 92.837C254.985 92.8947 255.101 92.9462 255.214 93.0042C256.081 93.4485 256.895 93.9977 257.689 94.5601C258.357 95.0333 259.008 95.5289 259.66 96.0224C259.924 96.2216 260.193 96.4112 260.463 96.6018C260.711 96.7771 260.956 96.9562 261.201 97.1366C261.343 97.2415 261.172 97.1124 261.153 97.098C261.205 97.1378 261.256 97.178 261.306 97.2188C261.437 97.3254 261.568 97.4326 261.695 97.544C261.926 97.7462 262.149 97.9583 262.357 98.1839C262.453 98.2881 262.539 98.4048 262.638 98.5062C262.791 98.6632 262.504 98.3017 262.625 98.4878C262.67 98.5578 262.723 98.6238 262.77 98.6928C262.957 98.9659 263.124 99.252 263.273 99.5469C263.312 99.6221 263.512 100.055 263.421 99.8403C263.503 100.034 263.575 100.233 263.646 100.431C264.001 101.423 264.959 101.792 265.902 101.349C266.93 100.867 267.684 100.564 268.819 100.141C269.846 99.7584 270.883 99.4009 271.915 99.0322C273.953 98.3045 275.996 97.5299 277.882 96.4593C282.094 94.0688 285.033 90.0213 287.425 85.9062C288.801 83.5396 289.984 81.068 291.094 78.5673C291.349 77.9908 291.391 77.3858 290.973 76.8609C290.572 76.3567 289.986 76.1834 289.358 76.3103C287.071 76.7733 284.683 76.4565 282.336 75.6732C280.015 74.8984 277.769 73.6452 275.634 72.2521C271.632 69.6415 267.851 66.6996 263.477 64.7087C258.943 62.6445 254.086 61.7513 249.153 62.7502C245.359 63.5186 240.662 66.203 240.617 70.5905C240.592 72.969 242.114 75.0968 243.891 76.5417C245.602 77.9334 247.689 79.1174 249.897 79.4563C250.688 79.5778 251.588 79.2567 251.787 78.3832C251.954 77.65 251.564 76.6237 250.714 76.4933Z" fill="#393A45"/>
<path d="M293.585 100.094C296.374 102.018 299.087 104.542 301.371 107.352C301.501 107.511 301.628 107.672 301.756 107.832C301.947 108.071 301.841 107.939 301.799 107.885C301.878 107.986 301.955 108.089 302.032 108.191C302.326 108.58 302.612 108.974 302.891 109.374C303.391 110.088 303.868 110.819 304.321 111.564C305.28 113.143 306.133 114.786 306.87 116.48C306.911 116.574 306.952 116.668 306.992 116.763C306.966 116.7 306.899 116.534 307.016 116.821C307.094 117.011 307.171 117.201 307.247 117.392C307.426 117.845 307.597 118.301 307.759 118.761C308.059 119.606 308.331 120.462 308.573 121.326C308.822 122.214 309.04 123.111 309.226 124.015C309.309 124.416 309.385 124.819 309.455 125.223C309.495 125.45 309.532 125.678 309.567 125.906C309.587 126.032 309.605 126.159 309.624 126.286C309.667 126.564 309.621 126.244 309.642 126.411C309.874 128.178 310.104 130.077 309.891 131.856C309.923 131.592 309.839 132.106 309.818 132.197C309.794 132.294 309.769 132.391 309.74 132.487C309.748 132.46 309.584 132.913 309.665 132.722C309.732 132.564 309.604 132.84 309.586 132.872C309.539 132.959 309.488 133.043 309.436 133.126C309.3 133.341 309.672 132.912 309.357 133.229C309.264 133.323 309.174 133.417 309.073 133.503C308.87 133.675 309.344 133.361 308.942 133.592C308.85 133.645 308.762 133.703 308.67 133.755C308.484 133.86 308.291 133.952 308.097 134.039C308.285 133.954 308.042 134.062 308.019 134.071C307.919 134.11 307.82 134.149 307.72 134.188C307.422 134.303 307.123 134.416 306.825 134.53C301.849 136.431 296.872 138.332 291.896 140.233C291.122 140.529 290.588 141.268 290.823 142.123C291.027 142.865 291.934 143.494 292.713 143.196C297.347 141.426 301.981 139.655 306.615 137.885C308.72 137.081 311.28 136.439 312.339 134.226C313.232 132.358 313.07 130.176 312.903 128.169C312.261 120.436 309.395 112.907 304.732 106.702C302.036 103.114 298.833 99.991 295.136 97.4409C294.453 96.9695 293.431 97.3139 293.034 97.9921C292.588 98.7546 292.9 99.6216 293.585 100.094Z" fill="#393A45"/>
<path d="M205.734 183.891C212.36 190.524 220.44 195.626 229.248 198.828C231.683 199.714 234.173 200.443 236.701 201.018C237.339 201.163 238.115 200.929 238.436 200.312C241.656 194.11 244.877 187.909 248.098 181.708C249.018 179.936 249.938 178.164 250.858 176.392C251.241 175.656 251.048 174.724 250.307 174.29C249.617 173.887 248.589 174.102 248.205 174.841C244.984 181.043 241.764 187.244 238.543 193.445C237.623 195.217 236.703 196.989 235.782 198.761L237.517 198.055C233.129 197.057 228.845 195.579 224.941 193.721C222.9 192.75 220.911 191.668 218.987 190.483C218.048 189.904 217.124 189.301 216.217 188.674C215.764 188.361 215.314 188.041 214.869 187.716C214.442 187.404 213.86 186.966 213.597 186.76C211.601 185.193 209.7 183.513 207.906 181.718C207.32 181.131 206.32 181.131 205.733 181.718C205.144 182.307 205.145 183.302 205.734 183.891Z" fill="#393A45"/>
<path d="M312.971 130.123C313.105 129.998 313.242 129.876 313.385 129.76C313.141 129.957 313.59 129.62 313.638 129.588C313.916 129.404 314.205 129.237 314.502 129.084C314.675 128.995 314.852 128.914 315.028 128.83C315.454 128.626 314.762 128.926 315.206 128.753C315.579 128.607 315.956 128.47 316.337 128.347C317.701 127.907 319.103 127.608 320.495 127.279C324.069 126.435 327.61 125.726 331.207 125.377C332.005 125.299 332.784 124.726 332.744 123.84C332.71 123.075 332.064 122.221 331.207 122.304C327.255 122.688 323.404 123.442 319.543 124.347C316.484 125.065 313.169 125.729 310.798 127.95C310.192 128.518 310.224 129.55 310.798 130.123C311.402 130.727 312.363 130.692 312.971 130.123Z" fill="#393A45"/>
<path d="M322.346 126.964C323.273 128.314 324.094 129.731 324.818 131.2C325.552 132.689 326.072 133.957 326.649 135.513C327.82 138.672 328.834 141.883 329.614 145.16C330.077 147.106 330.497 149.061 330.984 151.001L332.466 149.057C329.237 149.134 326.271 151.121 324.299 153.576C323.268 154.861 322.427 156.263 321.91 157.835C321.654 158.614 321.534 159.42 321.461 160.236C321.442 160.448 321.427 160.661 321.407 160.872C321.399 160.952 321.391 161.031 321.382 161.11C321.353 161.375 321.42 160.912 321.373 161.171C321.341 161.349 321.306 161.527 321.255 161.701C321.227 161.793 321.198 161.9 321.157 161.99C321.258 161.769 321.094 162.061 321.071 162.098C320.94 162.308 321.199 161.971 321.032 162.147C320.963 162.219 320.892 162.29 320.819 162.358C320.69 162.478 320.554 162.59 320.423 162.706C320.054 163.031 319.714 163.398 319.471 163.828C319.016 164.637 318.943 165.612 319.168 166.502C319.648 168.406 321.386 169.614 323.295 169.692C325.29 169.773 327.108 168.651 328.452 167.27C329.054 166.651 329.575 165.964 330.136 165.309C330.345 165.066 330.569 164.839 330.81 164.628C330.873 164.574 330.938 164.522 331.002 164.468C330.959 164.504 330.753 164.644 330.985 164.483C331.119 164.389 331.252 164.294 331.39 164.206C332.598 163.428 333.968 162.957 335.212 162.245C336.679 161.405 337.917 160.204 338.603 158.642C338.936 157.883 338.825 156.992 338.052 156.54C337.4 156.158 336.285 156.327 335.949 157.091C335.817 157.392 335.671 157.684 335.495 157.963C335.425 158.075 335.35 158.182 335.274 158.29C335.457 158.031 335.174 158.403 335.112 158.47C334.918 158.682 334.706 158.87 334.489 159.058C334.286 159.235 334.682 158.933 334.369 159.145C334.237 159.234 334.105 159.324 333.969 159.408C333.011 160.003 331.957 160.418 330.953 160.925C329.826 161.494 328.742 162.217 327.921 163.187C327.414 163.785 326.934 164.406 326.395 164.976C326.127 165.259 325.846 165.529 325.548 165.78C325.379 165.922 325.513 165.824 325.327 165.944C325.144 166.061 324.963 166.177 324.771 166.278C324.267 166.543 323.738 166.706 323.059 166.602C323.287 166.637 322.844 166.525 322.773 166.502C322.529 166.42 322.932 166.599 322.746 166.486C322.692 166.453 322.636 166.42 322.581 166.389C322.492 166.34 322.424 166.216 322.588 166.398C322.546 166.351 322.492 166.313 322.449 166.266C322.406 166.218 322.362 166.172 322.319 166.125C322.46 166.282 322.367 166.197 322.297 166.073C322.239 165.972 322.13 165.629 322.204 165.925C322.175 165.809 322.143 165.677 322.103 165.564C322.192 165.817 322.107 165.727 322.113 165.605C322.116 165.554 322.125 165.472 322.115 165.422C322.084 165.273 322.11 165.484 322.095 165.529C322.096 165.524 322.204 165.159 322.126 165.364C322.046 165.574 322.343 165.085 322.164 165.294C322.277 165.162 322.409 165.044 322.539 164.929C322.802 164.695 323.074 164.475 323.303 164.207C323.906 163.506 324.242 162.664 324.372 161.755C324.433 161.329 324.477 160.903 324.513 160.475C324.529 160.29 324.546 160.106 324.563 159.921C324.566 159.893 324.605 159.637 324.571 159.844C324.535 160.068 324.598 159.713 324.606 159.67C324.66 159.391 324.73 159.115 324.813 158.843C324.859 158.693 324.908 158.544 324.962 158.396C324.996 158.302 325.176 157.87 325.062 158.126C325.333 157.519 325.654 156.936 326.022 156.382C326.13 156.22 326.243 156.063 326.355 155.904C326.379 155.871 326.529 155.672 326.381 155.864C326.441 155.787 326.503 155.711 326.565 155.635C326.814 155.331 327.077 155.039 327.352 154.758C327.627 154.479 327.913 154.212 328.213 153.959C328.273 153.908 328.678 153.593 328.471 153.746C328.625 153.632 328.781 153.52 328.941 153.413C329.255 153.202 329.579 153.007 329.914 152.832C330.058 152.757 330.205 152.688 330.351 152.618C330.569 152.513 330.141 152.698 330.363 152.609C330.448 152.576 330.532 152.543 330.618 152.512C330.953 152.389 331.296 152.289 331.645 152.215C331.71 152.201 331.775 152.19 331.839 152.176C332.235 152.093 331.656 152.173 331.884 152.166C332.078 152.16 332.271 152.134 332.466 152.13C333.478 152.105 334.194 151.169 333.947 150.185C333.083 146.739 332.433 143.236 331.365 139.844C330.352 136.627 329.245 133.419 327.814 130.361C327.008 128.639 326.076 126.981 325 125.413C324.531 124.73 323.651 124.421 322.898 124.862C322.221 125.258 321.875 126.276 322.346 126.964Z" fill="#393A45"/>
<path d="M231.003 197.217C228.631 201.907 225.943 206.5 222.457 210.294C219.002 214.055 214.88 216.903 210.002 218.179C208.735 218.511 207.68 218.694 206.547 218.783C205.308 218.879 204.074 218.849 202.838 218.723C202.32 218.67 203.123 218.775 202.609 218.693C202.45 218.668 202.291 218.643 202.133 218.614C201.869 218.567 201.606 218.513 201.345 218.454C200.716 218.31 200.095 218.131 199.486 217.915C198.525 217.575 197.503 217.069 196.494 216.428C196.24 216.267 195.99 216.099 195.744 215.924C195.662 215.866 195.581 215.807 195.5 215.748C195.494 215.744 195.103 215.444 195.333 215.624C194.86 215.253 194.407 214.857 193.972 214.443C193.571 214.061 193.187 213.663 192.818 213.251C192.616 213.025 192.418 212.796 192.225 212.562C192.161 212.484 192.097 212.405 192.033 212.326C191.97 212.247 191.907 212.168 191.844 212.088C191.929 212.198 191.916 212.181 191.806 212.036C190.387 210.123 189.223 208.046 188.269 205.865C188.27 205.868 188.066 205.396 188.177 205.656C188.115 205.512 188.056 205.367 187.997 205.221C187.899 204.979 187.804 204.736 187.71 204.492C187.486 203.908 187.274 203.319 187.075 202.726C186.668 201.518 186.313 200.292 185.992 199.058C185.227 196.124 184.641 193.136 184.244 190.13C183.467 184.247 183.321 178.137 183.62 172.16C183.931 165.953 184.974 159.817 185.601 153.64C185.757 152.103 185.888 150.563 185.974 149.02C186.057 147.535 186.123 146.06 185.761 144.6C185.391 143.109 184.574 141.914 183.617 140.742C182.828 139.776 181.813 138.734 181.137 137.84C180.34 136.784 179.648 135.595 178.989 134.448C178.322 133.284 177.991 132.42 178.081 131.146C178.164 129.965 178.475 128.413 178.661 127.275C178.881 125.925 179.223 124.595 179.68 123.306C180.097 122.133 180.614 121.025 181.282 119.873C181.951 118.718 182.571 117.658 183.513 116.85C183.722 116.671 183.248 116.987 183.657 116.744C183.647 116.75 184.108 116.507 183.869 116.608C183.922 116.585 184.384 116.491 183.997 116.535C184.097 116.524 184.23 116.553 184.325 116.529L184.39 116.532C184.2 116.503 184.192 116.507 184.369 116.543L184.494 116.58C184.329 116.501 184.324 116.5 184.48 116.578L184.588 116.644C184.447 116.525 184.439 116.524 184.566 116.639C184.459 116.483 184.452 116.478 184.545 116.623C184.487 116.462 184.474 116.436 184.507 116.545C184.59 116.543 184.462 116.659 184.516 116.545C184.44 116.705 184.416 116.935 184.361 117.106C184.247 117.46 184.118 117.809 183.996 118.16C183.738 118.901 183.48 119.642 183.223 120.383C182.708 121.866 182.192 123.349 181.677 124.831L184.64 125.648C185.079 124.099 185.645 122.839 186.555 121.448C187.002 120.764 187.344 120.32 187.908 119.703C188.17 119.416 188.443 119.102 188.762 118.875C188.679 118.95 188.712 118.933 188.862 118.824C188.956 118.766 189.054 118.713 189.154 118.665C188.906 118.761 189.588 118.616 189.312 118.637C189.195 118.654 189.215 118.658 189.372 118.65C189.554 118.662 189.549 118.661 189.358 118.646C189.527 118.7 189.528 118.691 189.362 118.62C189.421 118.646 189.477 118.678 189.53 118.714C189.679 118.912 189.234 118.295 189.455 118.661C189.369 118.519 189.469 118.453 189.402 118.562C189.304 118.724 189.281 119.001 189.208 119.183C189.198 119.21 189.065 119.511 189.013 119.63C188.82 120.071 188.627 120.513 188.434 120.954C187.647 122.751 186.861 124.548 186.075 126.345L188.728 127.896C189.073 127.101 189.389 126.296 189.713 125.493C189.743 125.419 189.773 125.344 189.803 125.27C189.814 125.244 189.94 124.94 189.88 125.083C189.875 125.096 190.008 124.79 190.059 124.677C190.223 124.313 190.398 123.953 190.589 123.602C190.779 123.253 190.991 122.922 191.212 122.592C191.21 122.596 191.361 122.387 191.279 122.495C191.186 122.618 191.386 122.366 191.404 122.344C191.54 122.184 191.682 122.03 191.832 121.883C191.96 121.757 192.209 121.592 191.913 121.78C192.008 121.72 192.1 121.654 192.198 121.599C192.385 121.494 192.489 121.492 192.233 121.564C192.361 121.528 192.484 121.474 192.614 121.439C192.687 121.419 192.938 121.325 193.01 121.353C193.029 121.361 192.67 121.368 192.853 121.376C192.919 121.378 192.988 121.364 193.055 121.361C193.172 121.355 193.288 121.36 193.405 121.36C193.453 121.36 193.507 121.374 193.554 121.369C193.734 121.35 193.219 121.29 193.484 121.359C193.592 121.387 193.701 121.404 193.808 121.436C194.206 121.554 193.824 121.432 193.827 121.427C193.838 121.41 194.069 121.569 194.096 121.578C194.262 121.636 193.887 121.354 193.99 121.494C194.002 121.51 194.146 121.639 194.141 121.642C194.189 121.616 193.841 121.35 194.116 121.641C194.223 121.754 194.011 121.486 194.048 121.47C194.049 121.47 194.096 121.618 194.098 121.64C194.13 121.889 194.123 121.274 194.088 121.654C194.057 121.999 194.182 121.421 194.073 121.781C193.894 122.373 193.464 123.033 193.08 123.508C191.652 125.279 190.25 127.09 190.744 129.508C191.038 130.947 193.453 131 193.707 129.508C193.783 129.064 193.89 128.629 194.04 128.204C194.029 128.235 194.205 127.78 194.125 127.97C194.046 128.16 194.246 127.715 194.232 127.744C194.342 127.52 194.462 127.301 194.592 127.089C194.709 126.897 194.835 126.71 194.967 126.528C195.131 126.303 194.738 126.783 195.049 126.426C195.115 126.35 195.178 126.273 195.245 126.199C195.395 126.031 195.552 125.87 195.715 125.716C195.806 125.63 195.898 125.546 195.993 125.464C196.032 125.43 196.362 125.169 196.149 125.329C196.507 125.06 196.892 124.824 197.292 124.622C197.381 124.577 197.471 124.534 197.561 124.492C197.344 124.594 197.567 124.488 197.608 124.473C197.854 124.382 198.101 124.294 198.356 124.232C198.459 124.208 198.563 124.187 198.668 124.17C198.599 124.181 198.361 124.181 198.646 124.181C198.826 124.181 199.058 124.212 199.231 124.184C199.435 124.151 198.918 124.096 199.266 124.19C199.347 124.212 199.428 124.226 199.509 124.249C199.587 124.272 199.664 124.297 199.74 124.327C199.4 124.196 199.714 124.341 199.793 124.384C199.515 124.234 199.716 124.29 199.787 124.395C199.915 124.585 199.553 124.11 199.781 124.397C199.649 124.23 199.835 124.235 199.759 124.352C199.812 124.27 199.769 124.58 199.765 124.416C199.76 124.237 199.74 124.574 199.727 124.627C199.69 124.774 199.643 124.918 199.595 125.062C199.512 125.312 199.419 125.558 199.323 125.803C199.284 125.9 199.245 125.997 199.205 126.093C199.294 125.88 199.16 126.194 199.139 126.242C199.039 126.468 198.937 126.694 198.834 126.919C198.598 127.434 198.356 127.947 198.123 128.465C197.244 130.418 196.325 132.573 196.519 134.767C196.705 136.863 197.527 138.928 198.701 140.665C199.27 141.506 199.92 142.319 200.708 142.965C201.133 143.313 201.584 143.623 202.032 143.938C202.105 143.99 202.506 144.288 202.359 144.17C202.582 144.348 202.798 144.543 202.982 144.76C203.145 144.951 202.861 144.493 203.067 144.888C203.122 144.993 203.188 145.088 203.234 145.198C203.173 145.052 203.266 145.324 203.266 145.323C203.302 145.466 203.343 145.606 203.373 145.751C203.45 146.12 203.483 146.731 203.519 147.261C203.606 148.568 203.693 149.874 203.78 151.181C203.952 153.76 204.125 156.338 204.297 158.917C204.685 164.728 205.073 170.538 205.461 176.349C205.516 177.177 206.127 177.885 206.997 177.885C207.786 177.885 208.589 177.181 208.534 176.349C208.166 170.848 207.799 165.346 207.432 159.845C207.253 157.163 207.074 154.482 206.894 151.8C206.803 150.424 206.711 149.049 206.619 147.674C206.528 146.308 206.499 144.902 205.887 143.648C205.339 142.522 204.317 141.8 203.32 141.102C203.233 141.041 203.146 140.981 203.059 140.919C203.091 140.941 202.674 140.63 202.842 140.762C202.998 140.885 202.65 140.596 202.671 140.614C202.6 140.552 202.531 140.488 202.463 140.424C202.287 140.256 202.119 140.08 201.958 139.898C201.875 139.804 201.794 139.708 201.714 139.611C201.649 139.529 201.65 139.533 201.718 139.621C201.655 139.539 201.594 139.456 201.533 139.371C201.256 138.984 201.003 138.58 200.773 138.164C200.643 137.93 200.52 137.692 200.406 137.451C200.36 137.354 200.316 137.257 200.272 137.16C200.197 136.989 200.186 136.965 200.24 137.088C200.21 137.015 200.182 136.941 200.154 136.868C199.982 136.414 199.835 135.951 199.724 135.479C199.669 135.245 199.622 135.008 199.587 134.77C199.597 134.837 199.603 135.059 199.592 134.767C199.586 134.612 199.571 134.459 199.569 134.304C199.563 133.646 199.583 133.579 199.72 132.983C199.844 132.442 200.014 131.912 200.206 131.391C200.419 130.813 200.53 130.563 200.777 130.015C201.01 129.498 201.251 128.985 201.487 128.469C201.966 127.423 202.531 126.318 202.749 125.179C203.009 123.813 202.541 122.486 201.344 121.731C199.293 120.437 196.538 121.29 194.719 122.588C192.69 124.035 191.166 126.208 190.744 128.691H193.707C193.629 128.31 193.69 128.544 193.692 128.595C193.688 128.486 193.687 128.369 193.698 128.26C193.678 128.463 193.714 128.195 193.721 128.168C193.751 128.058 193.781 127.95 193.814 127.84C193.903 127.536 194.211 127.046 194.471 126.664C194.888 126.049 195.67 125.219 196.168 124.472C197.159 122.988 197.644 121.002 196.368 119.533C195.425 118.449 193.859 118.164 192.497 118.348C190.776 118.58 189.596 119.6 188.605 120.978C188.03 121.777 187.599 122.666 187.212 123.568C186.991 124.082 186.779 124.601 186.572 125.121C186.474 125.366 186.377 125.611 186.278 125.855C186.239 125.952 186.2 126.048 186.16 126.144C186.041 126.435 186.21 126.033 186.075 126.345C185.745 127.105 185.85 127.993 186.626 128.447C187.277 128.828 188.394 128.66 188.728 127.896C189.473 126.193 190.218 124.491 190.963 122.789C191.356 121.89 191.77 120.996 192.136 120.086C192.517 119.138 192.628 118.034 192.108 117.111C191.174 115.449 189.005 115.254 187.455 116.087C186.015 116.861 184.886 118.425 183.997 119.752C182.961 121.301 182.184 123.039 181.677 124.831C181.451 125.629 181.954 126.503 182.75 126.721C183.596 126.954 184.367 126.435 184.64 125.648C185.2 124.037 185.76 122.425 186.32 120.814C186.566 120.105 186.813 119.395 187.059 118.686C187.383 117.755 187.746 116.789 187.487 115.789C187.107 114.324 185.603 113.397 184.128 113.454C182.554 113.514 181.322 114.532 180.393 115.722C178.549 118.083 177.178 120.805 176.332 123.677C176.13 124.362 175.96 125.056 175.823 125.756C175.69 126.44 175.576 127.39 175.499 127.852C175.251 129.325 174.862 130.855 175.025 132.357C175.193 133.906 175.894 135.293 176.698 136.606C177.468 137.864 178.229 139.111 179.159 140.259C180.03 141.333 181.115 142.421 181.858 143.453C182.655 144.56 182.956 145.618 182.979 146.894C183.006 148.469 182.849 150.064 182.716 151.632C182.58 153.242 182.407 154.848 182.218 156.452C181.838 159.67 181.393 162.881 181.045 166.104C180.361 172.45 180.203 178.858 180.673 185.226C181.129 191.408 182.13 197.655 184.112 203.543C185.726 208.339 188.093 213.086 191.799 216.615C195.727 220.358 200.968 222.25 206.385 221.868C211.962 221.474 217.153 219.103 221.416 215.545C225.707 211.961 228.99 207.281 231.709 202.436C232.387 201.228 233.031 200.003 233.656 198.768C234.031 198.028 233.851 197.102 233.105 196.666C232.421 196.266 231.379 196.473 231.003 197.217Z" fill="#393A45"/>
<path d="M277.556 123.218C281.325 127.26 284.21 131.984 286.999 136.86C289.977 142.065 292.919 147.293 295.611 152.652C296.969 155.356 298.263 158.092 299.458 160.871C300.542 163.394 301.532 166.143 302.511 168.788C304.515 174.206 306.854 179.505 309.517 184.632C312.479 190.336 315.848 195.825 319.588 201.052L319.828 199.19C318.674 200.148 317.772 200.842 316.529 201.72C315.316 202.577 314.069 203.387 312.795 204.151C310.271 205.663 307.636 206.999 304.925 208.141C305.082 208.075 304.729 208.222 304.681 208.241C304.528 208.305 304.375 208.367 304.222 208.429C303.864 208.574 303.505 208.715 303.144 208.854C302.448 209.121 301.748 209.377 301.044 209.622C299.659 210.103 298.26 210.542 296.849 210.938C293.99 211.741 291.084 212.371 288.153 212.839C287.796 212.896 287.439 212.951 287.082 213.003C286.917 213.027 286.752 213.051 286.587 213.074C286.504 213.085 286.422 213.097 286.339 213.108C286.231 213.123 286.229 213.123 286.335 213.108L286.169 213.13C285.453 213.221 284.735 213.306 284.017 213.38C282.526 213.533 281.03 213.646 279.533 213.719C276.381 213.873 273.222 213.849 270.071 213.676C263.399 213.31 256.948 212.281 250.413 210.749C243.886 209.218 237.475 207.22 231.173 204.939C230.376 204.65 229.58 204.356 228.785 204.058C228.031 203.776 227.068 204.372 226.895 205.132C226.696 206.004 227.161 206.719 227.968 207.021C234.363 209.415 240.863 211.54 247.488 213.2C254.128 214.864 260.9 216.058 267.728 216.592C274.126 217.093 280.546 216.961 286.908 216.104C292.84 215.305 298.69 213.872 304.27 211.697C309.953 209.482 315.332 206.561 320.164 202.83C320.785 202.351 321.398 201.864 322.001 201.363C322.48 200.964 322.607 200.013 322.241 199.501C315.608 190.228 310.089 180.027 306.045 169.488C304.992 166.743 304.046 163.961 302.922 161.242C301.766 158.447 300.518 155.692 299.192 152.973C296.531 147.518 293.584 142.208 290.581 136.936C287.399 131.349 284.138 125.774 279.729 121.045C279.163 120.438 278.129 120.473 277.556 121.045C276.951 121.65 276.989 122.609 277.556 123.218Z" fill="#393A45"/>
<path d="M204.808 187.174C211.424 171.509 218.098 155.698 227.666 141.555C232.112 134.982 237.186 128.821 243.003 123.411C245.861 120.752 248.881 118.338 252.201 116.277C255.508 114.224 259.001 112.488 262.571 110.943C266.12 109.406 269.757 108.074 273.4 106.779C277.343 105.376 281.291 103.99 285.307 102.809C293.628 100.363 302.164 98.6073 310.784 97.6374C318.725 96.7438 327.403 96.1425 334.933 99.3741C340.766 101.877 344.902 106.864 347.553 112.506C350.492 118.757 351.607 125.734 352.057 132.572C352.62 141.114 352.009 149.727 350.324 158.117C349.903 160.215 349.414 162.298 348.866 164.366C348.358 166.279 351.322 167.095 351.829 165.183C354.111 156.57 355.335 147.647 355.332 138.733C355.329 131.051 354.613 123.106 352.147 115.788C350.021 109.476 346.543 103.534 341.165 99.4704C334.741 94.6165 326.297 93.6395 318.477 93.9435C309.646 94.2868 300.77 95.755 292.183 97.8004C283.868 99.781 275.773 102.558 267.78 105.567C260.299 108.383 252.879 111.658 246.456 116.486C239.822 121.473 234.132 127.717 229.112 134.295C218.628 148.036 211.409 163.87 204.67 179.686C203.828 181.664 202.991 183.644 202.155 185.623C201.832 186.387 201.925 187.269 202.706 187.725C203.35 188.102 204.484 187.943 204.808 187.174Z" fill="#393A45"/>
<path d="M239.573 89.5349C240.15 92.8059 241.413 96.023 243.684 98.4955C245.467 100.438 247.918 101.807 250.524 102.241C255.806 103.119 261.338 100.837 264.723 96.7273C266.536 94.526 267.78 91.9053 268.18 89.0706C268.668 85.6187 268.009 82.2351 266.621 79.0607C265.156 75.7121 262.701 72.5393 259.302 71C256.388 69.6801 253.098 69.5138 250.062 70.5464C243.397 72.813 239.143 79.5413 239.263 86.4792C239.281 87.504 239.401 88.5252 239.573 89.5349C239.712 90.3534 240.72 90.8121 241.462 90.608C242.329 90.3699 242.675 89.539 242.536 88.7181C242.515 88.5955 242.494 88.4729 242.475 88.35C242.465 88.2819 242.417 87.8671 242.463 88.2709C242.44 88.0698 242.417 87.8689 242.399 87.6672C242.361 87.2332 242.339 86.7977 242.334 86.362C242.33 85.9381 242.342 85.514 242.371 85.091C242.384 84.9022 242.4 84.7136 242.42 84.5254C242.431 84.4134 242.446 84.3017 242.458 84.1899C242.409 84.6244 242.459 84.1937 242.474 84.1005C242.599 83.3102 242.785 82.5297 243.031 81.7682C243.146 81.4135 243.278 81.0661 243.413 80.7191C243.547 80.3762 243.27 81.0323 243.422 80.6982C243.451 80.6346 243.479 80.5704 243.508 80.5067C243.608 80.2853 243.715 80.0663 243.826 79.8499C244.17 79.1813 244.564 78.5385 245.004 77.9287C245.072 77.8352 245.411 77.4061 245.129 77.7555C245.234 77.6253 245.338 77.4939 245.446 77.3657C245.702 77.0608 245.971 76.7662 246.251 76.4829C246.482 76.2494 246.721 76.0236 246.967 75.8062C247.102 75.6875 247.239 75.5714 247.378 75.4578C247.44 75.4064 247.505 75.3565 247.567 75.3051C247.775 75.1352 247.292 75.5005 247.643 75.2508C248.217 74.8418 248.805 74.4601 249.431 74.1335C249.701 73.9924 249.991 73.8124 250.284 73.7262C249.812 73.865 250.41 73.6789 250.526 73.6352C250.701 73.5698 250.878 73.5082 251.056 73.4507C251.654 73.2573 252.402 72.9813 253.037 72.9903C252.534 72.9832 253.05 72.9924 253.177 72.9806C253.344 72.965 253.512 72.9533 253.68 72.9453C254.032 72.9287 254.384 72.9287 254.735 72.9463C254.888 72.9539 255.041 72.9649 255.194 72.9791C255.285 72.9877 255.377 73.0002 255.468 73.0085C255.791 73.0375 255.167 72.9525 255.38 72.9971C255.729 73.0699 256.079 73.1209 256.425 73.2103C256.743 73.2926 257.058 73.3902 257.367 73.5023C257.489 73.5465 258.033 73.6848 257.576 73.5757C257.749 73.6171 257.942 73.7405 258.101 73.8193C258.424 73.9803 258.739 74.1577 259.045 74.3499C259.187 74.4393 259.328 74.5319 259.466 74.6276C259.555 74.6895 260.081 75.0996 259.733 74.8151C260.351 75.32 260.93 75.8613 261.455 76.4642C261.581 76.6087 261.701 76.7581 261.823 76.9051C262.077 77.2085 261.635 76.6431 261.871 76.965C261.942 77.0613 262.014 77.1567 262.083 77.2538C262.348 77.6224 262.596 78.0025 262.829 78.3915C263.076 78.8036 263.306 79.2257 263.52 79.6556C263.622 79.8597 263.721 80.0654 263.816 80.2727C263.867 80.3853 263.916 80.4989 263.967 80.6117C264.13 80.9705 263.846 80.3054 263.992 80.6676C264.292 81.4143 264.56 82.1712 264.77 82.9485C264.87 83.3154 264.957 83.6855 265.032 84.0582C265.065 84.2235 265.096 84.3892 265.124 84.5554C265.146 84.6835 265.286 85.3237 265.171 84.8351C265.326 85.4923 265.299 86.2626 265.29 86.9339C265.285 87.2712 265.269 87.6083 265.241 87.9445C265.228 88.0949 265.211 88.2447 265.196 88.3948C265.168 88.6627 265.079 88.5134 265.205 88.3425C265.167 88.3932 265.176 88.5387 265.165 88.607C265.06 89.2545 264.909 89.8946 264.714 90.5207C264.624 90.8066 264.526 91.0896 264.418 91.369C264.388 91.4483 264.354 91.5265 264.324 91.6059C264.235 91.8429 264.379 91.4857 264.381 91.4734C264.353 91.636 264.226 91.8236 264.155 91.9727C263.892 92.5247 263.592 93.059 263.259 93.5718C263.101 93.8139 262.937 94.0512 262.765 94.2834C262.72 94.3444 262.673 94.4297 262.616 94.4803C262.864 94.2587 262.785 94.2675 262.705 94.3634C262.582 94.5098 262.464 94.6601 262.339 94.8049C261.949 95.2568 261.532 95.6846 261.09 96.0855C260.89 96.2665 260.686 96.4421 260.476 96.612C260.44 96.6419 260.333 96.7575 260.287 96.7629C260.432 96.7459 260.568 96.5518 260.375 96.6946C260.235 96.7983 260.095 96.902 259.953 97.002C259.473 97.3383 258.973 97.6463 258.457 97.9234C258.225 98.0484 257.988 98.1672 257.749 98.2795C257.697 98.3038 257.324 98.4317 257.317 98.4737C257.318 98.4659 257.696 98.3211 257.466 98.4104C257.368 98.4483 257.271 98.489 257.173 98.5267C256.638 98.7325 256.091 98.9062 255.535 99.0447C255.284 99.1072 255.032 99.1625 254.778 99.2104C254.626 99.239 254.474 99.2632 254.322 99.2882C254.278 99.2953 254.213 99.2959 254.169 99.3105C254.611 99.1627 254.366 99.2847 254.196 99.3034C253.639 99.3646 253.078 99.3892 252.518 99.3741C252.252 99.367 251.987 99.3509 251.722 99.3257C251.555 99.3099 251.132 99.1768 251.641 99.3235C251.5 99.2829 251.336 99.2779 251.191 99.2519C250.643 99.153 250.102 99.0129 249.576 98.8313C249.455 98.7898 249.336 98.7461 249.217 98.7003C249.167 98.681 249.056 98.6126 249.004 98.6153C249.225 98.6039 249.314 98.7538 249.089 98.6494C248.831 98.53 248.576 98.4084 248.327 98.2723C248.075 98.1345 247.829 97.9863 247.589 97.8283C247.478 97.7557 247.369 97.6809 247.262 97.6041C247.197 97.5577 247.134 97.5087 247.068 97.4627C246.846 97.3063 247.348 97.6952 247.125 97.5065C246.659 97.1131 246.209 96.7128 245.799 96.2599C245.693 96.1432 245.59 96.0243 245.489 95.9034C245.403 95.7996 245.024 95.4433 245.375 95.7698C245.147 95.5573 244.976 95.2201 244.808 94.9586C244.428 94.3685 244.094 93.7488 243.803 93.11C243.762 93.0185 243.722 92.9258 243.681 92.8341C243.861 93.2315 243.711 92.9056 243.678 92.8243C243.613 92.6634 243.551 92.5015 243.491 92.3386C243.354 91.9675 243.229 91.5917 243.116 91.2125C242.872 90.3934 242.684 89.5595 242.536 88.7181C242.391 87.9004 241.392 87.4399 240.646 87.6449C239.783 87.882 239.428 88.7148 239.573 89.5349Z" fill="#393A45"/>
<path d="M228.863 224.446C228.87 230.33 232.417 235.961 237.554 238.765C238.987 239.547 240.547 240.123 242.157 240.407C242.946 240.546 243.851 240.195 244.047 239.334C244.217 238.585 243.82 237.593 242.974 237.444C242.347 237.333 241.73 237.184 241.124 236.987C240.834 236.893 240.548 236.787 240.264 236.676C239.984 236.567 240.183 236.643 240.241 236.668C240.177 236.64 240.113 236.611 240.049 236.582C239.878 236.505 239.709 236.424 239.541 236.34C238.974 236.055 238.427 235.734 237.902 235.378C237.785 235.299 237.669 235.218 237.555 235.136C237.478 235.081 237.403 235.025 237.327 234.969C237.317 234.962 237.132 234.82 237.258 234.918C237.35 234.99 237.079 234.771 237.028 234.729C236.883 234.609 236.74 234.486 236.599 234.361C236.124 233.937 235.675 233.484 235.254 233.006C235.145 232.882 235.038 232.756 234.933 232.629C234.891 232.577 234.674 232.306 234.745 232.397C234.852 232.535 234.674 232.301 234.651 232.27C234.609 232.213 234.567 232.156 234.526 232.099C234.416 231.946 234.309 231.79 234.204 231.633C233.852 231.104 233.532 230.553 233.248 229.984C233.185 229.858 233.124 229.731 233.064 229.603C233.031 229.532 232.858 229.139 232.963 229.389C232.836 229.086 232.721 228.778 232.616 228.467C232.39 227.8 232.213 227.117 232.09 226.425C232.076 226.348 232.001 225.826 232.039 226.137C232.016 225.95 231.996 225.763 231.98 225.576C231.95 225.2 231.937 224.823 231.936 224.446C231.935 223.642 231.23 222.872 230.4 222.909C229.568 222.946 228.862 223.584 228.863 224.446Z" fill="#393A45"/>
<path d="M147.56 99.2578C150.416 97.9137 153.272 96.5696 156.128 95.2256C156.858 94.8824 157.101 93.778 156.679 93.1235C156.196 92.3731 155.357 92.2052 154.577 92.5723C151.721 93.9164 148.865 95.2604 146.009 96.6045C145.28 96.9477 145.036 98.0521 145.458 98.7066C145.941 99.457 146.78 99.6249 147.56 99.2578Z" fill="#6C6D75"/>
<path d="M139.173 115.626C140.662 118.72 142.534 121.595 144.705 124.253C145.216 124.878 146.355 124.823 146.878 124.253C147.488 123.589 147.423 122.747 146.878 122.08C146.752 121.926 146.626 121.771 146.502 121.614C146.439 121.536 146.378 121.458 146.316 121.379C146.263 121.312 146.182 121.206 146.281 121.335C146.039 121.018 145.8 120.698 145.567 120.374C145.085 119.706 144.623 119.024 144.182 118.329C143.314 116.958 142.529 115.537 141.826 114.075C141.476 113.349 140.382 113.099 139.724 113.524C138.978 114.004 138.799 114.849 139.173 115.626Z" fill="#6C6D75"/>
<path d="M131.205 115.763C131.625 117.023 132.045 118.283 132.465 119.543C132.592 119.922 132.82 120.255 133.172 120.461C133.501 120.654 133.986 120.736 134.355 120.616C134.727 120.496 135.086 120.265 135.274 119.91C135.461 119.555 135.56 119.119 135.429 118.726C135.008 117.466 134.588 116.206 134.168 114.946C134.042 114.567 133.814 114.233 133.462 114.028C133.133 113.835 132.648 113.753 132.278 113.873C131.907 113.993 131.548 114.223 131.36 114.579C131.173 114.934 131.074 115.37 131.205 115.763Z" fill="#6C6D75"/>
<path d="M139.209 98.1217C139.545 97.1976 139.881 96.2736 140.217 95.3495C140.347 94.9926 140.248 94.4833 140.062 94.1656C139.876 93.847 139.51 93.543 139.144 93.4596C138.751 93.37 138.309 93.3894 137.96 93.6144L137.649 93.8547C137.459 94.0464 137.327 94.2724 137.254 94.5326C136.918 95.4567 136.582 96.3808 136.246 97.3048C136.116 97.6618 136.215 98.171 136.401 98.4887C136.587 98.8074 136.953 99.1113 137.319 99.1948C137.712 99.2844 138.154 99.265 138.503 99.0399L138.814 98.7996C139.004 98.6079 139.136 98.382 139.209 98.1217Z" fill="#6C6D75"/>
<path d="M319.64 65.6097C320.908 70.3695 325.594 73.8501 330.461 74.0506C335.458 74.2565 339.217 70.4994 342.093 66.8767C342.564 66.2831 343.026 65.6824 343.488 65.0822C343.587 64.9546 343.685 64.827 343.783 64.6994C343.793 64.6865 343.933 64.5062 343.831 64.6373C343.732 64.7655 343.904 64.5438 343.921 64.522C344.114 64.2722 344.309 64.0229 344.505 63.775C345.26 62.8222 346.039 61.8869 346.904 61.0318L344.731 58.859C339.745 63.7975 337.992 71.5655 339.987 78.2475C340.977 81.5628 342.899 84.5843 345.567 86.8001C348.207 88.993 351.398 90.5108 354.782 91.1169C358.703 91.8193 362.686 91.4024 366.315 89.7321L364.764 87.0789C362.791 88.0155 361.106 89.7351 359.695 91.3647C357.981 93.3446 356.465 95.5358 355.521 97.9908C355.138 98.986 354.862 100.097 354.918 101.17C354.98 102.381 355.402 103.556 356.027 104.587C357.379 106.821 359.549 108.536 361.777 109.836C364.151 111.221 366.878 112.342 369.648 112.513L369.24 109.495C364.299 110.561 360.22 114.248 358.449 118.944C358.165 119.697 358.764 120.661 359.522 120.834C360.396 121.033 361.108 120.568 361.412 119.761C361.464 119.623 361.516 119.486 361.573 119.35C361.489 119.55 361.584 119.33 361.623 119.245C361.736 119.001 361.856 118.76 361.984 118.523C362.239 118.049 362.525 117.591 362.836 117.152C362.907 117.052 362.98 116.953 363.053 116.856C363.149 116.728 362.958 116.966 363.13 116.761C363.303 116.555 363.476 116.349 363.658 116.15C364.023 115.753 364.411 115.377 364.819 115.025C364.912 114.945 365.006 114.866 365.101 114.788C365.109 114.782 365.478 114.499 365.253 114.666C365.45 114.52 365.649 114.378 365.853 114.242C366.302 113.943 366.767 113.67 367.248 113.426C367.466 113.315 367.687 113.211 367.911 113.112C367.648 113.229 368.033 113.064 368.087 113.043C368.224 112.99 368.362 112.939 368.5 112.891C369.01 112.713 369.53 112.572 370.057 112.458C370.804 112.297 371.253 111.486 371.157 110.772C371.052 109.991 370.421 109.488 369.648 109.44C369.54 109.433 369.431 109.425 369.323 109.415C369.263 109.409 368.935 109.374 369.189 109.402C369.439 109.431 369.067 109.381 368.993 109.368C368.872 109.347 368.751 109.324 368.631 109.299C368.133 109.196 367.641 109.062 367.156 108.909C366.886 108.823 366.619 108.731 366.354 108.634C366.237 108.591 366.121 108.547 366.005 108.501C365.909 108.464 365.488 108.291 365.787 108.417C365.247 108.189 364.717 107.936 364.199 107.664C363.669 107.386 363.15 107.088 362.645 106.767C362.402 106.613 362.163 106.453 361.926 106.289C361.8 106.201 361.674 106.111 361.55 106.02C361.497 105.981 361.445 105.941 361.392 105.903C361.204 105.765 361.573 106.047 361.391 105.904C360.938 105.546 360.501 105.169 360.089 104.765C359.884 104.562 359.684 104.354 359.493 104.138C359.413 104.047 359.334 103.955 359.256 103.862C359.218 103.817 359.183 103.768 359.143 103.723C359.018 103.584 359.296 103.942 359.13 103.706C358.833 103.285 358.57 102.859 358.335 102.4C358.31 102.351 358.291 102.299 358.266 102.251C358.268 102.256 358.371 102.531 358.315 102.369C358.274 102.252 358.225 102.137 358.186 102.018C358.108 101.784 358.058 101.547 358.002 101.308C357.934 101.018 358.017 101.654 357.999 101.3C357.995 101.213 357.988 101.126 357.986 101.039C357.982 100.824 358.011 100.613 358.017 100.4C358.022 100.224 358.002 100.59 357.993 100.572C357.983 100.549 358.019 100.415 358.026 100.379C358.046 100.281 358.064 100.183 358.087 100.085C358.141 99.8469 358.207 99.6114 358.282 99.3789C358.361 99.1322 358.453 98.8914 358.546 98.6496C358.651 98.3742 358.445 98.8639 358.57 98.5918C358.636 98.4484 358.701 98.3046 358.769 98.1625C359.011 97.661 359.28 97.1727 359.568 96.696C359.869 96.197 360.19 95.7105 360.528 95.2356C360.693 95.0035 360.863 94.775 361.035 94.5478C361.14 94.4084 361.009 94.5807 360.995 94.5982C361.049 94.5292 361.103 94.4603 361.158 94.3918C361.253 94.2721 361.35 94.1533 361.447 94.0352C362.253 93.0578 363.125 92.1294 364.073 91.2876C364.281 91.1023 364.494 90.9214 364.711 90.7462C364.766 90.7014 364.823 90.658 364.878 90.613C365.04 90.4811 364.648 90.7785 364.816 90.6628C364.926 90.5872 365.031 90.5039 365.141 90.4273C365.514 90.1662 365.903 89.9277 366.315 89.7321C367.064 89.3762 367.259 88.3023 366.866 87.6299C366.413 86.8561 365.52 86.7306 364.764 87.0789C364.703 87.107 364.211 87.3197 364.499 87.2012C364.329 87.2711 364.158 87.3384 363.986 87.4025C363.6 87.5463 363.208 87.6752 362.812 87.7891C362.084 87.9984 361.347 88.1422 360.601 88.2639C360.361 88.303 360.843 88.2396 360.601 88.2634C360.51 88.2724 360.419 88.2847 360.328 88.2943C360.146 88.3134 359.964 88.3298 359.782 88.3432C359.393 88.3719 359.004 88.388 358.615 88.3911C357.834 88.3974 357.057 88.347 356.281 88.2613C356.22 88.2546 355.979 88.2183 356.279 88.2628C356.188 88.2493 356.097 88.2363 356.006 88.2221C355.825 88.1937 355.643 88.1625 355.463 88.1288C355.079 88.0572 354.697 87.9734 354.318 87.8781C353.582 87.6932 352.857 87.4645 352.149 87.1926C351.977 87.1268 351.806 87.0592 351.637 86.9876C351.905 87.101 351.459 86.905 351.373 86.8654C350.998 86.6923 350.629 86.5068 350.267 86.3091C349.603 85.9474 348.962 85.544 348.35 85.1012C348.276 85.0476 348.202 84.9934 348.129 84.9386C348.096 84.9144 347.869 84.7384 348.012 84.8504C348.154 84.9624 347.93 84.783 347.898 84.7575C347.827 84.6999 347.757 84.6418 347.687 84.583C347.389 84.3334 347.1 84.0738 346.82 83.8041C346.556 83.55 346.301 83.2875 346.055 83.0164C345.932 82.8806 345.811 82.7429 345.693 82.603C345.634 82.533 345.575 82.4625 345.517 82.3915C345.502 82.3724 345.224 82.0183 345.416 82.27C344.951 81.66 344.533 81.0137 344.163 80.3418C343.983 80.0155 343.815 79.683 343.658 79.3452C343.619 79.2608 343.58 79.176 343.542 79.091C343.526 79.0537 343.412 78.7849 343.482 78.954C343.552 79.1232 343.443 78.8526 343.428 78.8146C343.385 78.7065 343.344 78.598 343.303 78.489C343.029 77.7471 342.806 76.9864 342.634 76.2142C342.553 75.8503 342.484 75.4837 342.426 75.1155C342.412 75.0234 342.398 74.9311 342.385 74.8388C342.394 74.901 342.419 75.1357 342.385 74.8308C342.362 74.622 342.34 74.4133 342.322 74.2039C342.257 73.4355 342.24 72.6631 342.27 71.8926C342.285 71.5187 342.31 71.1452 342.347 70.7728C342.365 70.5866 342.387 70.4007 342.41 70.2151C342.373 70.5089 342.404 70.2642 342.414 70.2066C342.436 70.0681 342.457 69.9295 342.481 69.7912C342.629 68.9397 342.835 68.0983 343.099 67.2754C343.235 66.8533 343.389 66.4385 343.551 66.026C343.57 65.9776 343.666 65.7547 343.558 66.0061C343.604 65.8992 343.651 65.7928 343.699 65.6868C343.786 65.4962 343.876 65.307 343.969 65.1195C344.364 64.3287 344.818 63.5679 345.33 62.8479C345.384 62.7721 345.439 62.6968 345.494 62.6219C345.515 62.5944 345.74 62.3013 345.628 62.444C345.518 62.5838 345.7 62.3562 345.725 62.3259C345.799 62.2356 345.873 62.1459 345.949 62.0572C346.252 61.7012 346.572 61.3608 346.904 61.0318C347.494 60.4478 347.489 59.4435 346.904 58.8587C346.313 58.2673 345.323 58.2738 344.731 58.859C344.009 59.5732 343.346 60.3432 342.708 61.1326C342.397 61.5165 342.092 61.905 341.79 62.295C341.569 62.5789 341.35 62.8636 341.13 63.1482C341.046 63.2575 340.961 63.3668 340.877 63.4762C340.845 63.5175 340.569 63.8753 340.659 63.7599C340.791 63.5893 340.511 63.9499 340.523 63.9345C340.437 64.0446 340.352 64.1547 340.266 64.2645C340.093 64.4846 339.92 64.704 339.745 64.9223C339.396 65.3582 339.042 65.7898 338.677 66.2128C337.961 67.0431 337.207 67.8441 336.383 68.5686C336.216 68.7161 336.045 68.8605 335.872 69.0011C335.84 69.0272 335.488 69.2928 335.764 69.0882C335.657 69.167 335.551 69.2457 335.443 69.3221C335.016 69.6246 334.57 69.9021 334.106 70.1453C333.875 70.2662 333.64 70.3801 333.401 70.4818C333.732 70.341 333.328 70.5037 333.283 70.5204C333.201 70.5506 333.118 70.5796 333.036 70.6074C332.788 70.6907 332.538 70.7643 332.284 70.8248C332.159 70.8545 332.033 70.881 331.907 70.9045C331.823 70.9201 331.739 70.9344 331.655 70.9472C331.851 70.9224 331.86 70.9203 331.682 70.9411C331.209 70.977 330.742 70.9975 330.268 70.9676C330.138 70.9594 330.01 70.9452 329.881 70.9348C329.452 70.9003 330.197 71.0007 329.774 70.9202C329.516 70.8713 329.26 70.8256 329.005 70.7627C328.75 70.6996 328.497 70.6264 328.247 70.5437C328.121 70.5022 327.997 70.4582 327.873 70.4119C327.879 70.4144 327.475 70.2555 327.687 70.3424C327.898 70.4294 327.499 70.2576 327.505 70.2605C327.384 70.2048 327.264 70.1468 327.145 70.0866C326.867 69.946 326.595 69.7934 326.331 69.6296C326.103 69.489 325.881 69.34 325.664 69.1833C325.631 69.1594 325.286 68.8845 325.549 69.0994C325.411 68.9866 325.274 68.8732 325.141 68.755C324.706 68.3705 324.314 67.9502 323.944 67.505C323.666 67.1715 324.104 67.7532 323.862 67.3942C323.763 67.2477 323.659 67.1052 323.563 66.9563C323.421 66.7337 323.287 66.5051 323.164 66.271C323.103 66.1541 323.044 66.0359 322.988 65.9164C322.95 65.8367 322.914 65.7565 322.879 65.6757C322.948 65.8398 322.95 65.8398 322.884 65.6756C322.784 65.382 322.683 65.0925 322.603 64.7924C322.389 63.9905 321.508 63.5008 320.713 63.7193C319.905 63.9414 319.426 64.8047 319.64 65.6092L319.64 65.6097Z" fill="#6C6D75"/>
<path d="M340.401 212.351C348.469 216.304 358.148 216.721 366.544 213.513C368.914 212.608 371.177 211.457 373.266 210.014C373.948 209.543 374.259 208.666 373.818 207.912C373.423 207.236 372.401 206.887 371.715 207.361C370.856 207.954 369.968 208.505 369.051 209.005C368.593 209.255 368.129 209.493 367.659 209.718C367.424 209.83 367.187 209.94 366.949 210.047C366.854 210.089 366.758 210.131 366.663 210.173C366.354 210.31 366.74 210.146 366.454 210.262C364.494 211.058 362.465 211.666 360.386 212.063C359.898 212.156 359.409 212.236 358.918 212.308C358.421 212.382 359.078 212.29 358.783 212.327C358.653 212.343 358.523 212.359 358.394 212.373C358.108 212.406 357.822 212.434 357.536 212.459C356.495 212.55 355.449 212.59 354.405 212.579C353.36 212.568 352.317 212.507 351.278 212.394C351.045 212.368 350.811 212.341 350.579 212.31C350.886 212.352 350.377 212.279 350.367 212.277C350.264 212.262 350.161 212.245 350.058 212.229C349.491 212.137 348.928 212.03 348.367 211.907C347.247 211.662 346.14 211.353 345.054 210.983C343.817 210.56 343.092 210.257 341.952 209.698C341.207 209.333 340.29 209.497 339.85 210.249C339.454 210.926 339.653 211.985 340.401 212.351Z" fill="#6C6D75"/>
<path d="M176.596 259.44C173.29 265.096 170.306 270.937 167.662 276.93C165 282.963 162.659 289.137 160.676 295.427C158.707 301.675 157.085 308.032 155.82 314.459C154.54 320.962 153.62 327.539 153.065 334.143C152.52 340.64 152.337 347.169 152.528 353.686C152.552 354.512 152.583 355.338 152.619 356.163C152.654 356.965 153.301 357.738 154.155 357.699C154.958 357.663 155.729 357.023 155.692 356.163C155.411 349.678 155.494 343.178 155.942 336.702C156.393 330.177 157.169 324.015 158.337 317.624C159.505 311.238 161.024 304.917 162.885 298.698C163.816 295.589 164.832 292.505 165.933 289.451C166.493 287.897 167.075 286.35 167.679 284.812C167.97 284.071 168.266 283.331 168.567 282.594C168.849 281.904 169.157 281.163 169.4 280.592C171.953 274.592 174.842 268.736 178.056 263.062C178.449 262.369 178.847 261.679 179.249 260.991C179.668 260.275 179.414 259.308 178.698 258.889C177.979 258.468 177.016 258.722 176.596 259.44Z" fill="#393A45"/>
<path d="M142.497 325.574C141.221 333.626 141.019 341.807 141.991 349.905C142.087 350.7 142.63 351.481 143.528 351.441C144.278 351.407 145.167 350.759 145.064 349.905C144.128 342.103 144.241 334.084 145.46 326.391C145.586 325.6 145.258 324.699 144.387 324.501C143.651 324.333 142.632 324.725 142.497 325.574Z" fill="#393A45"/>
<path d="M275.486 352.379C282.215 359.475 290.863 364.712 300.24 367.468C302.834 368.23 305.482 368.792 308.16 369.154C308.953 369.261 309.849 368.964 310.05 368.081C310.214 367.36 309.829 366.306 308.977 366.191C304.351 365.566 299.63 364.28 295.442 362.513C293.447 361.672 291.226 360.554 289.251 359.399C288.225 358.798 287.218 358.165 286.233 357.499C285.786 357.196 285.342 356.886 284.904 356.571C284.448 356.242 283.806 355.763 283.53 355.546C281.446 353.91 279.482 352.129 277.659 350.206C277.088 349.604 276.062 349.631 275.486 350.206C274.885 350.808 274.914 351.775 275.486 352.379Z" fill="#393A45"/>
<path d="M278.616 371.328L281.487 372.763C281.858 372.949 282.261 373.031 282.671 372.918C283.027 372.82 283.414 372.545 283.589 372.212C283.778 371.856 283.872 371.424 283.744 371.028C283.625 370.662 283.394 370.288 283.038 370.11C282.081 369.632 281.124 369.153 280.167 368.675C279.796 368.489 279.394 368.407 278.983 368.52C278.627 368.618 278.241 368.893 278.065 369.226C277.877 369.582 277.782 370.014 277.91 370.41C278.029 370.776 278.26 371.15 278.616 371.328Z" fill="#393A45"/>
</svg>
