<svg width="622" height="334" viewBox="0 0 622 334" fill="none" xmlns="http://www.w3.org/2000/svg">
<mask id="path-1-outside-1_3001_1493" maskUnits="userSpaceOnUse" x="0" y="0.5" width="622" height="333" fill="black">
<rect fill="white" y="0.5" width="622" height="333"/>
<path d="M520.576 1.5C520.877 1.5 521.178 1.50133 521.478 1.50399C540.148 1.66907 552.195 19.1984 552.195 37.8686V44.6937C552.195 64.8746 568.555 81.2344 588.736 81.2344H598.117C609.997 81.2344 620.576 89.6203 620.576 101.5V316.5C620.576 325.337 613.413 332.5 604.576 332.5H17C8.16346 332.5 1 325.337 1 316.5V17.5C1 8.66344 8.16344 1.5 17 1.5H520.576Z"/>
</mask>
<path d="M520.576 1.5C520.877 1.5 521.178 1.50133 521.478 1.50399C540.148 1.66907 552.195 19.1984 552.195 37.8686V44.6937C552.195 64.8746 568.555 81.2344 588.736 81.2344H598.117C609.997 81.2344 620.576 89.6203 620.576 101.5V316.5C620.576 325.337 613.413 332.5 604.576 332.5H17C8.16346 332.5 1 325.337 1 316.5V17.5C1 8.66344 8.16344 1.5 17 1.5H520.576Z" fill="white"/>
<path d="M17 332.5L17 333.5H17V332.5ZM1 316.5H2H1ZM1 17.5H0H1ZM17 1.5V0.5V1.5ZM520.576 1.5V2.5C520.874 2.5 521.172 2.50132 521.469 2.50395L521.478 1.50399L521.487 0.504025C521.184 0.501344 520.88 0.5 520.576 0.5V1.5ZM552.195 37.8686H551.195V44.6937H552.195H553.195V37.8686H552.195ZM588.736 81.2344V82.2344H598.117V81.2344V80.2344H588.736V81.2344ZM620.576 101.5H619.576V316.5H620.576H621.576V101.5H620.576ZM620.576 316.5H619.576C619.576 324.784 612.86 331.5 604.576 331.5V332.5V333.5C613.965 333.5 621.576 325.889 621.576 316.5H620.576ZM604.576 332.5V331.5H17V332.5V333.5H604.576V332.5ZM17 332.5L17 331.5C8.71574 331.5 2 324.784 2 316.5H1H0C0 325.889 7.61117 333.5 17 333.5L17 332.5ZM1 316.5H2V17.5H1H0V316.5H1ZM1 17.5H2C2 9.21573 8.71573 2.5 17 2.5V1.5V0.5C7.61116 0.5 0 8.11116 0 17.5H1ZM17 1.5V2.5H520.576V1.5V0.5H17V1.5ZM598.117 81.2344V82.2344C609.583 82.2344 619.576 90.3016 619.576 101.5H620.576H621.576C621.576 88.939 610.41 80.2344 598.117 80.2344V81.2344ZM552.195 44.6937H551.195C551.195 65.4268 568.003 82.2344 588.736 82.2344V81.2344V80.2344C569.107 80.2344 553.195 64.3223 553.195 44.6937H552.195ZM521.478 1.50399L521.469 2.50395C539.395 2.66245 551.195 19.5293 551.195 37.8686H552.195H553.195C553.195 18.8676 540.9 0.675686 521.487 0.504025L521.478 1.50399Z" fill="#F3F3F3" mask="url(#path-1-outside-1_3001_1493)"/>
</svg>
