<svg width="33" height="33" viewBox="0 0 33 33" fill="none" xmlns="http://www.w3.org/2000/svg">
<rect x="0.935547" y="0.236816" width="32" height="32" rx="16" fill="#00A099"/>
<path d="M16.9355 25.0759C16.6876 25.0758 16.4438 25.0124 16.2272 24.8917L13.4189 23.3309C12.0226 22.5547 10.8591 21.4194 10.0489 20.0426C9.2387 18.6659 8.81115 17.0975 8.81055 15.5V11.17C8.81051 10.8097 8.94408 10.4622 9.18544 10.1947C9.4268 9.92713 9.7588 9.75861 10.1172 9.72169C11.2345 9.60314 12.3342 9.35451 13.3939 8.98086C14.3652 8.63757 15.2969 8.19113 16.173 7.64919H16.1739C16.4033 7.50915 16.6668 7.43506 16.9355 7.43506C17.2043 7.43506 17.4678 7.50915 17.6972 7.64919C18.5737 8.19109 19.5057 8.63752 20.4772 8.98086C21.5369 9.35451 22.6365 9.60314 23.7539 9.72169C24.1123 9.75861 24.4443 9.92713 24.6856 10.1947C24.927 10.4622 25.0606 10.8097 25.0605 11.17V15.5C25.0599 17.0975 24.6324 18.6659 23.8222 20.0426C23.0119 21.4194 21.8485 22.5547 20.4522 23.3309L17.6439 24.8917C17.4273 25.0124 17.1835 25.0758 16.9355 25.0759ZM16.8314 8.71336C15.8789 9.30163 14.8662 9.78633 13.8105 10.1592C12.6591 10.5657 11.464 10.8359 10.2497 10.9642C10.1981 10.9686 10.1501 10.9922 10.115 11.0303C10.08 11.0684 10.0606 11.1183 10.0605 11.17V15.5C10.061 16.8746 10.4288 18.2241 11.1259 19.4089C11.823 20.5936 12.8241 21.5704 14.0255 22.2384L16.8339 23.7984C16.8648 23.8161 16.8999 23.8255 16.9355 23.8255C16.9712 23.8255 17.0063 23.8161 17.0372 23.7984L19.8455 22.2384C21.047 21.5704 22.048 20.5936 22.7452 19.4089C23.4423 18.2241 23.8101 16.8746 23.8105 15.5V11.17C23.8105 11.1183 23.7911 11.0684 23.756 11.0303C23.721 10.9922 23.673 10.9686 23.6214 10.9642C22.4071 10.8359 21.212 10.5657 20.0605 10.1592C19.0049 9.78633 17.9922 9.30163 17.0397 8.71336C17.0083 8.6944 16.9723 8.68438 16.9355 8.68438C16.8988 8.68438 16.8628 8.6944 16.8314 8.71336Z" fill="white"/>
<path d="M19.0163 20.6118H14.8496C14.3525 20.6114 13.8758 20.4137 13.5243 20.0622C13.1727 19.7106 12.9751 19.234 12.9746 18.7368V16.2368C12.9751 15.7397 13.1727 15.263 13.5243 14.9115C13.8758 14.5599 14.3525 14.3623 14.8496 14.3618H19.0163C19.5134 14.3623 19.9901 14.5599 20.3416 14.9115C20.6931 15.263 20.8908 15.7397 20.8913 16.2368V18.7368C20.8908 19.234 20.6931 19.7106 20.3416 20.0622C19.9901 20.4137 19.5134 20.6114 19.0163 20.6118ZM14.8496 15.6118C14.6838 15.6118 14.5249 15.6777 14.4077 15.7949C14.2905 15.9121 14.2246 16.0711 14.2246 16.2368V18.7368C14.2246 18.9026 14.2905 19.0615 14.4077 19.1788C14.5249 19.296 14.6838 19.3618 14.8496 19.3618H19.0163C19.182 19.3618 19.341 19.296 19.4582 19.1788C19.5754 19.0615 19.6413 18.9026 19.6413 18.7368V16.2368C19.6413 16.0711 19.5754 15.9121 19.4582 15.7949C19.341 15.6777 19.182 15.6118 19.0163 15.6118H14.8496Z" fill="white"/>
<path d="M18.6048 15.6117H15.2715C15.1057 15.6117 14.9468 15.5458 14.8295 15.4286C14.7123 15.3114 14.6465 15.1524 14.6465 14.9867V13.32C14.6465 12.7122 14.8879 12.1293 15.3177 11.6995C15.7475 11.2698 16.3304 11.0283 16.9382 11.0283C17.5459 11.0283 18.1288 11.2698 18.5586 11.6995C18.9884 12.1293 19.2298 12.7122 19.2298 13.32V14.9867C19.2298 15.1524 19.164 15.3114 19.0468 15.4286C18.9295 15.5458 18.7706 15.6117 18.6048 15.6117ZM15.8965 14.3617H17.9798V13.32C17.9798 13.0437 17.8701 12.7788 17.6747 12.5834C17.4794 12.3881 17.2144 12.2783 16.9382 12.2783C16.6619 12.2783 16.3969 12.3881 16.2016 12.5834C16.0062 12.7788 15.8965 13.0437 15.8965 13.32V14.3617Z" fill="white"/>
</svg>
