<svg width="33" height="33" viewBox="0 0 33 33" fill="none" xmlns="http://www.w3.org/2000/svg">
<rect x="0.935547" y="0.236816" width="32" height="32" rx="16" fill="#00A099"/>
<g clip-path="url(#clip0_983_75495)">
<path d="M19.1761 23.9836C18.4754 24.2304 17.7225 24.3651 16.9385 24.3651C16.1772 24.3656 15.4213 24.2369 14.7032 23.9844C14.4251 24.4381 14.0751 24.8434 13.6646 25.1879C14.6689 25.6236 15.7758 25.8657 16.9384 25.8657C18.1007 25.8657 19.2074 25.6237 20.2116 25.1882C19.804 24.8448 19.4544 24.4381 19.1761 23.9836ZM12.5411 12.4916C12.2862 12.0234 12.1084 11.5172 12.0145 10.9924C10.2353 12.3192 9.0073 14.3454 8.74023 16.66C9.24161 16.4784 9.76884 16.3782 10.3019 16.3633C10.5903 14.827 11.4005 13.4724 12.5411 12.4916ZM23.5751 16.3633C24.1082 16.3782 24.6354 16.4784 25.1368 16.66C24.8696 14.3455 23.6417 12.3192 21.8625 10.9924C21.7686 11.5172 21.5908 12.0234 21.3359 12.4916C22.4764 13.4724 23.2866 14.8269 23.5751 16.3633Z" fill="white"/>
<path d="M16.937 13.6106C18.8709 13.6106 20.4385 12.043 20.4385 10.1092C20.4385 8.17534 18.8709 6.60767 16.937 6.60767C15.0032 6.60767 13.4355 8.17534 13.4355 10.1092C13.4355 12.043 15.0032 13.6106 16.937 13.6106Z" fill="white"/>
<path d="M8.68689 18.3315C7.01213 19.2984 6.43833 21.4399 7.40525 23.1146C8.05382 24.238 9.23077 24.866 10.4409 24.866C11.0349 24.866 11.637 24.7147 12.1884 24.3963C13.8631 23.4294 14.4369 21.2878 13.47 19.6132C12.8214 18.4898 11.6445 17.8618 10.4343 17.8618C9.84038 17.8618 9.23822 18.0132 8.68689 18.3315ZM20.4011 19.6132C19.4342 21.2879 20.008 23.4294 21.6827 24.3963C22.2342 24.7147 22.8362 24.866 23.4302 24.866C24.6403 24.866 25.8173 24.238 26.4658 23.1147C27.4327 21.44 26.859 19.2984 25.1842 18.3315C24.6328 18.0131 24.0309 17.8618 23.4368 17.8618C22.2267 17.8619 21.0496 18.4899 20.4011 19.6132Z" fill="white"/>
</g>
<defs>
<clipPath id="clip0_983_75495">
<rect width="20" height="20" fill="white" transform="translate(6.93555 6.23682)"/>
</clipPath>
</defs>
</svg>
