<svg width="32" height="33" viewBox="0 0 32 33" fill="none" xmlns="http://www.w3.org/2000/svg">
<rect y="0.687256" width="32" height="32" rx="16" fill="#00A099"/>
<path fill-rule="evenodd" clip-rule="evenodd" d="M13.2891 15.8538V17.5204C13.2891 18.0177 13.4866 18.4946 13.8382 18.8463C14.1899 19.1979 14.6668 19.3954 15.1641 19.3954H16.8307C17.328 19.3954 17.8049 19.1979 18.1566 18.8463C18.5082 18.4946 18.7057 18.0177 18.7057 17.5204V15.8538C18.7057 15.3565 18.5082 14.8796 18.1566 14.5279C17.8049 14.1763 17.328 13.9788 16.8307 13.9788H15.1641C14.6668 13.9788 14.1899 14.1763 13.8382 14.5279C13.4866 14.8796 13.2891 15.3565 13.2891 15.8538ZM14.5391 15.8538C14.5391 15.6879 14.6049 15.5288 14.7224 15.4121C14.7803 15.3539 14.8491 15.3078 14.9249 15.2763C15.0007 15.2449 15.082 15.2287 15.1641 15.2288H16.8307C16.9966 15.2288 17.1557 15.2946 17.2724 15.4121C17.3899 15.5288 17.4557 15.6879 17.4557 15.8538V17.5204C17.4557 17.6863 17.3899 17.8454 17.2724 17.9621C17.2145 18.0203 17.1457 18.0664 17.0699 18.0979C16.9941 18.1293 16.9128 18.1455 16.8307 18.1454H15.1641C15.082 18.1455 15.0007 18.1293 14.9249 18.0979C14.8491 18.0664 14.7803 18.0203 14.7224 17.9621C14.6642 17.9042 14.6181 17.8354 14.5866 17.7596C14.5552 17.6838 14.539 17.6025 14.5391 17.5204V15.8538ZM7.03906 9.60376V11.2704C7.03906 11.7677 7.23661 12.2446 7.58824 12.5963C7.93987 12.9479 8.41678 13.1454 8.91406 13.1454H10.5807C11.078 13.1454 11.5549 12.9479 11.9066 12.5963C12.2582 12.2446 12.4557 11.7677 12.4557 11.2704V9.60376C12.4557 9.10648 12.2582 8.62957 11.9066 8.27793C11.5549 7.9263 11.078 7.72876 10.5807 7.72876H8.91406C8.41678 7.72876 7.93987 7.9263 7.58824 8.27793C7.23661 8.62957 7.03906 9.10648 7.03906 9.60376ZM8.28906 9.60376C8.28906 9.43793 8.3549 9.27876 8.4724 9.16209C8.53029 9.10393 8.59912 9.05779 8.67492 9.02632C8.75072 8.99486 8.83199 8.9787 8.91406 8.97876H10.5807C10.7466 8.97876 10.9057 9.04459 11.0224 9.16209C11.1399 9.27876 11.2057 9.43793 11.2057 9.60376V11.2704C11.2057 11.4363 11.1399 11.5954 11.0224 11.7121C10.9645 11.7703 10.8957 11.8164 10.8199 11.8479C10.7441 11.8793 10.6628 11.8955 10.5807 11.8954H8.91406C8.83199 11.8955 8.75072 11.8793 8.67492 11.8479C8.59912 11.8164 8.53029 11.7703 8.4724 11.7121C8.41423 11.6542 8.36809 11.5854 8.33663 11.5096C8.30516 11.4338 8.289 11.3525 8.28906 11.2704V9.60376ZM19.5391 22.1038V23.7704C19.5391 24.2677 19.7366 24.7446 20.0882 25.0963C20.4399 25.4479 20.9168 25.6454 21.4141 25.6454H23.0807C23.578 25.6454 24.0549 25.4479 24.4066 25.0963C24.7582 24.7446 24.9557 24.2677 24.9557 23.7704V22.1038C24.9557 21.6065 24.7582 21.1296 24.4066 20.7779C24.0549 20.4263 23.578 20.2288 23.0807 20.2288H21.4141C20.9168 20.2288 20.4399 20.4263 20.0882 20.7779C19.7366 21.1296 19.5391 21.6065 19.5391 22.1038ZM20.7891 22.1038C20.7891 21.9379 20.8549 21.7788 20.9724 21.6621C21.0303 21.6039 21.0991 21.5578 21.1749 21.5263C21.2507 21.4949 21.332 21.4787 21.4141 21.4788H23.0807C23.2466 21.4788 23.4057 21.5446 23.5224 21.6621C23.6399 21.7788 23.7057 21.9379 23.7057 22.1038V23.7704C23.7057 23.9363 23.6399 24.0954 23.5224 24.2121C23.4645 24.2703 23.3957 24.3164 23.3199 24.3479C23.2441 24.3793 23.1628 24.3955 23.0807 24.3954H21.4141C21.332 24.3955 21.2507 24.3793 21.1749 24.3479C21.0991 24.3164 21.0303 24.2703 20.9724 24.2121C20.9142 24.1542 20.8681 24.0854 20.8366 24.0096C20.8052 23.9338 20.789 23.8525 20.7891 23.7704V22.1038Z" fill="white"/>
<path fill-rule="evenodd" clip-rule="evenodd" d="M11.8307 11.062H22.6641C22.9402 11.0625 23.2049 11.1723 23.4001 11.3676C23.5954 11.5629 23.7053 11.8275 23.7057 12.1037V15.0203C23.7053 15.2965 23.5954 15.5612 23.4001 15.7564C23.2049 15.9517 22.9402 16.0616 22.6641 16.062H20.1641C19.9983 16.062 19.8393 16.1279 19.7221 16.2451C19.6049 16.3623 19.5391 16.5213 19.5391 16.687C19.5391 16.8528 19.6049 17.0117 19.7221 17.129C19.8393 17.2462 19.9983 17.312 20.1641 17.312H22.6641C23.2716 17.312 23.8549 17.0703 24.2849 16.6412C24.7142 16.211 24.9555 15.6281 24.9557 15.0203V12.1037C24.9557 11.4962 24.7141 10.9128 24.2849 10.4828C23.8547 10.0535 23.2718 9.81227 22.6641 9.81201H11.8307C11.665 9.81201 11.506 9.87786 11.3888 9.99507C11.2716 10.1123 11.2057 10.2713 11.2057 10.437C11.2057 10.6028 11.2716 10.7617 11.3888 10.879C11.506 10.9962 11.665 11.062 11.8307 11.062ZM16.8307 22.312H9.33073C9.0546 22.3116 8.7899 22.2017 8.59465 22.0064C8.39939 21.8112 8.2895 21.5465 8.28906 21.2703V18.3537C8.2895 18.0775 8.39939 17.8129 8.59465 17.6176C8.7899 17.4223 9.0546 17.3125 9.33073 17.312H13.9141C14.0798 17.312 14.2388 17.2462 14.356 17.129C14.4732 17.0117 14.5391 16.8528 14.5391 16.687C14.5391 16.5213 14.4732 16.3623 14.356 16.2451C14.2388 16.1279 14.0798 16.062 13.9141 16.062H9.33073C8.72323 16.062 8.1399 16.3037 7.7099 16.7328C7.28056 17.163 7.03932 17.7459 7.03906 18.3537V21.2703C7.03906 21.8778 7.28073 22.4612 7.7099 22.8912C8.14008 23.3205 8.72296 23.5618 9.33073 23.562H16.8307C16.9965 23.562 17.1555 23.4962 17.2727 23.379C17.3899 23.2617 17.4557 23.1028 17.4557 22.937C17.4557 22.7713 17.3899 22.6123 17.2727 22.4951C17.1555 22.3779 16.9965 22.312 16.8307 22.312Z" fill="white"/>
<path fill-rule="evenodd" clip-rule="evenodd" d="M22.2746 17.912L21.0504 16.687L22.2746 15.462C22.3326 15.404 22.3786 15.3352 22.41 15.2594C22.4414 15.1836 22.4576 15.1024 22.4576 15.0204C22.4576 14.9383 22.4414 14.8571 22.41 14.7813C22.3786 14.7056 22.3326 14.6367 22.2746 14.5787C22.2166 14.5207 22.1478 14.4747 22.072 14.4433C21.9962 14.4119 21.915 14.3958 21.8329 14.3958C21.7509 14.3958 21.6697 14.4119 21.5939 14.4433C21.5181 14.4747 21.4493 14.5207 21.3913 14.5787L19.7246 16.2454C19.6666 16.3033 19.6205 16.3722 19.5891 16.448C19.5577 16.5238 19.5415 16.605 19.5415 16.687C19.5415 16.7691 19.5577 16.8503 19.5891 16.9261C19.6205 17.0019 19.6666 17.0707 19.7246 17.1287L21.3913 18.7954C21.4493 18.8534 21.5181 18.8994 21.5939 18.9308C21.6697 18.9622 21.7509 18.9783 21.8329 18.9783C21.915 18.9783 21.9962 18.9622 22.072 18.9308C22.1478 18.8994 22.2166 18.8534 22.2746 18.7954C22.3326 18.7374 22.3786 18.6685 22.41 18.5927C22.4414 18.5169 22.4576 18.4357 22.4576 18.3537C22.4576 18.2717 22.4414 18.1904 22.41 18.1147C22.3786 18.0389 22.3326 17.97 22.2746 17.912ZM16.4413 25.0454L18.1079 23.3787C18.166 23.3207 18.2121 23.2519 18.2435 23.1761C18.2749 23.1003 18.2911 23.0191 18.2911 22.937C18.2911 22.855 18.2749 22.7738 18.2435 22.698C18.2121 22.6222 18.166 22.5533 18.1079 22.4954L16.4413 20.8287C16.3241 20.7116 16.1653 20.6458 15.9996 20.6458C15.834 20.6458 15.6751 20.7116 15.5579 20.8287C15.4408 20.9458 15.375 21.1047 15.375 21.2704C15.375 21.436 15.4408 21.5949 15.5579 21.712L16.7821 22.937L15.5579 24.162C15.4999 24.22 15.4539 24.2889 15.4225 24.3647C15.3912 24.4404 15.375 24.5217 15.375 24.6037C15.375 24.6857 15.3912 24.7669 15.4225 24.8427C15.4539 24.9185 15.4999 24.9874 15.5579 25.0454C15.6159 25.1034 15.6848 25.1494 15.7606 25.1808C15.8364 25.2122 15.9176 25.2283 15.9996 25.2283C16.0816 25.2283 16.1629 25.2122 16.2386 25.1808C16.3144 25.1494 16.3833 25.1034 16.4413 25.0454Z" fill="white"/>
</svg>
