<svg width="32" height="33" viewBox="0 0 32 33" fill="none" xmlns="http://www.w3.org/2000/svg">
<rect y="0.687256" width="32" height="32" rx="16" fill="#00A099"/>
<g clip-path="url(#clip0_983_78366)">
<path d="M23.4219 8.24976H21.625V7.31226C21.625 6.9671 21.3452 6.68726 21 6.68726C20.6548 6.68726 20.375 6.9671 20.375 7.31226V8.24976H11.625V7.31226C11.625 6.9671 11.3452 6.68726 11 6.68726C10.6548 6.68726 10.375 6.9671 10.375 7.31226V8.24976H8.57812C7.15652 8.24976 6 9.40628 6 10.8279V24.1091C6 25.5307 7.15652 26.6873 8.57812 26.6873H23.4219C24.8435 26.6873 26 25.5307 26 24.1091V10.8279C26 9.40628 24.8435 8.24976 23.4219 8.24976ZM8.57812 9.49976H10.375V10.1248C10.375 10.4699 10.6548 10.7498 11 10.7498C11.3452 10.7498 11.625 10.4699 11.625 10.1248V9.49976H20.375V10.1248C20.375 10.4699 20.6548 10.7498 21 10.7498C21.3452 10.7498 21.625 10.4699 21.625 10.1248V9.49976H23.4219C24.1542 9.49976 24.75 10.0955 24.75 10.8279V12.3123H7.25V10.8279C7.25 10.0955 7.84578 9.49976 8.57812 9.49976ZM23.4219 25.4373H8.57812C7.84578 25.4373 7.25 24.8415 7.25 24.1091V13.5623H24.75V24.1091C24.75 24.8415 24.1542 25.4373 23.4219 25.4373Z" fill="white"/>
</g>
<defs>
<clipPath id="clip0_983_78366">
<rect width="20" height="20" fill="white" transform="translate(6 6.68726)"/>
</clipPath>
</defs>
</svg>
